M48
; DRILL file {KiCad 8.0.8} date 2025-01-24T10:54:35+0530
; FORMAT={-:-/ absolute / inch / decimal}
; #@! TF.CreationDate,2025-01-24T10:54:35+05:30
; #@! TF.GenerationSoftware,Kicad,Pcbnew,8.0.8
; #@! TF.FileFunction,Plated,1,2,PTH
FMAT,2
INCH
; #@! TA.AperFunction,Plated,PTH,ViaDrill
T1C0.0118
; #@! TA.AperFunction,Plated,PTH,ComponentDrill
T2C0.0138
; #@! TA.AperFunction,Plated,PTH,ComponentDrill
T3C0.0236
; #@! TA.AperFunction,Plated,PTH,ComponentDrill
T4C0.0295
; #@! TA.AperFunction,Plated,PTH,ComponentDrill
T5C0.0315
; #@! TA.AperFunction,Plated,PTH,ComponentDrill
T6C0.0394
; #@! TA.AperFunction,Plated,PTH,ComponentDrill
T7C0.0433
%
G90
G05
T1
X2.7165Y-2.2283
X2.8346Y-2.5276
X2.8698Y-2.5318
X2.874Y-2.811
X2.9606Y-2.6378
X2.9642Y-2.5899
X2.9685Y-2.8268
X2.9843Y-2.6142
X3.2441Y-2.6457
X3.4016Y-2.5984
X3.5354Y-2.2362
X3.6063Y-2.6063
X3.7323Y-2.3465
X3.9055Y-2.1811
X3.9055Y-2.3465
X3.9764Y-2.0866
X4.0Y-2.5197
X4.0157Y-2.4094
X4.126Y-2.5039
X4.1496Y-2.5984
X4.1969Y-2.2992
X4.2825Y-1.9841
X4.3386Y-2.1654
X4.3386Y-2.685
X4.3722Y-2.7422
X4.378Y-2.5591
X4.3858Y-2.7717
X4.4252Y-2.4409
X4.4252Y-2.5039
X4.4331Y-2.7795
X4.4724Y-1.9449
X4.5039Y-2.1496
X4.5263Y-2.6211
X4.529Y-2.5197
X4.5502Y-2.543
X4.5805Y-2.5535
X4.5906Y-2.1575
X4.6063Y-2.5354
X4.622Y-2.4409
X4.622Y-2.5827
X4.6378Y-2.0315
X4.6457Y-2.1339
X4.6535Y-2.5738
X4.685Y-2.4488
X4.7323Y-2.5394
X4.7323Y-2.5984
X4.7353Y-2.6693
X4.8526Y-2.688
X4.8588Y-2.4094
X4.8819Y-2.3858
X4.8824Y-2.6855
X4.9055Y-2.3465
X4.9257Y-2.5394
X4.9528Y-2.126
X4.9685Y-2.7953
X5.0Y-2.3937
X5.0157Y-2.7874
X5.0297Y-2.7129
X5.0394Y-2.8583
X5.1348Y-2.6929
X5.1417Y-2.4803
X5.1496Y-2.189
X5.1811Y-2.7874
X5.189Y-2.2992
X5.1969Y-2.6211
X5.2047Y-2.4882
X5.2598Y-2.6211
X5.315Y-2.685
X5.3228Y-2.8031
X5.3346Y-2.7402
X5.3543Y-2.5669
X5.3622Y-2.3701
X5.4488Y-2.1654
X5.4646Y-2.3386
X5.4803Y-2.5974
X5.4882Y-2.4803
X5.5276Y-2.2441
X5.5276Y-2.3228
X5.6535Y-2.7244
X5.6614Y-2.5984
X5.7008Y-2.3386
X5.7638Y-2.5039
X5.811Y-2.1339
X5.811Y-2.5906
X5.8346Y-2.3465
X5.8618Y-2.665
X5.9134Y-2.7165
X5.9912Y-2.6132
X6.0157Y-2.7717
X6.0551Y-2.7171
X6.0866Y-2.6693
X6.1496Y-2.189
X6.1969Y-2.3543
X6.3543Y-2.3543
X6.3858Y-2.937
X6.4317Y-2.7175
T2
X4.7771Y-2.5394
X4.7771Y-2.5896
X4.7771Y-2.6398
X4.8273Y-2.5394
X4.8273Y-2.5896
X4.8273Y-2.6398
X4.8775Y-2.5394
X4.8775Y-2.5896
X4.8775Y-2.6398
T4
X6.2205Y-2.8043
X6.2205Y-2.8543
X6.2205Y-2.9043
X6.6992Y-2.7925
X6.6992Y-2.8425
X6.6992Y-2.8925
T5
X2.8642Y-1.9155
X2.8642Y-2.0533
X2.9724Y-2.2402
X2.9724Y-2.378
X3.2087Y-1.9155
X3.2087Y-2.0533
X3.3169Y-2.2343
X3.3169Y-2.372
T6
X4.5827Y-1.9213
X4.6827Y-1.9213
X6.278Y-2.5
X6.378Y-2.5
X6.478Y-2.5
X6.578Y-2.5
T7
X3.6024Y-1.9094
X3.6024Y-2.0866
X3.8583Y-1.9094
X3.8583Y-2.0866
X5.0453Y-1.9114
X5.0453Y-2.0886
X5.3012Y-1.9114
X5.3012Y-2.0886
X5.4547Y-1.9094
X5.4547Y-2.0866
X5.7106Y-1.9094
X5.7106Y-2.0866
T3
G00X2.4961Y-2.123
M15
G01X2.4646Y-2.123
M16
G05
G00X2.4961Y-2.4636
M15
G01X2.4646Y-2.4636
M16
G05
G00X2.6661Y-2.123
M15
G01X2.6228Y-2.123
M16
G05
G00X2.6661Y-2.4636
M15
G01X2.6228Y-2.4636
M16
G05
M30
