%TF.GenerationSoftware,KiCad,Pcbnew,8.0.8*%
%TF.CreationDate,2025-01-24T10:54:44+05:30*%
%TF.ProjectId,heatPlate,68656174-506c-4617-9465-2e6b69636164,rev?*%
%TF.SameCoordinates,Original*%
%TF.FileFunction,Copper,L2,Bot*%
%TF.FilePolarity,Positive*%
%FSLAX46Y46*%
G04 Gerber Fmt 4.6, Leading zero omitted, Abs format (unit mm)*
G04 Created by KiCad (PCBNEW 8.0.8) date 2025-01-24 10:54:44*
%MOMM*%
%LPD*%
G01*
G04 APERTURE LIST*
%TA.AperFunction,ComponentPad*%
%ADD10O,2.000000X0.900000*%
%TD*%
%TA.AperFunction,ComponentPad*%
%ADD11O,1.700000X0.900000*%
%TD*%
%TA.AperFunction,ComponentPad*%
%ADD12C,2.000000*%
%TD*%
%TA.AperFunction,ComponentPad*%
%ADD13R,1.600000X1.600000*%
%TD*%
%TA.AperFunction,ComponentPad*%
%ADD14C,1.600000*%
%TD*%
%TA.AperFunction,ComponentPad*%
%ADD15R,1.700000X1.700000*%
%TD*%
%TA.AperFunction,ComponentPad*%
%ADD16O,1.700000X1.700000*%
%TD*%
%TA.AperFunction,ComponentPad*%
%ADD17C,0.600000*%
%TD*%
%TA.AperFunction,ComponentPad*%
%ADD18O,1.600000X2.000000*%
%TD*%
%TA.AperFunction,ComponentPad*%
%ADD19R,1.500000X1.050000*%
%TD*%
%TA.AperFunction,ComponentPad*%
%ADD20O,1.500000X1.050000*%
%TD*%
%TA.AperFunction,ViaPad*%
%ADD21C,0.600000*%
%TD*%
%TA.AperFunction,ViaPad*%
%ADD22C,0.500000*%
%TD*%
%TA.AperFunction,Conductor*%
%ADD23C,0.200000*%
%TD*%
G04 APERTURE END LIST*
D10*
%TO.P,J4,S1,SHIELD*%
%TO.N,GND*%
X67170000Y-53925000D03*
%TO.P,J4,S2,SHIELD*%
X67170000Y-62575000D03*
D11*
%TO.P,J4,S3,SHIELD*%
X63000000Y-53925000D03*
%TO.P,J4,S4,SHIELD*%
X63000000Y-62575000D03*
%TD*%
D12*
%TO.P,SW2,1,1*%
%TO.N,/GPIO6*%
X145050000Y-53000000D03*
X138550000Y-53000000D03*
%TO.P,SW2,2,2*%
%TO.N,GND*%
X145050000Y-48500000D03*
X138550000Y-48500000D03*
%TD*%
D13*
%TO.P,C11,1*%
%TO.N,VBUS*%
X84250000Y-56750000D03*
D14*
%TO.P,C11,2*%
%TO.N,GND*%
X84250000Y-60250000D03*
%TD*%
D15*
%TO.P,J1,1,Pin_1*%
%TO.N,/~{USB_BOOT}*%
X116400000Y-48800000D03*
D16*
%TO.P,J1,2,Pin_2*%
%TO.N,GND*%
X118940000Y-48800000D03*
%TD*%
D17*
%TO.P,U2,57,GND*%
%TO.N,GND*%
X121337500Y-64500000D03*
X121337500Y-65775000D03*
X121337500Y-67050000D03*
X122612500Y-64500000D03*
X122612500Y-65775000D03*
X122612500Y-67050000D03*
X123887500Y-64500000D03*
X123887500Y-65775000D03*
X123887500Y-67050000D03*
%TD*%
D13*
%TO.P,C13,1*%
%TO.N,VBUS*%
X75500000Y-56900000D03*
D14*
%TO.P,C13,2*%
%TO.N,GND*%
X75500000Y-60400000D03*
%TD*%
D12*
%TO.P,SW1,1,1*%
%TO.N,/GPIO7*%
X134650000Y-53050000D03*
X128150000Y-53050000D03*
%TO.P,SW1,2,2*%
%TO.N,GND*%
X134650000Y-48550000D03*
X128150000Y-48550000D03*
%TD*%
D13*
%TO.P,C14,1*%
%TO.N,VBUS*%
X81500000Y-52152651D03*
D14*
%TO.P,C14,2*%
%TO.N,GND*%
X81500000Y-48652651D03*
%TD*%
D18*
%TO.P,OLED1,1,GND*%
%TO.N,GND*%
X167080000Y-63500000D03*
%TO.P,OLED1,2,VCC*%
%TO.N,+3.3V*%
X164540000Y-63500000D03*
%TO.P,OLED1,3,SCL*%
%TO.N,/GPIO21*%
X162000000Y-63500000D03*
%TO.P,OLED1,4,SDA*%
%TO.N,/GPIO20*%
X159460000Y-63500000D03*
%TD*%
D12*
%TO.P,SW3,1,1*%
%TO.N,GND*%
X98000000Y-53000000D03*
X91500000Y-53000000D03*
%TO.P,SW3,2,2*%
%TO.N,Net-(R13-Pad2)*%
X98000000Y-48500000D03*
X91500000Y-48500000D03*
%TD*%
D19*
%TO.P,TEMP3,1,+VS*%
%TO.N,+3.3V*%
X170160000Y-73470000D03*
D20*
%TO.P,TEMP3,2,Vout*%
%TO.N,/GPIO26_ADC0*%
X170160000Y-72200000D03*
%TO.P,TEMP3,3,GND*%
%TO.N,GND*%
X170160000Y-70930000D03*
%TD*%
D13*
%TO.P,C16,1*%
%TO.N,VBUS*%
X72750000Y-52152651D03*
D14*
%TO.P,C16,2*%
%TO.N,GND*%
X72750000Y-48652651D03*
%TD*%
D19*
%TO.P,TEMP1,1,GND*%
%TO.N,GND*%
X158000000Y-71230000D03*
D20*
%TO.P,TEMP1,2,DQ*%
%TO.N,/GPIO5*%
X158000000Y-72500000D03*
%TO.P,TEMP1,3,VDD*%
%TO.N,+3.3V*%
X158000000Y-73770000D03*
%TD*%
D21*
%TO.N,GND*%
X86400000Y-66000000D03*
X105400000Y-66000000D03*
X104800000Y-63600000D03*
X112400000Y-63600000D03*
X130800000Y-55600000D03*
X138400000Y-55000000D03*
X108776265Y-50395633D03*
X73000000Y-71400000D03*
X101600000Y-64000000D03*
X162200000Y-74600000D03*
X72892892Y-64307108D03*
X148200000Y-59600000D03*
X152800000Y-70400000D03*
X106600000Y-58400000D03*
%TO.N,VBUS*%
X75400000Y-71800000D03*
%TO.N,+3V3*%
X132000000Y-66575000D03*
X89800000Y-56800000D03*
X130600000Y-63000000D03*
X136000000Y-65200000D03*
X99200000Y-55400000D03*
X110200000Y-55000000D03*
X117800000Y-51600000D03*
X130425000Y-68400000D03*
X135200000Y-71200000D03*
X131600000Y-70800000D03*
X82400000Y-67200000D03*
%TO.N,+1V1*%
X138800000Y-59400000D03*
X127000000Y-60800000D03*
X124600000Y-59600000D03*
X143800000Y-66000000D03*
X136200000Y-60200000D03*
X143600000Y-69200000D03*
%TO.N,/GPIO6*%
X116345261Y-64859697D03*
X140400000Y-57000000D03*
%TO.N,/cc1*%
X69000000Y-56600000D03*
X72000000Y-64200000D03*
%TO.N,Net-(LED1B-A2)*%
X133600000Y-66575000D03*
X111054369Y-69652370D03*
%TO.N,Net-(LED1A-A1)*%
X139200000Y-65975000D03*
X112600000Y-70600000D03*
X126200000Y-71000000D03*
X135500000Y-69600000D03*
%TO.N,Net-(Q1-B)*%
X94800000Y-59600000D03*
X91600000Y-66200000D03*
%TO.N,/QSPI_SS*%
X116600000Y-54800000D03*
X114400000Y-54600000D03*
%TO.N,Net-(U2-USB_DP)*%
X123412500Y-61200000D03*
X119000000Y-62200000D03*
%TO.N,Net-(U2-USB_DM)*%
X117400000Y-62000000D03*
X124000000Y-60600000D03*
%TO.N,+3.3V*%
X113600000Y-49400000D03*
X163365000Y-69025000D03*
X147600000Y-54200000D03*
%TO.N,/GPIO15*%
X120276513Y-67800001D03*
X114969208Y-66575000D03*
X111200000Y-65000000D03*
X99200000Y-59600000D03*
%TO.N,/GPIO17*%
X127400000Y-70800000D03*
X75800000Y-66400000D03*
%TO.N,/GPIO18*%
X75290907Y-65782888D03*
X127755559Y-68907029D03*
%TO.N,/GPIO16*%
X75200000Y-67000000D03*
X128000000Y-72600000D03*
%TO.N,/GPIO5*%
X135000000Y-68200000D03*
X153800000Y-69015000D03*
X120200000Y-66000000D03*
%TO.N,/GPIO4*%
X147600000Y-65800000D03*
X120200000Y-64500000D03*
X148889927Y-67689927D03*
X146400000Y-63600000D03*
%TO.N,/GPIO26_ADC0*%
X152175735Y-66375735D03*
X132200000Y-63200000D03*
X154600000Y-67800000D03*
%TO.N,/SWD*%
X102000000Y-61200000D03*
D22*
X124012500Y-68212500D03*
D21*
%TO.N,/GPIO3*%
X157400000Y-59800000D03*
X118200000Y-65375000D03*
%TO.N,/GPIO2*%
X140400000Y-59000000D03*
X156200000Y-55600000D03*
X117400000Y-65600000D03*
X144800000Y-59400000D03*
%TO.N,/SWCLK*%
X112400000Y-62000000D03*
X123256431Y-68275000D03*
%TO.N,/GPIO0*%
X118000000Y-54200000D03*
X115037675Y-63999999D03*
%TO.N,/RUN*%
X131800000Y-58400000D03*
X125112500Y-64500000D03*
%TO.N,/GPIO23*%
X139400000Y-63000000D03*
X101000000Y-53000000D03*
%TO.N,/GPIO1*%
X150200000Y-69000000D03*
X117000000Y-64400000D03*
X110200000Y-68200000D03*
X161400000Y-59800000D03*
X111400000Y-70400000D03*
%TO.N,/GPIO7*%
X115574749Y-64592920D03*
X125800000Y-54000000D03*
%TD*%
D23*
%TO.N,GND*%
X101600000Y-64000000D02*
X103600000Y-66000000D01*
X154048529Y-68415000D02*
X153551471Y-68415000D01*
X152800000Y-69166471D02*
X152800000Y-70400000D01*
X156863529Y-71230000D02*
X154048529Y-68415000D01*
X153551471Y-68415000D02*
X152800000Y-69166471D01*
X158000000Y-71230000D02*
X156863529Y-71230000D01*
X103600000Y-66000000D02*
X105400000Y-66000000D01*
X112400000Y-63600000D02*
X104800000Y-63600000D01*
%TO.N,VBUS*%
X74600000Y-65551471D02*
X74600000Y-71000000D01*
X76600000Y-58000000D02*
X76600000Y-63551471D01*
X74600000Y-71000000D02*
X75400000Y-71800000D01*
X75500000Y-56900000D02*
X76600000Y-58000000D01*
X76600000Y-63551471D02*
X74600000Y-65551471D01*
%TO.N,+3V3*%
X109800000Y-55400000D02*
X110200000Y-55000000D01*
X130600000Y-63400000D02*
X132000000Y-64800000D01*
X89800000Y-59800000D02*
X89800000Y-56800000D01*
X130600000Y-63000000D02*
X130600000Y-63400000D01*
X99200000Y-55400000D02*
X109800000Y-55400000D01*
X132000000Y-64800000D02*
X132375000Y-65175000D01*
X132000000Y-71200000D02*
X131600000Y-70800000D01*
X82400000Y-67200000D02*
X89800000Y-59800000D01*
X101551471Y-51600000D02*
X99200000Y-53951471D01*
X132000000Y-66825000D02*
X130425000Y-68400000D01*
X132375000Y-65175000D02*
X133800000Y-65175000D01*
X135200000Y-71200000D02*
X132000000Y-71200000D01*
X132000000Y-66575000D02*
X132000000Y-66825000D01*
X99200000Y-53951471D02*
X99200000Y-55400000D01*
X133800000Y-65175000D02*
X135975000Y-65175000D01*
X117800000Y-51600000D02*
X101551471Y-51600000D01*
X135975000Y-65175000D02*
X136000000Y-65200000D01*
%TO.N,+1V1*%
X125800000Y-59600000D02*
X127000000Y-60800000D01*
X143600000Y-69200000D02*
X143600000Y-66200000D01*
X138800000Y-59400000D02*
X138000000Y-60200000D01*
X124600000Y-59600000D02*
X125800000Y-59600000D01*
X143600000Y-66200000D02*
X143800000Y-66000000D01*
X138000000Y-60200000D02*
X136200000Y-60200000D01*
%TO.N,/GPIO6*%
X116345261Y-64859697D02*
X116345261Y-64806209D01*
X119400000Y-57000000D02*
X140400000Y-57000000D01*
X116400000Y-64751470D02*
X116400000Y-60000000D01*
X116400000Y-60000000D02*
X119400000Y-57000000D01*
X116345261Y-64806209D02*
X116400000Y-64751470D01*
%TO.N,/cc1*%
X69000000Y-56600000D02*
X72000000Y-59600000D01*
X72000000Y-59600000D02*
X72000000Y-64200000D01*
%TO.N,Net-(LED1B-A2)*%
X111054369Y-69652370D02*
X111106739Y-69600000D01*
X131175000Y-69000000D02*
X133600000Y-66575000D01*
X128511117Y-69000000D02*
X131175000Y-69000000D01*
X127911117Y-69600000D02*
X128511117Y-69000000D01*
X111106739Y-69600000D02*
X127911117Y-69600000D01*
%TO.N,Net-(LED1A-A1)*%
X139200000Y-66000000D02*
X139200000Y-65975000D01*
X113600000Y-71600000D02*
X118785785Y-71600000D01*
X112600000Y-70600000D02*
X113600000Y-71600000D01*
X118785785Y-71600000D02*
X119392559Y-70993226D01*
X119392559Y-70993226D02*
X126193226Y-70993226D01*
X126193226Y-70993226D02*
X126200000Y-71000000D01*
X135600000Y-69600000D02*
X139200000Y-66000000D01*
X135500000Y-69600000D02*
X135600000Y-69600000D01*
%TO.N,Net-(Q1-B)*%
X91600000Y-66200000D02*
X91600000Y-62800000D01*
X91600000Y-62800000D02*
X94800000Y-59600000D01*
%TO.N,/QSPI_SS*%
X114600000Y-54800000D02*
X114400000Y-54600000D01*
X116600000Y-54800000D02*
X114600000Y-54800000D01*
%TO.N,Net-(U2-USB_DP)*%
X121788235Y-62824265D02*
X123412500Y-61200000D01*
X119624265Y-62824265D02*
X121788235Y-62824265D01*
X119000000Y-62200000D02*
X119624265Y-62824265D01*
%TO.N,Net-(U2-USB_DM)*%
X117400000Y-62000000D02*
X118800000Y-60600000D01*
X118800000Y-60600000D02*
X124000000Y-60600000D01*
%TO.N,+3.3V*%
X158000000Y-73770000D02*
X158620000Y-73770000D01*
X115200000Y-51000000D02*
X144888478Y-51000000D01*
X147600000Y-53711522D02*
X147600000Y-54200000D01*
X144888478Y-51000000D02*
X147600000Y-53711522D01*
X113600000Y-49400000D02*
X115200000Y-51000000D01*
X158620000Y-73770000D02*
X163365000Y-69025000D01*
X169860000Y-73770000D02*
X158000000Y-73770000D01*
%TO.N,/GPIO15*%
X111200000Y-65000000D02*
X104600000Y-65000000D01*
X116594208Y-68200000D02*
X114969208Y-66575000D01*
X119876514Y-68200000D02*
X116594208Y-68200000D01*
X104600000Y-65000000D02*
X99200000Y-59600000D01*
X120276513Y-67800001D02*
X119876514Y-68200000D01*
%TO.N,/GPIO17*%
X127400000Y-70800000D02*
X126600000Y-71600000D01*
X118951471Y-72000000D02*
X81400000Y-72000000D01*
X81400000Y-72000000D02*
X75800000Y-66400000D01*
X126600000Y-71600000D02*
X120457857Y-71600000D01*
X119558245Y-71393226D02*
X118951471Y-72000000D01*
X120457857Y-71600000D02*
X120251083Y-71393226D01*
X120251083Y-71393226D02*
X119558245Y-71393226D01*
%TO.N,/GPIO18*%
X110751471Y-69000000D02*
X111248529Y-69000000D01*
X111248529Y-69000000D02*
X111448529Y-69200000D01*
X79600000Y-69200000D02*
X110551471Y-69200000D01*
X127462588Y-69200000D02*
X127755559Y-68907029D01*
X75290907Y-65782888D02*
X76182888Y-65782888D01*
X76182888Y-65782888D02*
X79600000Y-69200000D01*
X111448529Y-69200000D02*
X127462588Y-69200000D01*
X110551471Y-69200000D02*
X110751471Y-69000000D01*
%TO.N,/GPIO16*%
X127600000Y-73000000D02*
X81200000Y-73000000D01*
X81200000Y-73000000D02*
X75200000Y-67000000D01*
X128000000Y-72600000D02*
X127600000Y-73000000D01*
%TO.N,/GPIO5*%
X134575000Y-65975000D02*
X124536029Y-65975000D01*
X157285000Y-72500000D02*
X153800000Y-69015000D01*
X135000000Y-68200000D02*
X135000000Y-66400000D01*
X124136029Y-66375000D02*
X120575000Y-66375000D01*
X124536029Y-65975000D02*
X124136029Y-66375000D01*
X135000000Y-66400000D02*
X134575000Y-65975000D01*
X158000000Y-72500000D02*
X157285000Y-72500000D01*
X120575000Y-66375000D02*
X120200000Y-66000000D01*
%TO.N,/GPIO4*%
X133800000Y-57800000D02*
X134800000Y-58800000D01*
X120200000Y-64500000D02*
X121100000Y-63600000D01*
X147600000Y-66400000D02*
X147600000Y-65800000D01*
X125351471Y-63600000D02*
X131151471Y-57800000D01*
X137800000Y-63600000D02*
X146400000Y-63600000D01*
X134800000Y-58800000D02*
X134800000Y-60600000D01*
X134800000Y-60600000D02*
X137800000Y-63600000D01*
X121100000Y-63600000D02*
X125351471Y-63600000D01*
X131151471Y-57800000D02*
X133800000Y-57800000D01*
X148889927Y-67689927D02*
X147600000Y-66400000D01*
%TO.N,/GPIO26_ADC0*%
X158000000Y-59551471D02*
X158000000Y-60200000D01*
X152175735Y-66024265D02*
X152175735Y-66375735D01*
X158000000Y-60200000D02*
X152175735Y-66024265D01*
X151975736Y-64375735D02*
X157151471Y-59200000D01*
X157151471Y-59200000D02*
X157648529Y-59200000D01*
X133375735Y-64375735D02*
X151975736Y-64375735D01*
X169860000Y-72500000D02*
X169635000Y-72500000D01*
X132200000Y-63200000D02*
X133375735Y-64375735D01*
X157648529Y-59200000D02*
X158000000Y-59551471D01*
X169635000Y-72500000D02*
X165235000Y-68100000D01*
X165235000Y-68100000D02*
X154900000Y-68100000D01*
X154900000Y-68100000D02*
X154600000Y-67800000D01*
%TO.N,/SWD*%
X113600000Y-61800000D02*
X113000000Y-61200000D01*
X113600000Y-64357263D02*
X113600000Y-61800000D01*
X124012500Y-68182540D02*
X123479960Y-67650000D01*
X113000000Y-61200000D02*
X102000000Y-61200000D01*
X124012500Y-68212500D02*
X124012500Y-68182540D01*
X123479960Y-67650000D02*
X120975000Y-67650000D01*
X115569208Y-66326471D02*
X113600000Y-64357263D01*
X120525001Y-67200001D02*
X116400001Y-67200001D01*
X116400001Y-67200001D02*
X115569208Y-66369208D01*
X115569208Y-66369208D02*
X115569208Y-66326471D01*
X120975000Y-67650000D02*
X120525001Y-67200001D01*
%TO.N,/GPIO3*%
X138126471Y-66200000D02*
X139126471Y-65200000D01*
X118200000Y-65375000D02*
X118475000Y-65100000D01*
X152000000Y-65200000D02*
X157400000Y-59800000D01*
X124061029Y-65100000D02*
X124536029Y-65575000D01*
X139126471Y-65200000D02*
X152000000Y-65200000D01*
X124536029Y-65575000D02*
X134740685Y-65575000D01*
X134740685Y-65575000D02*
X135365685Y-66200000D01*
X135365685Y-66200000D02*
X138126471Y-66200000D01*
X118475000Y-65100000D02*
X124061029Y-65100000D01*
%TO.N,/GPIO2*%
X117600000Y-63048529D02*
X116800000Y-62248529D01*
X138800000Y-57400000D02*
X140400000Y-59000000D01*
X117600000Y-65400000D02*
X117600000Y-63048529D01*
X145400000Y-59400000D02*
X149200000Y-55600000D01*
X116800000Y-61751471D02*
X121151471Y-57400000D01*
X144800000Y-59400000D02*
X145400000Y-59400000D01*
X149200000Y-55600000D02*
X156200000Y-55600000D01*
X116800000Y-62248529D02*
X116800000Y-61751471D01*
X117400000Y-65600000D02*
X117600000Y-65400000D01*
X121151471Y-57400000D02*
X138800000Y-57400000D01*
%TO.N,/SWCLK*%
X113000000Y-65600000D02*
X113000000Y-62600000D01*
X113000000Y-62600000D02*
X112400000Y-62000000D01*
X123256431Y-68275000D02*
X122731431Y-68800000D01*
X122731431Y-68800000D02*
X116200000Y-68800000D01*
X116200000Y-68800000D02*
X113000000Y-65600000D01*
%TO.N,/GPIO0*%
X115000000Y-63962324D02*
X115000000Y-57248529D01*
X115037675Y-63999999D02*
X115000000Y-63962324D01*
X115000000Y-57248529D02*
X118000000Y-54248529D01*
X118000000Y-54248529D02*
X118000000Y-54200000D01*
%TO.N,/RUN*%
X131800000Y-58400000D02*
X131800000Y-58800000D01*
X126100000Y-64500000D02*
X125112500Y-64500000D01*
X131800000Y-58800000D02*
X126100000Y-64500000D01*
%TO.N,/GPIO23*%
X141000000Y-61400000D02*
X141000000Y-56751471D01*
X125648529Y-53000000D02*
X101000000Y-53000000D01*
X141000000Y-56751471D02*
X140648529Y-56400000D01*
X140648529Y-56400000D02*
X129048529Y-56400000D01*
X129048529Y-56400000D02*
X125648529Y-53000000D01*
X139400000Y-63000000D02*
X141000000Y-61400000D01*
%TO.N,/GPIO1*%
X114000000Y-60000000D02*
X113000000Y-59000000D01*
X104151471Y-65400000D02*
X107400000Y-65400000D01*
X98600000Y-59848529D02*
X104151471Y-65400000D01*
X161400000Y-59800000D02*
X159600000Y-59800000D01*
X113000000Y-59000000D02*
X98951471Y-59000000D01*
X116593790Y-65459697D02*
X115411168Y-65459697D01*
X149000000Y-70200000D02*
X128848529Y-70200000D01*
X128648529Y-70000000D02*
X111800000Y-70000000D01*
X114000000Y-64048529D02*
X114000000Y-60000000D01*
X107400000Y-65400000D02*
X110200000Y-68200000D01*
X128848529Y-70200000D02*
X128648529Y-70000000D01*
X150400000Y-69000000D02*
X150200000Y-69000000D01*
X115411168Y-65459697D02*
X114000000Y-64048529D01*
X117000000Y-65053487D02*
X116593790Y-65459697D01*
X159600000Y-59800000D02*
X150400000Y-69000000D01*
X150200000Y-69000000D02*
X149000000Y-70200000D01*
X98600000Y-59351471D02*
X98600000Y-59848529D01*
X111800000Y-70000000D02*
X111400000Y-70400000D01*
X98951471Y-59000000D02*
X98600000Y-59351471D01*
X117000000Y-64400000D02*
X117000000Y-65053487D01*
%TO.N,/GPIO7*%
X121000000Y-54000000D02*
X125800000Y-54000000D01*
X115800000Y-59200000D02*
X121000000Y-54000000D01*
X115574749Y-64592920D02*
X115800000Y-64367669D01*
X115800000Y-64367669D02*
X115800000Y-59200000D01*
%TD*%
%TA.AperFunction,Conductor*%
%TO.N,GND*%
G36*
X172943039Y-46520185D02*
G01*
X172988794Y-46572989D01*
X173000000Y-46624500D01*
X173000000Y-65876000D01*
X172980315Y-65943039D01*
X172927511Y-65988794D01*
X172876000Y-66000000D01*
X154500000Y-66000000D01*
X154500000Y-67108590D01*
X154480315Y-67175629D01*
X154427511Y-67221384D01*
X154423453Y-67223151D01*
X154297160Y-67275463D01*
X154171718Y-67371718D01*
X154075463Y-67497160D01*
X154014956Y-67643237D01*
X154014955Y-67643239D01*
X153994318Y-67799998D01*
X153994318Y-67800001D01*
X154014955Y-67956760D01*
X154014956Y-67956762D01*
X154050775Y-68043238D01*
X154075464Y-68102841D01*
X154171718Y-68228282D01*
X154297159Y-68324536D01*
X154423452Y-68376848D01*
X154477856Y-68420689D01*
X154499921Y-68486983D01*
X154500000Y-68491409D01*
X154500000Y-68575535D01*
X154480315Y-68642574D01*
X154427511Y-68688329D01*
X154358353Y-68698273D01*
X154294797Y-68669248D01*
X154277625Y-68651022D01*
X154228284Y-68586720D01*
X154228282Y-68586719D01*
X154228282Y-68586718D01*
X154102841Y-68490464D01*
X154102015Y-68490122D01*
X153956762Y-68429956D01*
X153956760Y-68429955D01*
X153800001Y-68409318D01*
X153799999Y-68409318D01*
X153643239Y-68429955D01*
X153643237Y-68429956D01*
X153497160Y-68490463D01*
X153371718Y-68586718D01*
X153275463Y-68712160D01*
X153214956Y-68858237D01*
X153214955Y-68858239D01*
X153194318Y-69014998D01*
X153194318Y-69015001D01*
X153214955Y-69171760D01*
X153214956Y-69171762D01*
X153266897Y-69297160D01*
X153275464Y-69317841D01*
X153371718Y-69443282D01*
X153497159Y-69539536D01*
X153643238Y-69600044D01*
X153800000Y-69620682D01*
X153800001Y-69620681D01*
X153803513Y-69621144D01*
X153867410Y-69649410D01*
X153875009Y-69656402D01*
X154463681Y-70245074D01*
X154497166Y-70306397D01*
X154500000Y-70332755D01*
X154500000Y-73376000D01*
X154480315Y-73443039D01*
X154427511Y-73488794D01*
X154376000Y-73500000D01*
X127965756Y-73500000D01*
X127898717Y-73480315D01*
X127852962Y-73427511D01*
X127843018Y-73358353D01*
X127872043Y-73294797D01*
X127878073Y-73288321D01*
X127924988Y-73241404D01*
X127986310Y-73207917D01*
X127996486Y-73206144D01*
X127999997Y-73205681D01*
X128000000Y-73205682D01*
X128156762Y-73185044D01*
X128302841Y-73124536D01*
X128428282Y-73028282D01*
X128524536Y-72902841D01*
X128585044Y-72756762D01*
X128605682Y-72600000D01*
X128585044Y-72443238D01*
X128524536Y-72297159D01*
X128428282Y-72171718D01*
X128302841Y-72075464D01*
X128156762Y-72014956D01*
X128156760Y-72014955D01*
X128000001Y-71994318D01*
X127999999Y-71994318D01*
X127843239Y-72014955D01*
X127843237Y-72014956D01*
X127697160Y-72075463D01*
X127571718Y-72171718D01*
X127475463Y-72297160D01*
X127414956Y-72443237D01*
X127414955Y-72443239D01*
X127408578Y-72491685D01*
X127380312Y-72555582D01*
X127321987Y-72594053D01*
X127285639Y-72599500D01*
X119176883Y-72599500D01*
X119109844Y-72579815D01*
X119064089Y-72527011D01*
X119054145Y-72457853D01*
X119083170Y-72394297D01*
X119114882Y-72368113D01*
X119115321Y-72367859D01*
X119197384Y-72320480D01*
X119687819Y-71830045D01*
X119749142Y-71796560D01*
X119775500Y-71793726D01*
X120033828Y-71793726D01*
X120100867Y-71813411D01*
X120121512Y-71830048D01*
X120137371Y-71845908D01*
X120137375Y-71845911D01*
X120137377Y-71845913D01*
X120211944Y-71920480D01*
X120279028Y-71959211D01*
X120303270Y-71973207D01*
X120405130Y-72000501D01*
X120405132Y-72000501D01*
X120518180Y-72000501D01*
X120518196Y-72000500D01*
X126652725Y-72000500D01*
X126652727Y-72000500D01*
X126754588Y-71973207D01*
X126845913Y-71920480D01*
X127324991Y-71441400D01*
X127386312Y-71407917D01*
X127396485Y-71406144D01*
X127399997Y-71405681D01*
X127400000Y-71405682D01*
X127556762Y-71385044D01*
X127702841Y-71324536D01*
X127828282Y-71228282D01*
X127924536Y-71102841D01*
X127985044Y-70956762D01*
X128005682Y-70800000D01*
X128003410Y-70782745D01*
X127985044Y-70643239D01*
X127985042Y-70643234D01*
X127955517Y-70571952D01*
X127948048Y-70502483D01*
X127979324Y-70440004D01*
X128039413Y-70404352D01*
X128070078Y-70400500D01*
X128431275Y-70400500D01*
X128498314Y-70420185D01*
X128518956Y-70436819D01*
X128520978Y-70438841D01*
X128520981Y-70438845D01*
X128528049Y-70445913D01*
X128602616Y-70520480D01*
X128602617Y-70520481D01*
X128602619Y-70520482D01*
X128691363Y-70571718D01*
X128691368Y-70571721D01*
X128693940Y-70573206D01*
X128693941Y-70573206D01*
X128693942Y-70573207D01*
X128795802Y-70600501D01*
X128795804Y-70600501D01*
X128908852Y-70600501D01*
X128908868Y-70600500D01*
X130879188Y-70600500D01*
X130946227Y-70620185D01*
X130991982Y-70672989D01*
X131002126Y-70740685D01*
X130996590Y-70782745D01*
X130994318Y-70800000D01*
X130994318Y-70800001D01*
X131014955Y-70956760D01*
X131014956Y-70956762D01*
X131050775Y-71043238D01*
X131075464Y-71102841D01*
X131171718Y-71228282D01*
X131297159Y-71324536D01*
X131443238Y-71385044D01*
X131600000Y-71405682D01*
X131600001Y-71405681D01*
X131603513Y-71406144D01*
X131667410Y-71434410D01*
X131675009Y-71441402D01*
X131679519Y-71445912D01*
X131679520Y-71445913D01*
X131754087Y-71520480D01*
X131845413Y-71573207D01*
X131947273Y-71600500D01*
X134693420Y-71600500D01*
X134760459Y-71620185D01*
X134768907Y-71626124D01*
X134771716Y-71628279D01*
X134771718Y-71628282D01*
X134897159Y-71724536D01*
X135043238Y-71785044D01*
X135109185Y-71793726D01*
X135199999Y-71805682D01*
X135200000Y-71805682D01*
X135200001Y-71805682D01*
X135269289Y-71796560D01*
X135356762Y-71785044D01*
X135502841Y-71724536D01*
X135628282Y-71628282D01*
X135724536Y-71502841D01*
X135785044Y-71356762D01*
X135805682Y-71200000D01*
X135799703Y-71154588D01*
X135785044Y-71043239D01*
X135785044Y-71043238D01*
X135724536Y-70897159D01*
X135724535Y-70897158D01*
X135724535Y-70897157D01*
X135649973Y-70799986D01*
X135624779Y-70734817D01*
X135638817Y-70666372D01*
X135687631Y-70616383D01*
X135748349Y-70600500D01*
X149052725Y-70600500D01*
X149052727Y-70600500D01*
X149154588Y-70573207D01*
X149245913Y-70520480D01*
X150124991Y-69641400D01*
X150186312Y-69607917D01*
X150196485Y-69606144D01*
X150199997Y-69605681D01*
X150200000Y-69605682D01*
X150356762Y-69585044D01*
X150502841Y-69524536D01*
X150628282Y-69428282D01*
X150724536Y-69302841D01*
X150758220Y-69221517D01*
X150785096Y-69181295D01*
X156753003Y-63213389D01*
X158359500Y-63213389D01*
X158359500Y-63786611D01*
X158363989Y-63814956D01*
X158385934Y-63953512D01*
X158386598Y-63957701D01*
X158440127Y-64122445D01*
X158518768Y-64276788D01*
X158620586Y-64416928D01*
X158743072Y-64539414D01*
X158883212Y-64641232D01*
X159037555Y-64719873D01*
X159202299Y-64773402D01*
X159373389Y-64800500D01*
X159373390Y-64800500D01*
X159546610Y-64800500D01*
X159546611Y-64800500D01*
X159717701Y-64773402D01*
X159882445Y-64719873D01*
X160036788Y-64641232D01*
X160176928Y-64539414D01*
X160299414Y-64416928D01*
X160401232Y-64276788D01*
X160479873Y-64122445D01*
X160533402Y-63957701D01*
X160560500Y-63786611D01*
X160560500Y-63213389D01*
X160899500Y-63213389D01*
X160899500Y-63786611D01*
X160903989Y-63814956D01*
X160925934Y-63953512D01*
X160926598Y-63957701D01*
X160980127Y-64122445D01*
X161058768Y-64276788D01*
X161160586Y-64416928D01*
X161283072Y-64539414D01*
X161423212Y-64641232D01*
X161577555Y-64719873D01*
X161742299Y-64773402D01*
X161913389Y-64800500D01*
X161913390Y-64800500D01*
X162086610Y-64800500D01*
X162086611Y-64800500D01*
X162257701Y-64773402D01*
X162422445Y-64719873D01*
X162576788Y-64641232D01*
X162716928Y-64539414D01*
X162839414Y-64416928D01*
X162941232Y-64276788D01*
X163019873Y-64122445D01*
X163073402Y-63957701D01*
X163100500Y-63786611D01*
X163100500Y-63213389D01*
X163439500Y-63213389D01*
X163439500Y-63786611D01*
X163443989Y-63814956D01*
X163465934Y-63953512D01*
X163466598Y-63957701D01*
X163520127Y-64122445D01*
X163598768Y-64276788D01*
X163700586Y-64416928D01*
X163823072Y-64539414D01*
X163963212Y-64641232D01*
X164117555Y-64719873D01*
X164282299Y-64773402D01*
X164453389Y-64800500D01*
X164453390Y-64800500D01*
X164626610Y-64800500D01*
X164626611Y-64800500D01*
X164797701Y-64773402D01*
X164962445Y-64719873D01*
X165116788Y-64641232D01*
X165256928Y-64539414D01*
X165379414Y-64416928D01*
X165481232Y-64276788D01*
X165559873Y-64122445D01*
X165587186Y-64038384D01*
X165626622Y-63980711D01*
X165690981Y-63953512D01*
X165759827Y-63965427D01*
X165811303Y-64012671D01*
X165823047Y-64038385D01*
X165875244Y-64199031D01*
X165968140Y-64381349D01*
X166088417Y-64546894D01*
X166088417Y-64546895D01*
X166233104Y-64691582D01*
X166398650Y-64811859D01*
X166580968Y-64904754D01*
X166775578Y-64967988D01*
X166830000Y-64976607D01*
X166830000Y-63933012D01*
X166887007Y-63965925D01*
X167014174Y-64000000D01*
X167145826Y-64000000D01*
X167272993Y-63965925D01*
X167330000Y-63933012D01*
X167330000Y-64976606D01*
X167384421Y-64967988D01*
X167579031Y-64904754D01*
X167761349Y-64811859D01*
X167926894Y-64691582D01*
X167926895Y-64691582D01*
X168071582Y-64546895D01*
X168071582Y-64546894D01*
X168191859Y-64381349D01*
X168284755Y-64199031D01*
X168347990Y-64004417D01*
X168380000Y-63802317D01*
X168380000Y-63750000D01*
X167513012Y-63750000D01*
X167545925Y-63692993D01*
X167580000Y-63565826D01*
X167580000Y-63434174D01*
X167545925Y-63307007D01*
X167513012Y-63250000D01*
X168380000Y-63250000D01*
X168380000Y-63197682D01*
X168347990Y-62995582D01*
X168284755Y-62800968D01*
X168191859Y-62618650D01*
X168071582Y-62453105D01*
X168071582Y-62453104D01*
X167926895Y-62308417D01*
X167761349Y-62188140D01*
X167579029Y-62095244D01*
X167384413Y-62032009D01*
X167330000Y-62023390D01*
X167330000Y-63066988D01*
X167272993Y-63034075D01*
X167145826Y-63000000D01*
X167014174Y-63000000D01*
X166887007Y-63034075D01*
X166830000Y-63066988D01*
X166830000Y-62023390D01*
X166775586Y-62032009D01*
X166580970Y-62095244D01*
X166398650Y-62188140D01*
X166233105Y-62308417D01*
X166233104Y-62308417D01*
X166088417Y-62453104D01*
X166088417Y-62453105D01*
X165968140Y-62618650D01*
X165875244Y-62800968D01*
X165823047Y-62961614D01*
X165783609Y-63019289D01*
X165719250Y-63046487D01*
X165650404Y-63034572D01*
X165598928Y-62987328D01*
X165587186Y-62961615D01*
X165559873Y-62877555D01*
X165481232Y-62723212D01*
X165379414Y-62583072D01*
X165256928Y-62460586D01*
X165116788Y-62358768D01*
X164962445Y-62280127D01*
X164797701Y-62226598D01*
X164797699Y-62226597D01*
X164797698Y-62226597D01*
X164651948Y-62203513D01*
X164626611Y-62199500D01*
X164453389Y-62199500D01*
X164428052Y-62203513D01*
X164282302Y-62226597D01*
X164257308Y-62234718D01*
X164133307Y-62275009D01*
X164117552Y-62280128D01*
X163963211Y-62358768D01*
X163885877Y-62414955D01*
X163823072Y-62460586D01*
X163823070Y-62460588D01*
X163823069Y-62460588D01*
X163700588Y-62583069D01*
X163700588Y-62583070D01*
X163700586Y-62583072D01*
X163687480Y-62601111D01*
X163598768Y-62723211D01*
X163520128Y-62877552D01*
X163466597Y-63042302D01*
X163444695Y-63180589D01*
X163439500Y-63213389D01*
X163100500Y-63213389D01*
X163073402Y-63042299D01*
X163019873Y-62877555D01*
X162941232Y-62723212D01*
X162839414Y-62583072D01*
X162716928Y-62460586D01*
X162576788Y-62358768D01*
X162422445Y-62280127D01*
X162257701Y-62226598D01*
X162257699Y-62226597D01*
X162257698Y-62226597D01*
X162111948Y-62203513D01*
X162086611Y-62199500D01*
X161913389Y-62199500D01*
X161888052Y-62203513D01*
X161742302Y-62226597D01*
X161717308Y-62234718D01*
X161593307Y-62275009D01*
X161577552Y-62280128D01*
X161423211Y-62358768D01*
X161345877Y-62414955D01*
X161283072Y-62460586D01*
X161283070Y-62460588D01*
X161283069Y-62460588D01*
X161160588Y-62583069D01*
X161160588Y-62583070D01*
X161160586Y-62583072D01*
X161147480Y-62601111D01*
X161058768Y-62723211D01*
X160980128Y-62877552D01*
X160926597Y-63042302D01*
X160904695Y-63180589D01*
X160899500Y-63213389D01*
X160560500Y-63213389D01*
X160533402Y-63042299D01*
X160479873Y-62877555D01*
X160401232Y-62723212D01*
X160299414Y-62583072D01*
X160176928Y-62460586D01*
X160036788Y-62358768D01*
X159882445Y-62280127D01*
X159717701Y-62226598D01*
X159717699Y-62226597D01*
X159717698Y-62226597D01*
X159571948Y-62203513D01*
X159546611Y-62199500D01*
X159373389Y-62199500D01*
X159348052Y-62203513D01*
X159202302Y-62226597D01*
X159177308Y-62234718D01*
X159053307Y-62275009D01*
X159037552Y-62280128D01*
X158883211Y-62358768D01*
X158805877Y-62414955D01*
X158743072Y-62460586D01*
X158743070Y-62460588D01*
X158743069Y-62460588D01*
X158620588Y-62583069D01*
X158620588Y-62583070D01*
X158620586Y-62583072D01*
X158607480Y-62601111D01*
X158518768Y-62723211D01*
X158440128Y-62877552D01*
X158386597Y-63042302D01*
X158364695Y-63180589D01*
X158359500Y-63213389D01*
X156753003Y-63213389D01*
X159729573Y-60236819D01*
X159790896Y-60203334D01*
X159817254Y-60200500D01*
X160893420Y-60200500D01*
X160960459Y-60220185D01*
X160968907Y-60226124D01*
X160971716Y-60228279D01*
X160971718Y-60228282D01*
X161097159Y-60324536D01*
X161243238Y-60385044D01*
X161321619Y-60395363D01*
X161399999Y-60405682D01*
X161400000Y-60405682D01*
X161400001Y-60405682D01*
X161452254Y-60398802D01*
X161556762Y-60385044D01*
X161702841Y-60324536D01*
X161828282Y-60228282D01*
X161924536Y-60102841D01*
X161985044Y-59956762D01*
X162002243Y-59826124D01*
X162005682Y-59800001D01*
X162005682Y-59799998D01*
X161985044Y-59643239D01*
X161985044Y-59643238D01*
X161924536Y-59497159D01*
X161828282Y-59371718D01*
X161702841Y-59275464D01*
X161702836Y-59275462D01*
X161556762Y-59214956D01*
X161556760Y-59214955D01*
X161400001Y-59194318D01*
X161399999Y-59194318D01*
X161243239Y-59214955D01*
X161243237Y-59214956D01*
X161097160Y-59275463D01*
X161091873Y-59279520D01*
X160971718Y-59371718D01*
X160971716Y-59371720D01*
X160968907Y-59373876D01*
X160903737Y-59399070D01*
X160893420Y-59399500D01*
X159547273Y-59399500D01*
X159445410Y-59426793D01*
X159416929Y-59443238D01*
X159354087Y-59479520D01*
X159354084Y-59479522D01*
X158612181Y-60221426D01*
X158550858Y-60254911D01*
X158481166Y-60249927D01*
X158425233Y-60208055D01*
X158400816Y-60142591D01*
X158400500Y-60133745D01*
X158400500Y-59498746D01*
X158400499Y-59498741D01*
X158400075Y-59497160D01*
X158397846Y-59488842D01*
X158394224Y-59475321D01*
X158394224Y-59475322D01*
X158373207Y-59396883D01*
X158320480Y-59305558D01*
X157894442Y-58879520D01*
X157842618Y-58849599D01*
X157803118Y-58826793D01*
X157733184Y-58808055D01*
X157701256Y-58799500D01*
X157701255Y-58799500D01*
X157211810Y-58799500D01*
X157211794Y-58799499D01*
X157204198Y-58799499D01*
X157098744Y-58799499D01*
X157041063Y-58814955D01*
X156996883Y-58826793D01*
X156948182Y-58854911D01*
X156912584Y-58875464D01*
X156905555Y-58879522D01*
X151846162Y-63938916D01*
X151784839Y-63972401D01*
X151758481Y-63975235D01*
X147080129Y-63975235D01*
X147013090Y-63955550D01*
X146967335Y-63902746D01*
X146957391Y-63833588D01*
X146965567Y-63803783D01*
X146966174Y-63802317D01*
X146985044Y-63756762D01*
X147005129Y-63604198D01*
X147005682Y-63600001D01*
X147005682Y-63599998D01*
X146985044Y-63443239D01*
X146985044Y-63443238D01*
X146924536Y-63297159D01*
X146828282Y-63171718D01*
X146702841Y-63075464D01*
X146663856Y-63059316D01*
X146556762Y-63014956D01*
X146556760Y-63014955D01*
X146400001Y-62994318D01*
X146399999Y-62994318D01*
X146243239Y-63014955D01*
X146243237Y-63014956D01*
X146097160Y-63075463D01*
X146097159Y-63075464D01*
X145971718Y-63171718D01*
X145971716Y-63171720D01*
X145968907Y-63173876D01*
X145903737Y-63199070D01*
X145893420Y-63199500D01*
X140120812Y-63199500D01*
X140053773Y-63179815D01*
X140008018Y-63127011D01*
X139997873Y-63059316D01*
X139999562Y-63046487D01*
X140005682Y-63000000D01*
X140005681Y-62999997D01*
X140006144Y-62996486D01*
X140034409Y-62932589D01*
X140041390Y-62925001D01*
X141235703Y-61730687D01*
X141235708Y-61730684D01*
X141245911Y-61720480D01*
X141245913Y-61720480D01*
X141320480Y-61645913D01*
X141373207Y-61554587D01*
X141379760Y-61530132D01*
X141382347Y-61520479D01*
X141395850Y-61470085D01*
X141400501Y-61452727D01*
X141400501Y-61347273D01*
X141400501Y-61339678D01*
X141400500Y-61339660D01*
X141400500Y-59399998D01*
X144194318Y-59399998D01*
X144194318Y-59400001D01*
X144214955Y-59556760D01*
X144214956Y-59556762D01*
X144263935Y-59675009D01*
X144275464Y-59702841D01*
X144371718Y-59828282D01*
X144497159Y-59924536D01*
X144643238Y-59985044D01*
X144713522Y-59994297D01*
X144799999Y-60005682D01*
X144800000Y-60005682D01*
X144800001Y-60005682D01*
X144854796Y-59998468D01*
X144956762Y-59985044D01*
X145102841Y-59924536D01*
X145228282Y-59828282D01*
X145228283Y-59828279D01*
X145231093Y-59826124D01*
X145296263Y-59800930D01*
X145306580Y-59800500D01*
X145452725Y-59800500D01*
X145452727Y-59800500D01*
X145554588Y-59773207D01*
X145645913Y-59720480D01*
X149329573Y-56036818D01*
X149390896Y-56003334D01*
X149417254Y-56000500D01*
X155693420Y-56000500D01*
X155760459Y-56020185D01*
X155768907Y-56026124D01*
X155771716Y-56028279D01*
X155771718Y-56028282D01*
X155897159Y-56124536D01*
X156043238Y-56185044D01*
X156113681Y-56194318D01*
X156199999Y-56205682D01*
X156200000Y-56205682D01*
X156200001Y-56205682D01*
X156252254Y-56198802D01*
X156356762Y-56185044D01*
X156502841Y-56124536D01*
X156628282Y-56028282D01*
X156724536Y-55902841D01*
X156785044Y-55756762D01*
X156805682Y-55600000D01*
X156799989Y-55556760D01*
X156785044Y-55443239D01*
X156785044Y-55443238D01*
X156724536Y-55297159D01*
X156628282Y-55171718D01*
X156502841Y-55075464D01*
X156373731Y-55021985D01*
X156356762Y-55014956D01*
X156356760Y-55014955D01*
X156200001Y-54994318D01*
X156199999Y-54994318D01*
X156043239Y-55014955D01*
X156043237Y-55014956D01*
X155897160Y-55075463D01*
X155897159Y-55075464D01*
X155771718Y-55171718D01*
X155771716Y-55171720D01*
X155768907Y-55173876D01*
X155703737Y-55199070D01*
X155693420Y-55199500D01*
X149260339Y-55199500D01*
X149260323Y-55199499D01*
X149252727Y-55199499D01*
X149147273Y-55199499D01*
X149079366Y-55217695D01*
X149045412Y-55226793D01*
X148954084Y-55279522D01*
X148879518Y-55354089D01*
X145324191Y-58909414D01*
X145262868Y-58942899D01*
X145193176Y-58937915D01*
X145161024Y-58920109D01*
X145102842Y-58875464D01*
X144956762Y-58814956D01*
X144956760Y-58814955D01*
X144800001Y-58794318D01*
X144799999Y-58794318D01*
X144643239Y-58814955D01*
X144643237Y-58814956D01*
X144497160Y-58875463D01*
X144371718Y-58971718D01*
X144275463Y-59097160D01*
X144214956Y-59243237D01*
X144214955Y-59243239D01*
X144194318Y-59399998D01*
X141400500Y-59399998D01*
X141400500Y-56698746D01*
X141400499Y-56698742D01*
X141395349Y-56679520D01*
X141394140Y-56675009D01*
X141373207Y-56596883D01*
X141320480Y-56505558D01*
X140894442Y-56079520D01*
X140848779Y-56053156D01*
X140803118Y-56026793D01*
X140752186Y-56013146D01*
X140701256Y-55999500D01*
X140701255Y-55999500D01*
X129265784Y-55999500D01*
X129198745Y-55979815D01*
X129178103Y-55963181D01*
X127741351Y-54526429D01*
X127707866Y-54465106D01*
X127712850Y-54395414D01*
X127754722Y-54339481D01*
X127820186Y-54315064D01*
X127861123Y-54318972D01*
X127923308Y-54335635D01*
X128085230Y-54349801D01*
X128149998Y-54355468D01*
X128150000Y-54355468D01*
X128150002Y-54355468D01*
X128206673Y-54350509D01*
X128376692Y-54335635D01*
X128596496Y-54276739D01*
X128802734Y-54180568D01*
X128989139Y-54050047D01*
X129150047Y-53889139D01*
X129280568Y-53702734D01*
X129376739Y-53496496D01*
X129435635Y-53276692D01*
X129455468Y-53050000D01*
X129455468Y-53049998D01*
X133344532Y-53049998D01*
X133344532Y-53050001D01*
X133364364Y-53276686D01*
X133364366Y-53276697D01*
X133423258Y-53496488D01*
X133423261Y-53496497D01*
X133519431Y-53702732D01*
X133519432Y-53702734D01*
X133649954Y-53889141D01*
X133810858Y-54050045D01*
X133810861Y-54050047D01*
X133997266Y-54180568D01*
X134203504Y-54276739D01*
X134203509Y-54276740D01*
X134203511Y-54276741D01*
X134236697Y-54285633D01*
X134423308Y-54335635D01*
X134585230Y-54349801D01*
X134649998Y-54355468D01*
X134650000Y-54355468D01*
X134650002Y-54355468D01*
X134706673Y-54350509D01*
X134876692Y-54335635D01*
X135096496Y-54276739D01*
X135302734Y-54180568D01*
X135489139Y-54050047D01*
X135650047Y-53889139D01*
X135780568Y-53702734D01*
X135876739Y-53496496D01*
X135935635Y-53276692D01*
X135955468Y-53050000D01*
X135953074Y-53022642D01*
X135951093Y-52999998D01*
X137244532Y-52999998D01*
X137244532Y-53000001D01*
X137264364Y-53226686D01*
X137264366Y-53226697D01*
X137323258Y-53446488D01*
X137323261Y-53446497D01*
X137419431Y-53652732D01*
X137419432Y-53652734D01*
X137549954Y-53839141D01*
X137710858Y-54000045D01*
X137710861Y-54000047D01*
X137897266Y-54130568D01*
X138103504Y-54226739D01*
X138323308Y-54285635D01*
X138485230Y-54299801D01*
X138549998Y-54305468D01*
X138550000Y-54305468D01*
X138550002Y-54305468D01*
X138606673Y-54300509D01*
X138776692Y-54285635D01*
X138996496Y-54226739D01*
X139202734Y-54130568D01*
X139389139Y-54000047D01*
X139550047Y-53839139D01*
X139680568Y-53652734D01*
X139776739Y-53446496D01*
X139835635Y-53226692D01*
X139855468Y-53000000D01*
X139855467Y-52999994D01*
X139845376Y-52884653D01*
X139835635Y-52773308D01*
X139776739Y-52553504D01*
X139680568Y-52347266D01*
X139550047Y-52160861D01*
X139550045Y-52160858D01*
X139389141Y-51999954D01*
X139202734Y-51869432D01*
X139202732Y-51869431D01*
X138996497Y-51773261D01*
X138996488Y-51773258D01*
X138776697Y-51714366D01*
X138776693Y-51714365D01*
X138776692Y-51714365D01*
X138776691Y-51714364D01*
X138776686Y-51714364D01*
X138550002Y-51694532D01*
X138549998Y-51694532D01*
X138323313Y-51714364D01*
X138323302Y-51714366D01*
X138103511Y-51773258D01*
X138103502Y-51773261D01*
X137897267Y-51869431D01*
X137897265Y-51869432D01*
X137710858Y-51999954D01*
X137549954Y-52160858D01*
X137419432Y-52347265D01*
X137419431Y-52347267D01*
X137323261Y-52553502D01*
X137323258Y-52553511D01*
X137264366Y-52773302D01*
X137264364Y-52773313D01*
X137244532Y-52999998D01*
X135951093Y-52999998D01*
X135947184Y-52955315D01*
X135935635Y-52823308D01*
X135876739Y-52603504D01*
X135780568Y-52397266D01*
X135650047Y-52210861D01*
X135650045Y-52210858D01*
X135489141Y-52049954D01*
X135302734Y-51919432D01*
X135302732Y-51919431D01*
X135096497Y-51823261D01*
X135096488Y-51823258D01*
X134876697Y-51764366D01*
X134876693Y-51764365D01*
X134876692Y-51764365D01*
X134876691Y-51764364D01*
X134876686Y-51764364D01*
X134650002Y-51744532D01*
X134649998Y-51744532D01*
X134423313Y-51764364D01*
X134423302Y-51764366D01*
X134203511Y-51823258D01*
X134203502Y-51823261D01*
X133997267Y-51919431D01*
X133997265Y-51919432D01*
X133810858Y-52049954D01*
X133649954Y-52210858D01*
X133519432Y-52397265D01*
X133519431Y-52397267D01*
X133423261Y-52603502D01*
X133423258Y-52603511D01*
X133364366Y-52823302D01*
X133364364Y-52823313D01*
X133344532Y-53049998D01*
X129455468Y-53049998D01*
X129453074Y-53022642D01*
X129447184Y-52955315D01*
X129435635Y-52823308D01*
X129376739Y-52603504D01*
X129280568Y-52397266D01*
X129150047Y-52210861D01*
X129150045Y-52210858D01*
X128989141Y-52049954D01*
X128802734Y-51919432D01*
X128802732Y-51919431D01*
X128596497Y-51823261D01*
X128596488Y-51823258D01*
X128376697Y-51764366D01*
X128376693Y-51764365D01*
X128376692Y-51764365D01*
X128376691Y-51764364D01*
X128376686Y-51764364D01*
X128150002Y-51744532D01*
X128149998Y-51744532D01*
X127923313Y-51764364D01*
X127923302Y-51764366D01*
X127703511Y-51823258D01*
X127703502Y-51823261D01*
X127497267Y-51919431D01*
X127497265Y-51919432D01*
X127310858Y-52049954D01*
X127149954Y-52210858D01*
X127019432Y-52397265D01*
X127019431Y-52397267D01*
X126923261Y-52603502D01*
X126923258Y-52603511D01*
X126864366Y-52823302D01*
X126864364Y-52823313D01*
X126844532Y-53049998D01*
X126844532Y-53050001D01*
X126864364Y-53276686D01*
X126864367Y-53276700D01*
X126881026Y-53338875D01*
X126879363Y-53408725D01*
X126840200Y-53466587D01*
X126775971Y-53494090D01*
X126707069Y-53482503D01*
X126673570Y-53458648D01*
X125894444Y-52679522D01*
X125894442Y-52679520D01*
X125837157Y-52646446D01*
X125803118Y-52626793D01*
X125752186Y-52613146D01*
X125701256Y-52599500D01*
X125701255Y-52599500D01*
X101506580Y-52599500D01*
X101439541Y-52579815D01*
X101431093Y-52573876D01*
X101428283Y-52571720D01*
X101428282Y-52571718D01*
X101380814Y-52535295D01*
X101339614Y-52478869D01*
X101335459Y-52409123D01*
X101368619Y-52349244D01*
X101681047Y-52036816D01*
X101742368Y-52003334D01*
X101768726Y-52000500D01*
X117293420Y-52000500D01*
X117360459Y-52020185D01*
X117368907Y-52026124D01*
X117371716Y-52028279D01*
X117371718Y-52028282D01*
X117497159Y-52124536D01*
X117643238Y-52185044D01*
X117721619Y-52195363D01*
X117799999Y-52205682D01*
X117800000Y-52205682D01*
X117800001Y-52205682D01*
X117852254Y-52198802D01*
X117956762Y-52185044D01*
X118102841Y-52124536D01*
X118228282Y-52028282D01*
X118324536Y-51902841D01*
X118385044Y-51756762D01*
X118405682Y-51600000D01*
X118397873Y-51540685D01*
X118408638Y-51471650D01*
X118455018Y-51419394D01*
X118520812Y-51400500D01*
X144671223Y-51400500D01*
X144738262Y-51420185D01*
X144758904Y-51436819D01*
X144839539Y-51517454D01*
X144873024Y-51578777D01*
X144868040Y-51648469D01*
X144826168Y-51704402D01*
X144783952Y-51724910D01*
X144603508Y-51773259D01*
X144603502Y-51773261D01*
X144397267Y-51869431D01*
X144397265Y-51869432D01*
X144210858Y-51999954D01*
X144049954Y-52160858D01*
X143919432Y-52347265D01*
X143919431Y-52347267D01*
X143823261Y-52553502D01*
X143823258Y-52553511D01*
X143764366Y-52773302D01*
X143764364Y-52773313D01*
X143744532Y-52999998D01*
X143744532Y-53000001D01*
X143764364Y-53226686D01*
X143764366Y-53226697D01*
X143823258Y-53446488D01*
X143823261Y-53446497D01*
X143919431Y-53652732D01*
X143919432Y-53652734D01*
X144049954Y-53839141D01*
X144210858Y-54000045D01*
X144210861Y-54000047D01*
X144397266Y-54130568D01*
X144603504Y-54226739D01*
X144823308Y-54285635D01*
X144985230Y-54299801D01*
X145049998Y-54305468D01*
X145050000Y-54305468D01*
X145050002Y-54305468D01*
X145106673Y-54300509D01*
X145276692Y-54285635D01*
X145496496Y-54226739D01*
X145702734Y-54130568D01*
X145889139Y-54000047D01*
X146050047Y-53839139D01*
X146180568Y-53652734D01*
X146276739Y-53446496D01*
X146325090Y-53266046D01*
X146361454Y-53206388D01*
X146424300Y-53175858D01*
X146493676Y-53184152D01*
X146532545Y-53210460D01*
X147060994Y-53738909D01*
X147094479Y-53800232D01*
X147089495Y-53869924D01*
X147078612Y-53889590D01*
X147079528Y-53890119D01*
X147075465Y-53897156D01*
X147014956Y-54043237D01*
X147014955Y-54043239D01*
X146994318Y-54199998D01*
X146994318Y-54200001D01*
X147014955Y-54356760D01*
X147014956Y-54356762D01*
X147059833Y-54465106D01*
X147075464Y-54502841D01*
X147171718Y-54628282D01*
X147297159Y-54724536D01*
X147443238Y-54785044D01*
X147521619Y-54795363D01*
X147599999Y-54805682D01*
X147600000Y-54805682D01*
X147600001Y-54805682D01*
X147652381Y-54798786D01*
X147756762Y-54785044D01*
X147902841Y-54724536D01*
X148028282Y-54628282D01*
X148124536Y-54502841D01*
X148185044Y-54356762D01*
X148198802Y-54252254D01*
X148205682Y-54200001D01*
X148205682Y-54199998D01*
X148185044Y-54043239D01*
X148185044Y-54043238D01*
X148124536Y-53897159D01*
X148124535Y-53897158D01*
X148124535Y-53897157D01*
X148026124Y-53768905D01*
X148000930Y-53703736D01*
X148000500Y-53693419D01*
X148000500Y-53658797D01*
X148000500Y-53658795D01*
X147973207Y-53556935D01*
X147973207Y-53556934D01*
X147920480Y-53465609D01*
X145134391Y-50679520D01*
X145088728Y-50653156D01*
X145043067Y-50626793D01*
X144992135Y-50613146D01*
X144941205Y-50599500D01*
X144941204Y-50599500D01*
X115417254Y-50599500D01*
X115350215Y-50579815D01*
X115329573Y-50563181D01*
X114910105Y-50143713D01*
X169399500Y-50143713D01*
X169399500Y-50356287D01*
X169432754Y-50566243D01*
X169453402Y-50629792D01*
X169498444Y-50768414D01*
X169594951Y-50957820D01*
X169719890Y-51129786D01*
X169870213Y-51280109D01*
X170042179Y-51405048D01*
X170042181Y-51405049D01*
X170042184Y-51405051D01*
X170231588Y-51501557D01*
X170433757Y-51567246D01*
X170643713Y-51600500D01*
X170643714Y-51600500D01*
X170856286Y-51600500D01*
X170856287Y-51600500D01*
X171066243Y-51567246D01*
X171268412Y-51501557D01*
X171457816Y-51405051D01*
X171591680Y-51307794D01*
X171629786Y-51280109D01*
X171629788Y-51280106D01*
X171629792Y-51280104D01*
X171780104Y-51129792D01*
X171780106Y-51129788D01*
X171780109Y-51129786D01*
X171905048Y-50957820D01*
X171905047Y-50957820D01*
X171905051Y-50957816D01*
X172001557Y-50768412D01*
X172067246Y-50566243D01*
X172100500Y-50356287D01*
X172100500Y-50143713D01*
X172067246Y-49933757D01*
X172001557Y-49731588D01*
X171905051Y-49542184D01*
X171905049Y-49542181D01*
X171905048Y-49542179D01*
X171780109Y-49370213D01*
X171629786Y-49219890D01*
X171457820Y-49094951D01*
X171268414Y-48998444D01*
X171268413Y-48998443D01*
X171268412Y-48998443D01*
X171066243Y-48932754D01*
X171066241Y-48932753D01*
X171066240Y-48932753D01*
X170904957Y-48907208D01*
X170856287Y-48899500D01*
X170643713Y-48899500D01*
X170595042Y-48907208D01*
X170433760Y-48932753D01*
X170231585Y-48998444D01*
X170042179Y-49094951D01*
X169870213Y-49219890D01*
X169719890Y-49370213D01*
X169594951Y-49542179D01*
X169498444Y-49731585D01*
X169432753Y-49933760D01*
X169399500Y-50143713D01*
X114910105Y-50143713D01*
X114241402Y-49475009D01*
X114207917Y-49413686D01*
X114206144Y-49403513D01*
X114205681Y-49399998D01*
X114185044Y-49243238D01*
X114124536Y-49097159D01*
X114028282Y-48971718D01*
X113902841Y-48875464D01*
X113756762Y-48814956D01*
X113756760Y-48814955D01*
X113600001Y-48794318D01*
X113599999Y-48794318D01*
X113443239Y-48814955D01*
X113443237Y-48814956D01*
X113297160Y-48875463D01*
X113171718Y-48971718D01*
X113075463Y-49097160D01*
X113014956Y-49243237D01*
X113014955Y-49243239D01*
X112994318Y-49399998D01*
X112994318Y-49400001D01*
X113014955Y-49556760D01*
X113014956Y-49556762D01*
X113075464Y-49702841D01*
X113171718Y-49828282D01*
X113297159Y-49924536D01*
X113443238Y-49985044D01*
X113600000Y-50005682D01*
X113600001Y-50005681D01*
X113603513Y-50006144D01*
X113667410Y-50034410D01*
X113675009Y-50041402D01*
X114233107Y-50599500D01*
X114621427Y-50987819D01*
X114654912Y-51049142D01*
X114649928Y-51118833D01*
X114608056Y-51174767D01*
X114542592Y-51199184D01*
X114533746Y-51199500D01*
X101498744Y-51199500D01*
X101396881Y-51226793D01*
X101305558Y-51279520D01*
X101305555Y-51279522D01*
X99700423Y-52884653D01*
X99639100Y-52918138D01*
X99569408Y-52913154D01*
X99513475Y-52871282D01*
X99489165Y-52807210D01*
X99484612Y-52752260D01*
X99423587Y-52511282D01*
X99323732Y-52283632D01*
X99223435Y-52130116D01*
X98523787Y-52829765D01*
X98512518Y-52787708D01*
X98440110Y-52662292D01*
X98337708Y-52559890D01*
X98212292Y-52487482D01*
X98170233Y-52476212D01*
X98870055Y-51776389D01*
X98870055Y-51776388D01*
X98823236Y-51739947D01*
X98823231Y-51739944D01*
X98604614Y-51621635D01*
X98604603Y-51621630D01*
X98369493Y-51540916D01*
X98124293Y-51500000D01*
X97875707Y-51500000D01*
X97630506Y-51540916D01*
X97395396Y-51621630D01*
X97395385Y-51621635D01*
X97176770Y-51739943D01*
X97129943Y-51776389D01*
X97829766Y-52476212D01*
X97787708Y-52487482D01*
X97662292Y-52559890D01*
X97559890Y-52662292D01*
X97487482Y-52787708D01*
X97476212Y-52829766D01*
X96776563Y-52130117D01*
X96676267Y-52283633D01*
X96676265Y-52283637D01*
X96576412Y-52511282D01*
X96515387Y-52752261D01*
X96515385Y-52752270D01*
X96494859Y-52999994D01*
X96494859Y-53000005D01*
X96515385Y-53247729D01*
X96515387Y-53247738D01*
X96576412Y-53488717D01*
X96676267Y-53716367D01*
X96776562Y-53869881D01*
X97476212Y-53170233D01*
X97487482Y-53212292D01*
X97559890Y-53337708D01*
X97662292Y-53440110D01*
X97787708Y-53512518D01*
X97829765Y-53523787D01*
X97129943Y-54223609D01*
X97176768Y-54260055D01*
X97176771Y-54260057D01*
X97395385Y-54378364D01*
X97395396Y-54378369D01*
X97630506Y-54459083D01*
X97875707Y-54500000D01*
X98124293Y-54500000D01*
X98369493Y-54459083D01*
X98604603Y-54378369D01*
X98604615Y-54378364D01*
X98616478Y-54371944D01*
X98684806Y-54357346D01*
X98750179Y-54382006D01*
X98791842Y-54438095D01*
X98799500Y-54480996D01*
X98799500Y-54893419D01*
X98779815Y-54960458D01*
X98773876Y-54968905D01*
X98675464Y-55097157D01*
X98614956Y-55243237D01*
X98614955Y-55243239D01*
X98594318Y-55399998D01*
X98594318Y-55400001D01*
X98614955Y-55556760D01*
X98614956Y-55556762D01*
X98650015Y-55641403D01*
X98675464Y-55702841D01*
X98771718Y-55828282D01*
X98897159Y-55924536D01*
X99043238Y-55985044D01*
X99113681Y-55994318D01*
X99199999Y-56005682D01*
X99200000Y-56005682D01*
X99200001Y-56005682D01*
X99252254Y-55998802D01*
X99356762Y-55985044D01*
X99502841Y-55924536D01*
X99628282Y-55828282D01*
X99628283Y-55828279D01*
X99631093Y-55826124D01*
X99696263Y-55800930D01*
X99706580Y-55800500D01*
X109852725Y-55800500D01*
X109852727Y-55800500D01*
X109954588Y-55773207D01*
X110045913Y-55720480D01*
X110124989Y-55641402D01*
X110186311Y-55607917D01*
X110196486Y-55606144D01*
X110199997Y-55605681D01*
X110200000Y-55605682D01*
X110356762Y-55585044D01*
X110502841Y-55524536D01*
X110628282Y-55428282D01*
X110724536Y-55302841D01*
X110785044Y-55156762D01*
X110805682Y-55000000D01*
X110805550Y-54999000D01*
X110789291Y-54875500D01*
X110785044Y-54843238D01*
X110724536Y-54697159D01*
X110628282Y-54571718D01*
X110502841Y-54475464D01*
X110412624Y-54438095D01*
X110356762Y-54414956D01*
X110356760Y-54414955D01*
X110200001Y-54394318D01*
X110199999Y-54394318D01*
X110043239Y-54414955D01*
X110043237Y-54414956D01*
X109897160Y-54475463D01*
X109771718Y-54571718D01*
X109675463Y-54697160D01*
X109614956Y-54843237D01*
X109614955Y-54843239D01*
X109608578Y-54891685D01*
X109580312Y-54955582D01*
X109521987Y-54994053D01*
X109485639Y-54999500D01*
X99724500Y-54999500D01*
X99657461Y-54979815D01*
X99611706Y-54927011D01*
X99600500Y-54875500D01*
X99600500Y-54168725D01*
X99620185Y-54101686D01*
X99636815Y-54081048D01*
X100349242Y-53368620D01*
X100410563Y-53335137D01*
X100480254Y-53340121D01*
X100535295Y-53380814D01*
X100571718Y-53428282D01*
X100697159Y-53524536D01*
X100843238Y-53585044D01*
X100913681Y-53594318D01*
X100999999Y-53605682D01*
X101000000Y-53605682D01*
X101000001Y-53605682D01*
X101079467Y-53595220D01*
X101156762Y-53585044D01*
X101302841Y-53524536D01*
X101428282Y-53428282D01*
X101428283Y-53428279D01*
X101431093Y-53426124D01*
X101496263Y-53400930D01*
X101506580Y-53400500D01*
X117737591Y-53400500D01*
X117804630Y-53420185D01*
X117850385Y-53472989D01*
X117860329Y-53542147D01*
X117831304Y-53605703D01*
X117785044Y-53639060D01*
X117769634Y-53645444D01*
X117697160Y-53675463D01*
X117571718Y-53771718D01*
X117475463Y-53897160D01*
X117414956Y-54043237D01*
X117414955Y-54043239D01*
X117398918Y-54165060D01*
X117394318Y-54200000D01*
X117394595Y-54202103D01*
X117396553Y-54216978D01*
X117385785Y-54286013D01*
X117361294Y-54320841D01*
X117250759Y-54431376D01*
X117189436Y-54464861D01*
X117119744Y-54459877D01*
X117064703Y-54419182D01*
X117028284Y-54371720D01*
X117028282Y-54371719D01*
X117028282Y-54371718D01*
X116902841Y-54275464D01*
X116865645Y-54260057D01*
X116756762Y-54214956D01*
X116756760Y-54214955D01*
X116600001Y-54194318D01*
X116599999Y-54194318D01*
X116443239Y-54214955D01*
X116443237Y-54214956D01*
X116297160Y-54275463D01*
X116283906Y-54285633D01*
X116171718Y-54371718D01*
X116171716Y-54371720D01*
X116168907Y-54373876D01*
X116103737Y-54399070D01*
X116093420Y-54399500D01*
X115049781Y-54399500D01*
X114982742Y-54379815D01*
X114936987Y-54327011D01*
X114935220Y-54322952D01*
X114924537Y-54297161D01*
X114924536Y-54297160D01*
X114924536Y-54297159D01*
X114828282Y-54171718D01*
X114702841Y-54075464D01*
X114556762Y-54014956D01*
X114556760Y-54014955D01*
X114400001Y-53994318D01*
X114399999Y-53994318D01*
X114243239Y-54014955D01*
X114243237Y-54014956D01*
X114097160Y-54075463D01*
X113971718Y-54171718D01*
X113875463Y-54297160D01*
X113814956Y-54443237D01*
X113814955Y-54443239D01*
X113794318Y-54599998D01*
X113794318Y-54600001D01*
X113814955Y-54756760D01*
X113814956Y-54756762D01*
X113868573Y-54886206D01*
X113875464Y-54902841D01*
X113971718Y-55028282D01*
X114097159Y-55124536D01*
X114243238Y-55185044D01*
X114288281Y-55190974D01*
X114399999Y-55205682D01*
X114400000Y-55205682D01*
X114487265Y-55194193D01*
X114535538Y-55197356D01*
X114547273Y-55200501D01*
X114547276Y-55200501D01*
X114660323Y-55200501D01*
X114660339Y-55200500D01*
X116093420Y-55200500D01*
X116160459Y-55220185D01*
X116168906Y-55226124D01*
X116171717Y-55228281D01*
X116171718Y-55228282D01*
X116219181Y-55264702D01*
X116260384Y-55321129D01*
X116264539Y-55390875D01*
X116231376Y-55450758D01*
X114679522Y-57002613D01*
X114679520Y-57002616D01*
X114626793Y-57093941D01*
X114611244Y-57151971D01*
X114611244Y-57151972D01*
X114611243Y-57151971D01*
X114599500Y-57195798D01*
X114599500Y-59774589D01*
X114579815Y-59841628D01*
X114527011Y-59887383D01*
X114457853Y-59897327D01*
X114394297Y-59868302D01*
X114368114Y-59836591D01*
X114355074Y-59814006D01*
X114355073Y-59814003D01*
X114320484Y-59754093D01*
X114320481Y-59754089D01*
X114320480Y-59754087D01*
X114245913Y-59679520D01*
X114245912Y-59679519D01*
X114241582Y-59675189D01*
X114241571Y-59675179D01*
X113245915Y-58679522D01*
X113245914Y-58679521D01*
X113245913Y-58679520D01*
X113200250Y-58653156D01*
X113154589Y-58626793D01*
X113103657Y-58613146D01*
X113052727Y-58599500D01*
X99004198Y-58599500D01*
X98898744Y-58599500D01*
X98796881Y-58626793D01*
X98705558Y-58679520D01*
X98705555Y-58679522D01*
X98279522Y-59105555D01*
X98279520Y-59105558D01*
X98226791Y-59196885D01*
X98205738Y-59275462D01*
X98205738Y-59275463D01*
X98199500Y-59298743D01*
X98199500Y-59901255D01*
X98226793Y-60003118D01*
X98253156Y-60048779D01*
X98279520Y-60094442D01*
X98279521Y-60094443D01*
X98279522Y-60094444D01*
X103826650Y-65641571D01*
X103826660Y-65641582D01*
X103830990Y-65645912D01*
X103830991Y-65645913D01*
X103905558Y-65720480D01*
X103991421Y-65770053D01*
X103996884Y-65773207D01*
X104098744Y-65800501D01*
X104098746Y-65800501D01*
X104211794Y-65800501D01*
X104211810Y-65800500D01*
X107182745Y-65800500D01*
X107249784Y-65820185D01*
X107270426Y-65836819D01*
X109558597Y-68124990D01*
X109592082Y-68186313D01*
X109593855Y-68196485D01*
X109600010Y-68243237D01*
X109614066Y-68350005D01*
X109614956Y-68356761D01*
X109614956Y-68356762D01*
X109675464Y-68502842D01*
X109750027Y-68600014D01*
X109775221Y-68665183D01*
X109761183Y-68733628D01*
X109712369Y-68783617D01*
X109651651Y-68799500D01*
X79817255Y-68799500D01*
X79750216Y-68779815D01*
X79729574Y-68763181D01*
X78166391Y-67199998D01*
X81794318Y-67199998D01*
X81794318Y-67200001D01*
X81814955Y-67356760D01*
X81814956Y-67356762D01*
X81875464Y-67502841D01*
X81971718Y-67628282D01*
X82097159Y-67724536D01*
X82243238Y-67785044D01*
X82310165Y-67793855D01*
X82399999Y-67805682D01*
X82400000Y-67805682D01*
X82400001Y-67805682D01*
X82452254Y-67798802D01*
X82556762Y-67785044D01*
X82702841Y-67724536D01*
X82828282Y-67628282D01*
X82924536Y-67502841D01*
X82985044Y-67356762D01*
X83005682Y-67200000D01*
X83005681Y-67199997D01*
X83006144Y-67196485D01*
X83034410Y-67132589D01*
X83041390Y-67125001D01*
X83966393Y-66199998D01*
X90994318Y-66199998D01*
X90994318Y-66200001D01*
X91014955Y-66356760D01*
X91014956Y-66356762D01*
X91052743Y-66447989D01*
X91075464Y-66502841D01*
X91171718Y-66628282D01*
X91297159Y-66724536D01*
X91443238Y-66785044D01*
X91520267Y-66795185D01*
X91599999Y-66805682D01*
X91600000Y-66805682D01*
X91600001Y-66805682D01*
X91679733Y-66795185D01*
X91756762Y-66785044D01*
X91902841Y-66724536D01*
X92028282Y-66628282D01*
X92124536Y-66502841D01*
X92185044Y-66356762D01*
X92205682Y-66200000D01*
X92204789Y-66193219D01*
X92188948Y-66072892D01*
X92185044Y-66043238D01*
X92124536Y-65897159D01*
X92124535Y-65897158D01*
X92124535Y-65897157D01*
X92026124Y-65768905D01*
X92000930Y-65703736D01*
X92000500Y-65693419D01*
X92000500Y-63017254D01*
X92020185Y-62950215D01*
X92036814Y-62929578D01*
X94724991Y-60241400D01*
X94786312Y-60207917D01*
X94796485Y-60206144D01*
X94799997Y-60205681D01*
X94800000Y-60205682D01*
X94956762Y-60185044D01*
X95102841Y-60124536D01*
X95228282Y-60028282D01*
X95324536Y-59902841D01*
X95385044Y-59756762D01*
X95405682Y-59600000D01*
X95405354Y-59597512D01*
X95385044Y-59443238D01*
X95324536Y-59297159D01*
X95228282Y-59171718D01*
X95102841Y-59075464D01*
X94956762Y-59014956D01*
X94956760Y-59014955D01*
X94800001Y-58994318D01*
X94799999Y-58994318D01*
X94643239Y-59014955D01*
X94643237Y-59014956D01*
X94497160Y-59075463D01*
X94371718Y-59171718D01*
X94275463Y-59297160D01*
X94214956Y-59443237D01*
X94214956Y-59443238D01*
X94193855Y-59603513D01*
X94165588Y-59667409D01*
X94158597Y-59675008D01*
X91279522Y-62554084D01*
X91279520Y-62554087D01*
X91226793Y-62645411D01*
X91205947Y-62723212D01*
X91199500Y-62747271D01*
X91199500Y-65693419D01*
X91179815Y-65760458D01*
X91173876Y-65768905D01*
X91075464Y-65897157D01*
X91014956Y-66043237D01*
X91014955Y-66043239D01*
X90994318Y-66199998D01*
X83966393Y-66199998D01*
X90120480Y-60045913D01*
X90138353Y-60014956D01*
X90143708Y-60005682D01*
X90150280Y-59994297D01*
X90173207Y-59954587D01*
X90200500Y-59852727D01*
X90200500Y-57306580D01*
X90220185Y-57239541D01*
X90226124Y-57231093D01*
X90228279Y-57228283D01*
X90228282Y-57228282D01*
X90324536Y-57102841D01*
X90385044Y-56956762D01*
X90405682Y-56800000D01*
X90399989Y-56756760D01*
X90385044Y-56643239D01*
X90385044Y-56643238D01*
X90324536Y-56497159D01*
X90228282Y-56371718D01*
X90102841Y-56275464D01*
X89956762Y-56214956D01*
X89956760Y-56214955D01*
X89800001Y-56194318D01*
X89799999Y-56194318D01*
X89643239Y-56214955D01*
X89643237Y-56214956D01*
X89497160Y-56275463D01*
X89371718Y-56371718D01*
X89275463Y-56497160D01*
X89214956Y-56643237D01*
X89214955Y-56643239D01*
X89194318Y-56799998D01*
X89194318Y-56800001D01*
X89214955Y-56956760D01*
X89214956Y-56956762D01*
X89275464Y-57102841D01*
X89371718Y-57228282D01*
X89371720Y-57228283D01*
X89373876Y-57231093D01*
X89399070Y-57296263D01*
X89399500Y-57306580D01*
X89399500Y-59582744D01*
X89379815Y-59649783D01*
X89363181Y-59670425D01*
X82475008Y-66558597D01*
X82413685Y-66592082D01*
X82403513Y-66593855D01*
X82243238Y-66614956D01*
X82243237Y-66614956D01*
X82097160Y-66675463D01*
X81971718Y-66771718D01*
X81875463Y-66897160D01*
X81814956Y-67043237D01*
X81814955Y-67043239D01*
X81794318Y-67199998D01*
X78166391Y-67199998D01*
X76428803Y-65462410D01*
X76428801Y-65462408D01*
X76364413Y-65425233D01*
X76337477Y-65409681D01*
X76286545Y-65396034D01*
X76235615Y-65382388D01*
X76235614Y-65382388D01*
X75797487Y-65382388D01*
X75730448Y-65362703D01*
X75722000Y-65356764D01*
X75719190Y-65354608D01*
X75719189Y-65354606D01*
X75629967Y-65286143D01*
X75588766Y-65229717D01*
X75584611Y-65159971D01*
X75617772Y-65100090D01*
X76920480Y-63797384D01*
X76973207Y-63706059D01*
X77000500Y-63604198D01*
X77000500Y-63498744D01*
X77000500Y-60249997D01*
X82945034Y-60249997D01*
X82945034Y-60250002D01*
X82964858Y-60476599D01*
X82964860Y-60476610D01*
X83023730Y-60696317D01*
X83023735Y-60696331D01*
X83119863Y-60902478D01*
X83170974Y-60975472D01*
X83850000Y-60296446D01*
X83850000Y-60302661D01*
X83877259Y-60404394D01*
X83929920Y-60495606D01*
X84004394Y-60570080D01*
X84095606Y-60622741D01*
X84197339Y-60650000D01*
X84203553Y-60650000D01*
X83524526Y-61329025D01*
X83597513Y-61380132D01*
X83597521Y-61380136D01*
X83803668Y-61476264D01*
X83803682Y-61476269D01*
X84023389Y-61535139D01*
X84023400Y-61535141D01*
X84249998Y-61554966D01*
X84250002Y-61554966D01*
X84476599Y-61535141D01*
X84476610Y-61535139D01*
X84696317Y-61476269D01*
X84696331Y-61476264D01*
X84902478Y-61380136D01*
X84975471Y-61329024D01*
X84296447Y-60650000D01*
X84302661Y-60650000D01*
X84404394Y-60622741D01*
X84495606Y-60570080D01*
X84570080Y-60495606D01*
X84622741Y-60404394D01*
X84650000Y-60302661D01*
X84650000Y-60296447D01*
X85329024Y-60975471D01*
X85380136Y-60902478D01*
X85476264Y-60696331D01*
X85476269Y-60696317D01*
X85535139Y-60476610D01*
X85535141Y-60476599D01*
X85554966Y-60250002D01*
X85554966Y-60249997D01*
X85535141Y-60023400D01*
X85535139Y-60023389D01*
X85476269Y-59803682D01*
X85476264Y-59803668D01*
X85380136Y-59597521D01*
X85380132Y-59597513D01*
X85329025Y-59524526D01*
X84650000Y-60203551D01*
X84650000Y-60197339D01*
X84622741Y-60095606D01*
X84570080Y-60004394D01*
X84495606Y-59929920D01*
X84404394Y-59877259D01*
X84302661Y-59850000D01*
X84296445Y-59850000D01*
X84975472Y-59170974D01*
X84902478Y-59119863D01*
X84696331Y-59023735D01*
X84696317Y-59023730D01*
X84476610Y-58964860D01*
X84476599Y-58964858D01*
X84250002Y-58945034D01*
X84249998Y-58945034D01*
X84023400Y-58964858D01*
X84023389Y-58964860D01*
X83803682Y-59023730D01*
X83803673Y-59023734D01*
X83597516Y-59119866D01*
X83597512Y-59119868D01*
X83524526Y-59170973D01*
X83524526Y-59170974D01*
X84203553Y-59850000D01*
X84197339Y-59850000D01*
X84095606Y-59877259D01*
X84004394Y-59929920D01*
X83929920Y-60004394D01*
X83877259Y-60095606D01*
X83850000Y-60197339D01*
X83850000Y-60203552D01*
X83170974Y-59524526D01*
X83170973Y-59524526D01*
X83119868Y-59597512D01*
X83119866Y-59597516D01*
X83023734Y-59803673D01*
X83023730Y-59803682D01*
X82964860Y-60023389D01*
X82964858Y-60023400D01*
X82945034Y-60249997D01*
X77000500Y-60249997D01*
X77000500Y-57947273D01*
X76973207Y-57845413D01*
X76973207Y-57845412D01*
X76920480Y-57754087D01*
X76636818Y-57470425D01*
X76603333Y-57409102D01*
X76600499Y-57382744D01*
X76600499Y-56055143D01*
X76600499Y-56055136D01*
X76598375Y-56036819D01*
X76597586Y-56030012D01*
X76597585Y-56030010D01*
X76597585Y-56030009D01*
X76552206Y-55927235D01*
X76530102Y-55905131D01*
X83149500Y-55905131D01*
X83149500Y-57594856D01*
X83149502Y-57594882D01*
X83152413Y-57619987D01*
X83152415Y-57619991D01*
X83197793Y-57722764D01*
X83197794Y-57722765D01*
X83277235Y-57802206D01*
X83380009Y-57847585D01*
X83405135Y-57850500D01*
X85094864Y-57850499D01*
X85094879Y-57850497D01*
X85094882Y-57850497D01*
X85119987Y-57847586D01*
X85119988Y-57847585D01*
X85119991Y-57847585D01*
X85222765Y-57802206D01*
X85302206Y-57722765D01*
X85347585Y-57619991D01*
X85350500Y-57594865D01*
X85350499Y-55905136D01*
X85350233Y-55902839D01*
X85347586Y-55880012D01*
X85347585Y-55880010D01*
X85347585Y-55880009D01*
X85302206Y-55777235D01*
X85222765Y-55697794D01*
X85222763Y-55697793D01*
X85119992Y-55652415D01*
X85094865Y-55649500D01*
X83405143Y-55649500D01*
X83405117Y-55649502D01*
X83380012Y-55652413D01*
X83380008Y-55652415D01*
X83277235Y-55697793D01*
X83197794Y-55777234D01*
X83152415Y-55880006D01*
X83152415Y-55880008D01*
X83149500Y-55905131D01*
X76530102Y-55905131D01*
X76472765Y-55847794D01*
X76472763Y-55847793D01*
X76369992Y-55802415D01*
X76344865Y-55799500D01*
X74655143Y-55799500D01*
X74655117Y-55799502D01*
X74630012Y-55802413D01*
X74630008Y-55802415D01*
X74527235Y-55847793D01*
X74447794Y-55927234D01*
X74402415Y-56030006D01*
X74402415Y-56030008D01*
X74399500Y-56055131D01*
X74399500Y-57744856D01*
X74399502Y-57744882D01*
X74402413Y-57769987D01*
X74402415Y-57769991D01*
X74447793Y-57872764D01*
X74447794Y-57872765D01*
X74527235Y-57952206D01*
X74630009Y-57997585D01*
X74655135Y-58000500D01*
X75982744Y-58000499D01*
X76049783Y-58020184D01*
X76070425Y-58036818D01*
X76163181Y-58129574D01*
X76196666Y-58190897D01*
X76199500Y-58217255D01*
X76199500Y-59097149D01*
X76179815Y-59164188D01*
X76127011Y-59209943D01*
X76057853Y-59219887D01*
X76023096Y-59209531D01*
X75946331Y-59173735D01*
X75946317Y-59173730D01*
X75726610Y-59114860D01*
X75726599Y-59114858D01*
X75500002Y-59095034D01*
X75499998Y-59095034D01*
X75273400Y-59114858D01*
X75273389Y-59114860D01*
X75053682Y-59173730D01*
X75053673Y-59173734D01*
X74847516Y-59269866D01*
X74847512Y-59269868D01*
X74774526Y-59320973D01*
X74774526Y-59320974D01*
X75453553Y-60000000D01*
X75447339Y-60000000D01*
X75345606Y-60027259D01*
X75254394Y-60079920D01*
X75179920Y-60154394D01*
X75127259Y-60245606D01*
X75100000Y-60347339D01*
X75100000Y-60353552D01*
X74420974Y-59674526D01*
X74420973Y-59674526D01*
X74369868Y-59747512D01*
X74369866Y-59747516D01*
X74273734Y-59953673D01*
X74273730Y-59953682D01*
X74214860Y-60173389D01*
X74214858Y-60173400D01*
X74195034Y-60399997D01*
X74195034Y-60400002D01*
X74214858Y-60626599D01*
X74214860Y-60626610D01*
X74273730Y-60846317D01*
X74273735Y-60846331D01*
X74369863Y-61052478D01*
X74420974Y-61125472D01*
X75100000Y-60446446D01*
X75100000Y-60452661D01*
X75127259Y-60554394D01*
X75179920Y-60645606D01*
X75254394Y-60720080D01*
X75345606Y-60772741D01*
X75447339Y-60800000D01*
X75453552Y-60800000D01*
X74774526Y-61479025D01*
X74847513Y-61530132D01*
X74847521Y-61530136D01*
X75053668Y-61626264D01*
X75053682Y-61626269D01*
X75273389Y-61685139D01*
X75273400Y-61685141D01*
X75499998Y-61704966D01*
X75500002Y-61704966D01*
X75726599Y-61685141D01*
X75726610Y-61685139D01*
X75946317Y-61626269D01*
X75946326Y-61626266D01*
X76023095Y-61590468D01*
X76092172Y-61579976D01*
X76155956Y-61608495D01*
X76194196Y-61666972D01*
X76199500Y-61702850D01*
X76199500Y-63334216D01*
X76179815Y-63401255D01*
X76163181Y-63421897D01*
X74279522Y-65305555D01*
X74279520Y-65305558D01*
X74226791Y-65396885D01*
X74205738Y-65475462D01*
X74205738Y-65475463D01*
X74199500Y-65498743D01*
X74199500Y-71052726D01*
X74226793Y-71154589D01*
X74241358Y-71179815D01*
X74279520Y-71245913D01*
X74279522Y-71245915D01*
X74758597Y-71724990D01*
X74792082Y-71786313D01*
X74793855Y-71796485D01*
X74802058Y-71858792D01*
X74814956Y-71956762D01*
X74875464Y-72102841D01*
X74971718Y-72228282D01*
X75097159Y-72324536D01*
X75243238Y-72385044D01*
X75313522Y-72394297D01*
X75399999Y-72405682D01*
X75400000Y-72405682D01*
X75400001Y-72405682D01*
X75452254Y-72398802D01*
X75556762Y-72385044D01*
X75702841Y-72324536D01*
X75828282Y-72228282D01*
X75924536Y-72102841D01*
X75985044Y-71956762D01*
X76001727Y-71830045D01*
X76005682Y-71800001D01*
X76005682Y-71799998D01*
X75985044Y-71643239D01*
X75985044Y-71643238D01*
X75924536Y-71497159D01*
X75828282Y-71371718D01*
X75702841Y-71275464D01*
X75556762Y-71214956D01*
X75486319Y-71205682D01*
X75396485Y-71193855D01*
X75332589Y-71165588D01*
X75324990Y-71158597D01*
X75036819Y-70870426D01*
X75003334Y-70809103D01*
X75000500Y-70782745D01*
X75000500Y-67720812D01*
X75020185Y-67653773D01*
X75072989Y-67608018D01*
X75140684Y-67597873D01*
X75200000Y-67605682D01*
X75200001Y-67605681D01*
X75203512Y-67606144D01*
X75267409Y-67634410D01*
X75275009Y-67641402D01*
X80921426Y-73287819D01*
X80954911Y-73349142D01*
X80949927Y-73418834D01*
X80908055Y-73474767D01*
X80842591Y-73499184D01*
X80833745Y-73499500D01*
X67929813Y-73499500D01*
X67922184Y-73500000D01*
X62624000Y-73500000D01*
X62556961Y-73480315D01*
X62511206Y-73427511D01*
X62500000Y-73376000D01*
X62500000Y-63649000D01*
X62519685Y-63581961D01*
X62572489Y-63536206D01*
X62624000Y-63525000D01*
X62750000Y-63525000D01*
X62750000Y-62875000D01*
X63250000Y-62875000D01*
X63250000Y-63525000D01*
X63493569Y-63525000D01*
X63493571Y-63524999D01*
X63677097Y-63488493D01*
X63677105Y-63488491D01*
X63849991Y-63416880D01*
X63850000Y-63416875D01*
X64005589Y-63312913D01*
X64005593Y-63312910D01*
X64137910Y-63180593D01*
X64137913Y-63180589D01*
X64241875Y-63025000D01*
X64241880Y-63024991D01*
X64313492Y-62852103D01*
X64313493Y-62852100D01*
X64318884Y-62825000D01*
X63566988Y-62825000D01*
X63584205Y-62815060D01*
X63640060Y-62759205D01*
X63679556Y-62690796D01*
X63700000Y-62614496D01*
X63700000Y-62535504D01*
X63679556Y-62459204D01*
X63640060Y-62390795D01*
X63584205Y-62334940D01*
X63566988Y-62325000D01*
X64318884Y-62325000D01*
X64318884Y-62324999D01*
X65701115Y-62324999D01*
X65701116Y-62325000D01*
X66453012Y-62325000D01*
X66435795Y-62334940D01*
X66379940Y-62390795D01*
X66340444Y-62459204D01*
X66320000Y-62535504D01*
X66320000Y-62614496D01*
X66340444Y-62690796D01*
X66379940Y-62759205D01*
X66435795Y-62815060D01*
X66453012Y-62825000D01*
X65701116Y-62825000D01*
X65706506Y-62852100D01*
X65706507Y-62852103D01*
X65778119Y-63024991D01*
X65778124Y-63025000D01*
X65882086Y-63180589D01*
X65882089Y-63180593D01*
X66014406Y-63312910D01*
X66014410Y-63312913D01*
X66169999Y-63416875D01*
X66170008Y-63416880D01*
X66342894Y-63488491D01*
X66342902Y-63488493D01*
X66526428Y-63524999D01*
X66526431Y-63525000D01*
X66920000Y-63525000D01*
X66920000Y-62875000D01*
X67420000Y-62875000D01*
X67420000Y-63525000D01*
X67813569Y-63525000D01*
X67813571Y-63524999D01*
X67997097Y-63488493D01*
X67997105Y-63488491D01*
X68169991Y-63416880D01*
X68170000Y-63416875D01*
X68325589Y-63312913D01*
X68325593Y-63312910D01*
X68457910Y-63180593D01*
X68457913Y-63180589D01*
X68561875Y-63025000D01*
X68561880Y-63024991D01*
X68633492Y-62852103D01*
X68633493Y-62852100D01*
X68638884Y-62825000D01*
X67886988Y-62825000D01*
X67904205Y-62815060D01*
X67960060Y-62759205D01*
X67999556Y-62690796D01*
X68020000Y-62614496D01*
X68020000Y-62535504D01*
X67999556Y-62459204D01*
X67960060Y-62390795D01*
X67904205Y-62334940D01*
X67886988Y-62325000D01*
X68638884Y-62325000D01*
X68638884Y-62324999D01*
X68633493Y-62297899D01*
X68633492Y-62297896D01*
X68561880Y-62125008D01*
X68561875Y-62124999D01*
X68457913Y-61969410D01*
X68457910Y-61969406D01*
X68325593Y-61837089D01*
X68325589Y-61837086D01*
X68170000Y-61733124D01*
X68169991Y-61733119D01*
X67997105Y-61661508D01*
X67997097Y-61661506D01*
X67813570Y-61625000D01*
X67420000Y-61625000D01*
X67420000Y-62275000D01*
X66920000Y-62275000D01*
X66920000Y-61708689D01*
X66939685Y-61641650D01*
X66981999Y-61601302D01*
X67018015Y-61580509D01*
X67120509Y-61478015D01*
X67192984Y-61352485D01*
X67230500Y-61212475D01*
X67230500Y-61067525D01*
X67192984Y-60927515D01*
X67178738Y-60902841D01*
X67120511Y-60801988D01*
X67120506Y-60801982D01*
X67018017Y-60699493D01*
X67018011Y-60699488D01*
X66892488Y-60627017D01*
X66892489Y-60627017D01*
X66876531Y-60622741D01*
X66752475Y-60589500D01*
X66607525Y-60589500D01*
X66483469Y-60622741D01*
X66467511Y-60627017D01*
X66341988Y-60699488D01*
X66341982Y-60699493D01*
X66239493Y-60801982D01*
X66239488Y-60801988D01*
X66167017Y-60927511D01*
X66167016Y-60927515D01*
X66129500Y-61067525D01*
X66129500Y-61212475D01*
X66167016Y-61352485D01*
X66167017Y-61352488D01*
X66239488Y-61478011D01*
X66239493Y-61478017D01*
X66268302Y-61506826D01*
X66301787Y-61568149D01*
X66296803Y-61637841D01*
X66254931Y-61693774D01*
X66228074Y-61709068D01*
X66170009Y-61733119D01*
X66169999Y-61733124D01*
X66014410Y-61837086D01*
X66014406Y-61837089D01*
X65882089Y-61969406D01*
X65882086Y-61969410D01*
X65778124Y-62124999D01*
X65778119Y-62125008D01*
X65706507Y-62297896D01*
X65706506Y-62297899D01*
X65701115Y-62324999D01*
X64318884Y-62324999D01*
X64313493Y-62297899D01*
X64313492Y-62297896D01*
X64241880Y-62125008D01*
X64241875Y-62124999D01*
X64137913Y-61969410D01*
X64137910Y-61969406D01*
X64005593Y-61837089D01*
X64005589Y-61837086D01*
X63850000Y-61733124D01*
X63849991Y-61733119D01*
X63677105Y-61661508D01*
X63677097Y-61661506D01*
X63493570Y-61625000D01*
X63250000Y-61625000D01*
X63250000Y-62275000D01*
X62750000Y-62275000D01*
X62750000Y-61625000D01*
X62624000Y-61625000D01*
X62556961Y-61605315D01*
X62511206Y-61552511D01*
X62500000Y-61501000D01*
X62500000Y-56599998D01*
X68394318Y-56599998D01*
X68394318Y-56600001D01*
X68414955Y-56756760D01*
X68414956Y-56756762D01*
X68475464Y-56902841D01*
X68571718Y-57028282D01*
X68697159Y-57124536D01*
X68843238Y-57185044D01*
X69000000Y-57205682D01*
X69000001Y-57205681D01*
X69003513Y-57206144D01*
X69067410Y-57234410D01*
X69075009Y-57241402D01*
X71563181Y-59729573D01*
X71596666Y-59790896D01*
X71599500Y-59817254D01*
X71599500Y-63693419D01*
X71579815Y-63760458D01*
X71573876Y-63768905D01*
X71475464Y-63897157D01*
X71414956Y-64043237D01*
X71414955Y-64043239D01*
X71394318Y-64199998D01*
X71394318Y-64200001D01*
X71414955Y-64356760D01*
X71414956Y-64356762D01*
X71475464Y-64502841D01*
X71571718Y-64628282D01*
X71697159Y-64724536D01*
X71843238Y-64785044D01*
X71880549Y-64789956D01*
X71999999Y-64805682D01*
X72000000Y-64805682D01*
X72000001Y-64805682D01*
X72074150Y-64795920D01*
X72156762Y-64785044D01*
X72302841Y-64724536D01*
X72428282Y-64628282D01*
X72524536Y-64502841D01*
X72585044Y-64356762D01*
X72605682Y-64200000D01*
X72605554Y-64199031D01*
X72588793Y-64071718D01*
X72585044Y-64043238D01*
X72524536Y-63897159D01*
X72524535Y-63897158D01*
X72524535Y-63897157D01*
X72426124Y-63768905D01*
X72400930Y-63703736D01*
X72400500Y-63693419D01*
X72400500Y-59662729D01*
X72400501Y-59662716D01*
X72400501Y-59547274D01*
X72387496Y-59498741D01*
X72373207Y-59445413D01*
X72373206Y-59445412D01*
X72373206Y-59445410D01*
X72373204Y-59445407D01*
X72355074Y-59414005D01*
X72355073Y-59414003D01*
X72320484Y-59354093D01*
X72320481Y-59354089D01*
X72320480Y-59354087D01*
X72245913Y-59279520D01*
X72245912Y-59279519D01*
X72241582Y-59275189D01*
X72241571Y-59275179D01*
X69641402Y-56675009D01*
X69607917Y-56613686D01*
X69606144Y-56603513D01*
X69605681Y-56599998D01*
X69585044Y-56443238D01*
X69524536Y-56297159D01*
X69428282Y-56171718D01*
X69302841Y-56075464D01*
X69156762Y-56014956D01*
X69156760Y-56014955D01*
X69000001Y-55994318D01*
X68999999Y-55994318D01*
X68843239Y-56014955D01*
X68843237Y-56014956D01*
X68697160Y-56075463D01*
X68571718Y-56171718D01*
X68475463Y-56297160D01*
X68414956Y-56443237D01*
X68414955Y-56443239D01*
X68394318Y-56599998D01*
X62500000Y-56599998D01*
X62500000Y-54999000D01*
X62519685Y-54931961D01*
X62572489Y-54886206D01*
X62624000Y-54875000D01*
X62750000Y-54875000D01*
X62750000Y-54225000D01*
X63250000Y-54225000D01*
X63250000Y-54875000D01*
X63493569Y-54875000D01*
X63493571Y-54874999D01*
X63677097Y-54838493D01*
X63677105Y-54838491D01*
X63849991Y-54766880D01*
X63850000Y-54766875D01*
X64005589Y-54662913D01*
X64005593Y-54662910D01*
X64137910Y-54530593D01*
X64137913Y-54530589D01*
X64241875Y-54375000D01*
X64241880Y-54374991D01*
X64313492Y-54202103D01*
X64313493Y-54202100D01*
X64318884Y-54175000D01*
X63566988Y-54175000D01*
X63584205Y-54165060D01*
X63640060Y-54109205D01*
X63679556Y-54040796D01*
X63700000Y-53964496D01*
X63700000Y-53885504D01*
X63679556Y-53809204D01*
X63640060Y-53740795D01*
X63584205Y-53684940D01*
X63566988Y-53675000D01*
X64318884Y-53675000D01*
X64318884Y-53674999D01*
X65701115Y-53674999D01*
X65701116Y-53675000D01*
X66453012Y-53675000D01*
X66435795Y-53684940D01*
X66379940Y-53740795D01*
X66340444Y-53809204D01*
X66320000Y-53885504D01*
X66320000Y-53964496D01*
X66340444Y-54040796D01*
X66379940Y-54109205D01*
X66435795Y-54165060D01*
X66453012Y-54175000D01*
X65701116Y-54175000D01*
X65706506Y-54202100D01*
X65706507Y-54202103D01*
X65778119Y-54374991D01*
X65778124Y-54375000D01*
X65882086Y-54530589D01*
X65882089Y-54530593D01*
X66014406Y-54662910D01*
X66014410Y-54662913D01*
X66169999Y-54766875D01*
X66170003Y-54766877D01*
X66228073Y-54790930D01*
X66282476Y-54834771D01*
X66304542Y-54901065D01*
X66287263Y-54968764D01*
X66268304Y-54993172D01*
X66239488Y-55021988D01*
X66167017Y-55147511D01*
X66167016Y-55147515D01*
X66129500Y-55287525D01*
X66129500Y-55432475D01*
X66162803Y-55556762D01*
X66167017Y-55572488D01*
X66239488Y-55698011D01*
X66239490Y-55698013D01*
X66239491Y-55698015D01*
X66341985Y-55800509D01*
X66341986Y-55800510D01*
X66341988Y-55800511D01*
X66467511Y-55872982D01*
X66467512Y-55872982D01*
X66467515Y-55872984D01*
X66607525Y-55910500D01*
X66607528Y-55910500D01*
X66752472Y-55910500D01*
X66752475Y-55910500D01*
X66892485Y-55872984D01*
X67018015Y-55800509D01*
X67120509Y-55698015D01*
X67192984Y-55572485D01*
X67230500Y-55432475D01*
X67230500Y-55287525D01*
X67192984Y-55147515D01*
X67120509Y-55021985D01*
X67018015Y-54919491D01*
X67018012Y-54919489D01*
X67018008Y-54919486D01*
X66981999Y-54898696D01*
X66933784Y-54848129D01*
X66920000Y-54791310D01*
X66920000Y-54225000D01*
X67420000Y-54225000D01*
X67420000Y-54875000D01*
X67813569Y-54875000D01*
X67813571Y-54874999D01*
X67997097Y-54838493D01*
X67997105Y-54838491D01*
X68169991Y-54766880D01*
X68170000Y-54766875D01*
X68325589Y-54662913D01*
X68325593Y-54662910D01*
X68457910Y-54530593D01*
X68457913Y-54530589D01*
X68561875Y-54375000D01*
X68561880Y-54374991D01*
X68633492Y-54202103D01*
X68633493Y-54202100D01*
X68638884Y-54175000D01*
X67886988Y-54175000D01*
X67904205Y-54165060D01*
X67960060Y-54109205D01*
X67999556Y-54040796D01*
X68020000Y-53964496D01*
X68020000Y-53885504D01*
X67999556Y-53809204D01*
X67960060Y-53740795D01*
X67904205Y-53684940D01*
X67886988Y-53675000D01*
X68638884Y-53675000D01*
X68638884Y-53674999D01*
X68633493Y-53647899D01*
X68633492Y-53647896D01*
X68561880Y-53475008D01*
X68561875Y-53474999D01*
X68457913Y-53319410D01*
X68457910Y-53319406D01*
X68325593Y-53187089D01*
X68325589Y-53187086D01*
X68170000Y-53083124D01*
X68169991Y-53083119D01*
X67997105Y-53011508D01*
X67997097Y-53011506D01*
X67813570Y-52975000D01*
X67420000Y-52975000D01*
X67420000Y-53625000D01*
X66920000Y-53625000D01*
X66920000Y-52975000D01*
X66526430Y-52975000D01*
X66342902Y-53011506D01*
X66342894Y-53011508D01*
X66170008Y-53083119D01*
X66169999Y-53083124D01*
X66014410Y-53187086D01*
X66014406Y-53187089D01*
X65882089Y-53319406D01*
X65882086Y-53319410D01*
X65778124Y-53474999D01*
X65778119Y-53475008D01*
X65706507Y-53647896D01*
X65706506Y-53647899D01*
X65701115Y-53674999D01*
X64318884Y-53674999D01*
X64313493Y-53647899D01*
X64313492Y-53647896D01*
X64241880Y-53475008D01*
X64241875Y-53474999D01*
X64137913Y-53319410D01*
X64137910Y-53319406D01*
X64005593Y-53187089D01*
X64005589Y-53187086D01*
X63850000Y-53083124D01*
X63849991Y-53083119D01*
X63677105Y-53011508D01*
X63677097Y-53011506D01*
X63493570Y-52975000D01*
X63250000Y-52975000D01*
X63250000Y-53625000D01*
X62750000Y-53625000D01*
X62750000Y-52975000D01*
X62624000Y-52975000D01*
X62556961Y-52955315D01*
X62511206Y-52902511D01*
X62500000Y-52851000D01*
X62500000Y-51307782D01*
X71649500Y-51307782D01*
X71649500Y-52997507D01*
X71649502Y-52997533D01*
X71652413Y-53022638D01*
X71652415Y-53022642D01*
X71697793Y-53125415D01*
X71697794Y-53125416D01*
X71777235Y-53204857D01*
X71880009Y-53250236D01*
X71905135Y-53253151D01*
X73594864Y-53253150D01*
X73594879Y-53253148D01*
X73594882Y-53253148D01*
X73619987Y-53250237D01*
X73619988Y-53250236D01*
X73619991Y-53250236D01*
X73722765Y-53204857D01*
X73802206Y-53125416D01*
X73847585Y-53022642D01*
X73850500Y-52997516D01*
X73850499Y-51307787D01*
X73850498Y-51307782D01*
X80399500Y-51307782D01*
X80399500Y-52997507D01*
X80399502Y-52997533D01*
X80402413Y-53022638D01*
X80402415Y-53022642D01*
X80447793Y-53125415D01*
X80447794Y-53125416D01*
X80527235Y-53204857D01*
X80630009Y-53250236D01*
X80655135Y-53253151D01*
X82344864Y-53253150D01*
X82344879Y-53253148D01*
X82344882Y-53253148D01*
X82369987Y-53250237D01*
X82369988Y-53250236D01*
X82369991Y-53250236D01*
X82472765Y-53204857D01*
X82552206Y-53125416D01*
X82597585Y-53022642D01*
X82600213Y-52999994D01*
X89994859Y-52999994D01*
X89994859Y-53000005D01*
X90015385Y-53247729D01*
X90015387Y-53247738D01*
X90076412Y-53488717D01*
X90176267Y-53716367D01*
X90276562Y-53869881D01*
X90976212Y-53170233D01*
X90987482Y-53212292D01*
X91059890Y-53337708D01*
X91162292Y-53440110D01*
X91287708Y-53512518D01*
X91329766Y-53523787D01*
X90629943Y-54223609D01*
X90676768Y-54260055D01*
X90676771Y-54260057D01*
X90895385Y-54378364D01*
X90895396Y-54378369D01*
X91130506Y-54459083D01*
X91375707Y-54500000D01*
X91624293Y-54500000D01*
X91869493Y-54459083D01*
X92104603Y-54378369D01*
X92104614Y-54378364D01*
X92323230Y-54260056D01*
X92323236Y-54260051D01*
X92370055Y-54223610D01*
X92370056Y-54223609D01*
X91670233Y-53523787D01*
X91712292Y-53512518D01*
X91837708Y-53440110D01*
X91940110Y-53337708D01*
X92012518Y-53212292D01*
X92023787Y-53170234D01*
X92723435Y-53869882D01*
X92823733Y-53716364D01*
X92923587Y-53488717D01*
X92984612Y-53247738D01*
X92984614Y-53247729D01*
X93005141Y-53000005D01*
X93005141Y-52999994D01*
X92984614Y-52752270D01*
X92984612Y-52752261D01*
X92923587Y-52511282D01*
X92823732Y-52283632D01*
X92723435Y-52130116D01*
X92023787Y-52829765D01*
X92012518Y-52787708D01*
X91940110Y-52662292D01*
X91837708Y-52559890D01*
X91712292Y-52487482D01*
X91670233Y-52476212D01*
X92370055Y-51776389D01*
X92370055Y-51776388D01*
X92323236Y-51739947D01*
X92323231Y-51739944D01*
X92104614Y-51621635D01*
X92104603Y-51621630D01*
X91869493Y-51540916D01*
X91624293Y-51500000D01*
X91375707Y-51500000D01*
X91130506Y-51540916D01*
X90895396Y-51621630D01*
X90895385Y-51621635D01*
X90676770Y-51739943D01*
X90629943Y-51776389D01*
X91329766Y-52476212D01*
X91287708Y-52487482D01*
X91162292Y-52559890D01*
X91059890Y-52662292D01*
X90987482Y-52787708D01*
X90976212Y-52829766D01*
X90276563Y-52130117D01*
X90176267Y-52283633D01*
X90176265Y-52283637D01*
X90076412Y-52511282D01*
X90015387Y-52752261D01*
X90015385Y-52752270D01*
X89994859Y-52999994D01*
X82600213Y-52999994D01*
X82600500Y-52997516D01*
X82600499Y-51307787D01*
X82600497Y-51307768D01*
X82597586Y-51282663D01*
X82597585Y-51282661D01*
X82597585Y-51282660D01*
X82552206Y-51179886D01*
X82472765Y-51100445D01*
X82472763Y-51100444D01*
X82369992Y-51055066D01*
X82344865Y-51052151D01*
X80655143Y-51052151D01*
X80655117Y-51052153D01*
X80630012Y-51055064D01*
X80630008Y-51055066D01*
X80527235Y-51100444D01*
X80447794Y-51179885D01*
X80402415Y-51282657D01*
X80402415Y-51282659D01*
X80399500Y-51307782D01*
X73850498Y-51307782D01*
X73850497Y-51307768D01*
X73847586Y-51282663D01*
X73847585Y-51282661D01*
X73847585Y-51282660D01*
X73802206Y-51179886D01*
X73722765Y-51100445D01*
X73722763Y-51100444D01*
X73619992Y-51055066D01*
X73594865Y-51052151D01*
X71905143Y-51052151D01*
X71905117Y-51052153D01*
X71880012Y-51055064D01*
X71880008Y-51055066D01*
X71777235Y-51100444D01*
X71697794Y-51179885D01*
X71652415Y-51282657D01*
X71652415Y-51282659D01*
X71649500Y-51307782D01*
X62500000Y-51307782D01*
X62500000Y-49643713D01*
X63899500Y-49643713D01*
X63899500Y-49856287D01*
X63903084Y-49878915D01*
X63932753Y-50066239D01*
X63998444Y-50268414D01*
X64094951Y-50457820D01*
X64219890Y-50629786D01*
X64370213Y-50780109D01*
X64542179Y-50905048D01*
X64542181Y-50905049D01*
X64542184Y-50905051D01*
X64731588Y-51001557D01*
X64933757Y-51067246D01*
X65143713Y-51100500D01*
X65143714Y-51100500D01*
X65356286Y-51100500D01*
X65356287Y-51100500D01*
X65566243Y-51067246D01*
X65768412Y-51001557D01*
X65957816Y-50905051D01*
X65979789Y-50889086D01*
X66129786Y-50780109D01*
X66129788Y-50780106D01*
X66129792Y-50780104D01*
X66280104Y-50629792D01*
X66280106Y-50629788D01*
X66280109Y-50629786D01*
X66405048Y-50457820D01*
X66405047Y-50457820D01*
X66405051Y-50457816D01*
X66501557Y-50268412D01*
X66567246Y-50066243D01*
X66600500Y-49856287D01*
X66600500Y-49643713D01*
X66567246Y-49433757D01*
X66501557Y-49231588D01*
X66405051Y-49042184D01*
X66405049Y-49042181D01*
X66405048Y-49042179D01*
X66280109Y-48870213D01*
X66129786Y-48719890D01*
X66037234Y-48652648D01*
X71445034Y-48652648D01*
X71445034Y-48652653D01*
X71464858Y-48879250D01*
X71464860Y-48879261D01*
X71523730Y-49098968D01*
X71523735Y-49098982D01*
X71619863Y-49305129D01*
X71670974Y-49378123D01*
X72350000Y-48699097D01*
X72350000Y-48705312D01*
X72377259Y-48807045D01*
X72429920Y-48898257D01*
X72504394Y-48972731D01*
X72595606Y-49025392D01*
X72697339Y-49052651D01*
X72703553Y-49052651D01*
X72024526Y-49731676D01*
X72097513Y-49782783D01*
X72097521Y-49782787D01*
X72303668Y-49878915D01*
X72303682Y-49878920D01*
X72523389Y-49937790D01*
X72523400Y-49937792D01*
X72749998Y-49957617D01*
X72750002Y-49957617D01*
X72976599Y-49937792D01*
X72976610Y-49937790D01*
X73196317Y-49878920D01*
X73196331Y-49878915D01*
X73402478Y-49782787D01*
X73475471Y-49731675D01*
X72796447Y-49052651D01*
X72802661Y-49052651D01*
X72904394Y-49025392D01*
X72995606Y-48972731D01*
X73070080Y-48898257D01*
X73122741Y-48807045D01*
X73150000Y-48705312D01*
X73150000Y-48699098D01*
X73829024Y-49378122D01*
X73880136Y-49305129D01*
X73976264Y-49098982D01*
X73976269Y-49098968D01*
X74035139Y-48879261D01*
X74035141Y-48879250D01*
X74054966Y-48652653D01*
X74054966Y-48652648D01*
X80195034Y-48652648D01*
X80195034Y-48652653D01*
X80214858Y-48879250D01*
X80214860Y-48879261D01*
X80273730Y-49098968D01*
X80273735Y-49098982D01*
X80369863Y-49305129D01*
X80420974Y-49378123D01*
X81100000Y-48699097D01*
X81100000Y-48705312D01*
X81127259Y-48807045D01*
X81179920Y-48898257D01*
X81254394Y-48972731D01*
X81345606Y-49025392D01*
X81447339Y-49052651D01*
X81453553Y-49052651D01*
X80774526Y-49731676D01*
X80847513Y-49782783D01*
X80847521Y-49782787D01*
X81053668Y-49878915D01*
X81053682Y-49878920D01*
X81273389Y-49937790D01*
X81273400Y-49937792D01*
X81499998Y-49957617D01*
X81500002Y-49957617D01*
X81726599Y-49937792D01*
X81726610Y-49937790D01*
X81946317Y-49878920D01*
X81946331Y-49878915D01*
X82152478Y-49782787D01*
X82225471Y-49731675D01*
X81546447Y-49052651D01*
X81552661Y-49052651D01*
X81654394Y-49025392D01*
X81745606Y-48972731D01*
X81820080Y-48898257D01*
X81872741Y-48807045D01*
X81900000Y-48705312D01*
X81900000Y-48699098D01*
X82579024Y-49378122D01*
X82630136Y-49305129D01*
X82726264Y-49098982D01*
X82726269Y-49098968D01*
X82785139Y-48879261D01*
X82785141Y-48879250D01*
X82804966Y-48652653D01*
X82804966Y-48652648D01*
X82791611Y-48499998D01*
X90194532Y-48499998D01*
X90194532Y-48500001D01*
X90214364Y-48726686D01*
X90214366Y-48726697D01*
X90273258Y-48946488D01*
X90273261Y-48946497D01*
X90369431Y-49152732D01*
X90369432Y-49152734D01*
X90499954Y-49339141D01*
X90660858Y-49500045D01*
X90660861Y-49500047D01*
X90847266Y-49630568D01*
X91053504Y-49726739D01*
X91053509Y-49726740D01*
X91053511Y-49726741D01*
X91071601Y-49731588D01*
X91273308Y-49785635D01*
X91435230Y-49799801D01*
X91499998Y-49805468D01*
X91500000Y-49805468D01*
X91500002Y-49805468D01*
X91556673Y-49800509D01*
X91726692Y-49785635D01*
X91946496Y-49726739D01*
X92152734Y-49630568D01*
X92339139Y-49500047D01*
X92500047Y-49339139D01*
X92630568Y-49152734D01*
X92726739Y-48946496D01*
X92785635Y-48726692D01*
X92805468Y-48500000D01*
X92805468Y-48499998D01*
X96694532Y-48499998D01*
X96694532Y-48500001D01*
X96714364Y-48726686D01*
X96714366Y-48726697D01*
X96773258Y-48946488D01*
X96773261Y-48946497D01*
X96869431Y-49152732D01*
X96869432Y-49152734D01*
X96999954Y-49339141D01*
X97160858Y-49500045D01*
X97160861Y-49500047D01*
X97347266Y-49630568D01*
X97553504Y-49726739D01*
X97553509Y-49726740D01*
X97553511Y-49726741D01*
X97571601Y-49731588D01*
X97773308Y-49785635D01*
X97935230Y-49799801D01*
X97999998Y-49805468D01*
X98000000Y-49805468D01*
X98000002Y-49805468D01*
X98056673Y-49800509D01*
X98226692Y-49785635D01*
X98446496Y-49726739D01*
X98652734Y-49630568D01*
X98839139Y-49500047D01*
X99000047Y-49339139D01*
X99130568Y-49152734D01*
X99226739Y-48946496D01*
X99285635Y-48726692D01*
X99305468Y-48500000D01*
X99305467Y-48499994D01*
X99291269Y-48337708D01*
X99285635Y-48273308D01*
X99234629Y-48082951D01*
X99226741Y-48053511D01*
X99226738Y-48053502D01*
X99201866Y-48000164D01*
X99157551Y-47905131D01*
X115249500Y-47905131D01*
X115249500Y-49694856D01*
X115249502Y-49694882D01*
X115252413Y-49719987D01*
X115252415Y-49719991D01*
X115297793Y-49822764D01*
X115297794Y-49822765D01*
X115377235Y-49902206D01*
X115480009Y-49947585D01*
X115505135Y-49950500D01*
X117294864Y-49950499D01*
X117294879Y-49950497D01*
X117294882Y-49950497D01*
X117319987Y-49947586D01*
X117319988Y-49947585D01*
X117319991Y-49947585D01*
X117422765Y-49902206D01*
X117502206Y-49822765D01*
X117547585Y-49719991D01*
X117550500Y-49694865D01*
X117550499Y-49562516D01*
X117570183Y-49495480D01*
X117622987Y-49449725D01*
X117692145Y-49439781D01*
X117755701Y-49468805D01*
X117776073Y-49491395D01*
X117901890Y-49671078D01*
X118068917Y-49838105D01*
X118262421Y-49973600D01*
X118476507Y-50073429D01*
X118476516Y-50073433D01*
X118690000Y-50130634D01*
X118690000Y-49233012D01*
X118747007Y-49265925D01*
X118874174Y-49300000D01*
X119005826Y-49300000D01*
X119132993Y-49265925D01*
X119190000Y-49233012D01*
X119190000Y-50130633D01*
X119403483Y-50073433D01*
X119403492Y-50073429D01*
X119617578Y-49973600D01*
X119811082Y-49838105D01*
X119978105Y-49671082D01*
X120113600Y-49477578D01*
X120213429Y-49263492D01*
X120213432Y-49263486D01*
X120270636Y-49050000D01*
X119373012Y-49050000D01*
X119405925Y-48992993D01*
X119440000Y-48865826D01*
X119440000Y-48734174D01*
X119405925Y-48607007D01*
X119373012Y-48550000D01*
X120270636Y-48550000D01*
X120270635Y-48549999D01*
X120270634Y-48549994D01*
X126644859Y-48549994D01*
X126644859Y-48550000D01*
X126665385Y-48797729D01*
X126665387Y-48797738D01*
X126726412Y-49038717D01*
X126826267Y-49266367D01*
X126926562Y-49419881D01*
X127626212Y-48720233D01*
X127637482Y-48762292D01*
X127709890Y-48887708D01*
X127812292Y-48990110D01*
X127937708Y-49062518D01*
X127979766Y-49073787D01*
X127279943Y-49773609D01*
X127326768Y-49810055D01*
X127326771Y-49810057D01*
X127545385Y-49928364D01*
X127545396Y-49928369D01*
X127780506Y-50009083D01*
X128025707Y-50050000D01*
X128274293Y-50050000D01*
X128519493Y-50009083D01*
X128754603Y-49928369D01*
X128754614Y-49928364D01*
X128973230Y-49810056D01*
X128973236Y-49810051D01*
X129020055Y-49773610D01*
X129020056Y-49773609D01*
X128320233Y-49073787D01*
X128362292Y-49062518D01*
X128487708Y-48990110D01*
X128590110Y-48887708D01*
X128662518Y-48762292D01*
X128673787Y-48720234D01*
X129373435Y-49419882D01*
X129473733Y-49266364D01*
X129573587Y-49038717D01*
X129634612Y-48797738D01*
X129634614Y-48797729D01*
X129655141Y-48550000D01*
X129655141Y-48549994D01*
X133144859Y-48549994D01*
X133144859Y-48550000D01*
X133165385Y-48797729D01*
X133165387Y-48797738D01*
X133226412Y-49038717D01*
X133326267Y-49266367D01*
X133426562Y-49419881D01*
X134126212Y-48720233D01*
X134137482Y-48762292D01*
X134209890Y-48887708D01*
X134312292Y-48990110D01*
X134437708Y-49062518D01*
X134479766Y-49073787D01*
X133779943Y-49773609D01*
X133826768Y-49810055D01*
X133826771Y-49810057D01*
X134045385Y-49928364D01*
X134045396Y-49928369D01*
X134280506Y-50009083D01*
X134525707Y-50050000D01*
X134774293Y-50050000D01*
X135019493Y-50009083D01*
X135254603Y-49928369D01*
X135254614Y-49928364D01*
X135473230Y-49810056D01*
X135473236Y-49810051D01*
X135520055Y-49773610D01*
X135520056Y-49773609D01*
X134820233Y-49073787D01*
X134862292Y-49062518D01*
X134987708Y-48990110D01*
X135090110Y-48887708D01*
X135162518Y-48762292D01*
X135173787Y-48720234D01*
X135873435Y-49419882D01*
X135973733Y-49266364D01*
X136073587Y-49038717D01*
X136134612Y-48797738D01*
X136134614Y-48797729D01*
X136155141Y-48550000D01*
X136155141Y-48549994D01*
X136150998Y-48499994D01*
X137044859Y-48499994D01*
X137044859Y-48500005D01*
X137065385Y-48747729D01*
X137065387Y-48747738D01*
X137126412Y-48988717D01*
X137226267Y-49216367D01*
X137326562Y-49369881D01*
X138026212Y-48670233D01*
X138037482Y-48712292D01*
X138109890Y-48837708D01*
X138212292Y-48940110D01*
X138337708Y-49012518D01*
X138379766Y-49023787D01*
X137679943Y-49723609D01*
X137726768Y-49760055D01*
X137726771Y-49760057D01*
X137945385Y-49878364D01*
X137945396Y-49878369D01*
X138180506Y-49959083D01*
X138425707Y-50000000D01*
X138674293Y-50000000D01*
X138919493Y-49959083D01*
X139154603Y-49878369D01*
X139154614Y-49878364D01*
X139373230Y-49760056D01*
X139373236Y-49760051D01*
X139420055Y-49723610D01*
X139420056Y-49723609D01*
X138720233Y-49023787D01*
X138762292Y-49012518D01*
X138887708Y-48940110D01*
X138990110Y-48837708D01*
X139062518Y-48712292D01*
X139073787Y-48670234D01*
X139773435Y-49369882D01*
X139873733Y-49216364D01*
X139973587Y-48988717D01*
X140034612Y-48747738D01*
X140034614Y-48747729D01*
X140055141Y-48500005D01*
X140055141Y-48499994D01*
X143544859Y-48499994D01*
X143544859Y-48500005D01*
X143565385Y-48747729D01*
X143565387Y-48747738D01*
X143626412Y-48988717D01*
X143726267Y-49216367D01*
X143826562Y-49369881D01*
X144526212Y-48670233D01*
X144537482Y-48712292D01*
X144609890Y-48837708D01*
X144712292Y-48940110D01*
X144837708Y-49012518D01*
X144879766Y-49023787D01*
X144179943Y-49723609D01*
X144226768Y-49760055D01*
X144226771Y-49760057D01*
X144445385Y-49878364D01*
X144445396Y-49878369D01*
X144680506Y-49959083D01*
X144925707Y-50000000D01*
X145174293Y-50000000D01*
X145419493Y-49959083D01*
X145654603Y-49878369D01*
X145654614Y-49878364D01*
X145873230Y-49760056D01*
X145873236Y-49760051D01*
X145920055Y-49723610D01*
X145920056Y-49723609D01*
X145220233Y-49023787D01*
X145262292Y-49012518D01*
X145387708Y-48940110D01*
X145490110Y-48837708D01*
X145562518Y-48712292D01*
X145573787Y-48670234D01*
X146273435Y-49369882D01*
X146373733Y-49216364D01*
X146473587Y-48988717D01*
X146534612Y-48747738D01*
X146534614Y-48747729D01*
X146555141Y-48500005D01*
X146555141Y-48499994D01*
X146534614Y-48252270D01*
X146534612Y-48252261D01*
X146473587Y-48011282D01*
X146373732Y-47783632D01*
X146273435Y-47630116D01*
X145573787Y-48329765D01*
X145562518Y-48287708D01*
X145490110Y-48162292D01*
X145387708Y-48059890D01*
X145262292Y-47987482D01*
X145220233Y-47976212D01*
X145622524Y-47573920D01*
X155599499Y-47573920D01*
X155628340Y-47718907D01*
X155628343Y-47718917D01*
X155684912Y-47855488D01*
X155684919Y-47855501D01*
X155767048Y-47978415D01*
X155767051Y-47978419D01*
X155871580Y-48082948D01*
X155871584Y-48082951D01*
X155994498Y-48165080D01*
X155994511Y-48165087D01*
X156094055Y-48206319D01*
X156131087Y-48221658D01*
X156131091Y-48221658D01*
X156131092Y-48221659D01*
X156276079Y-48250500D01*
X156276082Y-48250500D01*
X156423920Y-48250500D01*
X156521462Y-48231096D01*
X156568913Y-48221658D01*
X156705495Y-48165084D01*
X156828416Y-48082951D01*
X156932951Y-47978416D01*
X157015084Y-47855495D01*
X157071658Y-47718913D01*
X157085465Y-47649501D01*
X157100500Y-47573920D01*
X163599499Y-47573920D01*
X163628340Y-47718907D01*
X163628343Y-47718917D01*
X163684912Y-47855488D01*
X163684919Y-47855501D01*
X163767048Y-47978415D01*
X163767051Y-47978419D01*
X163871580Y-48082948D01*
X163871584Y-48082951D01*
X163994498Y-48165080D01*
X163994511Y-48165087D01*
X164094055Y-48206319D01*
X164131087Y-48221658D01*
X164131091Y-48221658D01*
X164131092Y-48221659D01*
X164276079Y-48250500D01*
X164276082Y-48250500D01*
X164423920Y-48250500D01*
X164521462Y-48231096D01*
X164568913Y-48221658D01*
X164705495Y-48165084D01*
X164828416Y-48082951D01*
X164932951Y-47978416D01*
X165015084Y-47855495D01*
X165071658Y-47718913D01*
X165085465Y-47649501D01*
X165100500Y-47573920D01*
X165100500Y-47426079D01*
X165071659Y-47281092D01*
X165071658Y-47281091D01*
X165071658Y-47281087D01*
X165054616Y-47239943D01*
X165015087Y-47144511D01*
X165015080Y-47144498D01*
X164932951Y-47021584D01*
X164932948Y-47021580D01*
X164828419Y-46917051D01*
X164828415Y-46917048D01*
X164705501Y-46834919D01*
X164705488Y-46834912D01*
X164568917Y-46778343D01*
X164568907Y-46778340D01*
X164423920Y-46749500D01*
X164423918Y-46749500D01*
X164276082Y-46749500D01*
X164276080Y-46749500D01*
X164131092Y-46778340D01*
X164131082Y-46778343D01*
X163994511Y-46834912D01*
X163994498Y-46834919D01*
X163871584Y-46917048D01*
X163871580Y-46917051D01*
X163767051Y-47021580D01*
X163767048Y-47021584D01*
X163684919Y-47144498D01*
X163684912Y-47144511D01*
X163628343Y-47281082D01*
X163628340Y-47281092D01*
X163599500Y-47426079D01*
X163599500Y-47426082D01*
X163599500Y-47573918D01*
X163599500Y-47573920D01*
X163599499Y-47573920D01*
X157100500Y-47573920D01*
X157100500Y-47426079D01*
X157071659Y-47281092D01*
X157071658Y-47281091D01*
X157071658Y-47281087D01*
X157054616Y-47239943D01*
X157015087Y-47144511D01*
X157015080Y-47144498D01*
X156932951Y-47021584D01*
X156932948Y-47021580D01*
X156828419Y-46917051D01*
X156828415Y-46917048D01*
X156705501Y-46834919D01*
X156705488Y-46834912D01*
X156568917Y-46778343D01*
X156568907Y-46778340D01*
X156423920Y-46749500D01*
X156423918Y-46749500D01*
X156276082Y-46749500D01*
X156276080Y-46749500D01*
X156131092Y-46778340D01*
X156131082Y-46778343D01*
X155994511Y-46834912D01*
X155994498Y-46834919D01*
X155871584Y-46917048D01*
X155871580Y-46917051D01*
X155767051Y-47021580D01*
X155767048Y-47021584D01*
X155684919Y-47144498D01*
X155684912Y-47144511D01*
X155628343Y-47281082D01*
X155628340Y-47281092D01*
X155599500Y-47426079D01*
X155599500Y-47426082D01*
X155599500Y-47573918D01*
X155599500Y-47573920D01*
X155599499Y-47573920D01*
X145622524Y-47573920D01*
X145920055Y-47276389D01*
X145920055Y-47276388D01*
X145873236Y-47239947D01*
X145873231Y-47239944D01*
X145654614Y-47121635D01*
X145654603Y-47121630D01*
X145419493Y-47040916D01*
X145174293Y-47000000D01*
X144925707Y-47000000D01*
X144680506Y-47040916D01*
X144445396Y-47121630D01*
X144445385Y-47121635D01*
X144226770Y-47239943D01*
X144179943Y-47276389D01*
X144879766Y-47976212D01*
X144837708Y-47987482D01*
X144712292Y-48059890D01*
X144609890Y-48162292D01*
X144537482Y-48287708D01*
X144526212Y-48329766D01*
X143826563Y-47630117D01*
X143726267Y-47783633D01*
X143726265Y-47783637D01*
X143626412Y-48011282D01*
X143565387Y-48252261D01*
X143565385Y-48252270D01*
X143544859Y-48499994D01*
X140055141Y-48499994D01*
X140034614Y-48252270D01*
X140034612Y-48252261D01*
X139973587Y-48011282D01*
X139873732Y-47783632D01*
X139773435Y-47630116D01*
X139073787Y-48329765D01*
X139062518Y-48287708D01*
X138990110Y-48162292D01*
X138887708Y-48059890D01*
X138762292Y-47987482D01*
X138720233Y-47976212D01*
X139420055Y-47276389D01*
X139420055Y-47276388D01*
X139373236Y-47239947D01*
X139373231Y-47239944D01*
X139154614Y-47121635D01*
X139154603Y-47121630D01*
X138919493Y-47040916D01*
X138674293Y-47000000D01*
X138425707Y-47000000D01*
X138180506Y-47040916D01*
X137945396Y-47121630D01*
X137945385Y-47121635D01*
X137726770Y-47239943D01*
X137679943Y-47276389D01*
X138379766Y-47976212D01*
X138337708Y-47987482D01*
X138212292Y-48059890D01*
X138109890Y-48162292D01*
X138037482Y-48287708D01*
X138026212Y-48329766D01*
X137326563Y-47630117D01*
X137226267Y-47783633D01*
X137226265Y-47783637D01*
X137126412Y-48011282D01*
X137065387Y-48252261D01*
X137065385Y-48252270D01*
X137044859Y-48499994D01*
X136150998Y-48499994D01*
X136134614Y-48302270D01*
X136134612Y-48302261D01*
X136073587Y-48061282D01*
X135973732Y-47833632D01*
X135873435Y-47680116D01*
X135173787Y-48379765D01*
X135162518Y-48337708D01*
X135090110Y-48212292D01*
X134987708Y-48109890D01*
X134862292Y-48037482D01*
X134820233Y-48026212D01*
X135520055Y-47326389D01*
X135520055Y-47326388D01*
X135473236Y-47289947D01*
X135473231Y-47289944D01*
X135254614Y-47171635D01*
X135254603Y-47171630D01*
X135019493Y-47090916D01*
X134774293Y-47050000D01*
X134525707Y-47050000D01*
X134280506Y-47090916D01*
X134045396Y-47171630D01*
X134045385Y-47171635D01*
X133826770Y-47289943D01*
X133779943Y-47326389D01*
X134479766Y-48026212D01*
X134437708Y-48037482D01*
X134312292Y-48109890D01*
X134209890Y-48212292D01*
X134137482Y-48337708D01*
X134126212Y-48379766D01*
X133426563Y-47680117D01*
X133326267Y-47833633D01*
X133326265Y-47833637D01*
X133226412Y-48061282D01*
X133165387Y-48302261D01*
X133165385Y-48302270D01*
X133144859Y-48549994D01*
X129655141Y-48549994D01*
X129634614Y-48302270D01*
X129634612Y-48302261D01*
X129573587Y-48061282D01*
X129473732Y-47833632D01*
X129373435Y-47680116D01*
X128673787Y-48379765D01*
X128662518Y-48337708D01*
X128590110Y-48212292D01*
X128487708Y-48109890D01*
X128362292Y-48037482D01*
X128320233Y-48026212D01*
X129020055Y-47326389D01*
X129020055Y-47326388D01*
X128973236Y-47289947D01*
X128973231Y-47289944D01*
X128754614Y-47171635D01*
X128754603Y-47171630D01*
X128519493Y-47090916D01*
X128274293Y-47050000D01*
X128025707Y-47050000D01*
X127780506Y-47090916D01*
X127545396Y-47171630D01*
X127545385Y-47171635D01*
X127326770Y-47289943D01*
X127279943Y-47326389D01*
X127979766Y-48026212D01*
X127937708Y-48037482D01*
X127812292Y-48109890D01*
X127709890Y-48212292D01*
X127637482Y-48337708D01*
X127626212Y-48379766D01*
X126926563Y-47680117D01*
X126826267Y-47833633D01*
X126826265Y-47833637D01*
X126726412Y-48061282D01*
X126665387Y-48302261D01*
X126665385Y-48302270D01*
X126644859Y-48549994D01*
X120270634Y-48549994D01*
X120213432Y-48336513D01*
X120213429Y-48336507D01*
X120113600Y-48122422D01*
X120113599Y-48122420D01*
X119978113Y-47928926D01*
X119978108Y-47928920D01*
X119811082Y-47761894D01*
X119617578Y-47626399D01*
X119403492Y-47526570D01*
X119403486Y-47526567D01*
X119190000Y-47469364D01*
X119190000Y-48366988D01*
X119132993Y-48334075D01*
X119005826Y-48300000D01*
X118874174Y-48300000D01*
X118747007Y-48334075D01*
X118690000Y-48366988D01*
X118690000Y-47469364D01*
X118689999Y-47469364D01*
X118476513Y-47526567D01*
X118476507Y-47526570D01*
X118262422Y-47626399D01*
X118262420Y-47626400D01*
X118068926Y-47761886D01*
X118068920Y-47761891D01*
X117901891Y-47928920D01*
X117901890Y-47928922D01*
X117776074Y-48108606D01*
X117721497Y-48152230D01*
X117651998Y-48159423D01*
X117589644Y-48127901D01*
X117554230Y-48067671D01*
X117550499Y-48037482D01*
X117550499Y-47905143D01*
X117550499Y-47905136D01*
X117550497Y-47905117D01*
X117547586Y-47880012D01*
X117547585Y-47880010D01*
X117547585Y-47880009D01*
X117502206Y-47777235D01*
X117422765Y-47697794D01*
X117422763Y-47697793D01*
X117319992Y-47652415D01*
X117294865Y-47649500D01*
X115505143Y-47649500D01*
X115505117Y-47649502D01*
X115480012Y-47652413D01*
X115480008Y-47652415D01*
X115377235Y-47697793D01*
X115297794Y-47777234D01*
X115252415Y-47880006D01*
X115252415Y-47880008D01*
X115249500Y-47905131D01*
X99157551Y-47905131D01*
X99130568Y-47847266D01*
X99000047Y-47660861D01*
X99000045Y-47660858D01*
X98839141Y-47499954D01*
X98652734Y-47369432D01*
X98652732Y-47369431D01*
X98446497Y-47273261D01*
X98446488Y-47273258D01*
X98226697Y-47214366D01*
X98226693Y-47214365D01*
X98226692Y-47214365D01*
X98226691Y-47214364D01*
X98226686Y-47214364D01*
X98000002Y-47194532D01*
X97999998Y-47194532D01*
X97773313Y-47214364D01*
X97773302Y-47214366D01*
X97553511Y-47273258D01*
X97553502Y-47273261D01*
X97347267Y-47369431D01*
X97347265Y-47369432D01*
X97160858Y-47499954D01*
X96999954Y-47660858D01*
X96869432Y-47847265D01*
X96869431Y-47847267D01*
X96773261Y-48053502D01*
X96773258Y-48053511D01*
X96714366Y-48273302D01*
X96714364Y-48273313D01*
X96694532Y-48499998D01*
X92805468Y-48499998D01*
X92805467Y-48499994D01*
X92791269Y-48337708D01*
X92785635Y-48273308D01*
X92734629Y-48082951D01*
X92726741Y-48053511D01*
X92726738Y-48053502D01*
X92701866Y-48000164D01*
X92630568Y-47847266D01*
X92500047Y-47660861D01*
X92500045Y-47660858D01*
X92339141Y-47499954D01*
X92152734Y-47369432D01*
X92152732Y-47369431D01*
X91946497Y-47273261D01*
X91946488Y-47273258D01*
X91726697Y-47214366D01*
X91726693Y-47214365D01*
X91726692Y-47214365D01*
X91726691Y-47214364D01*
X91726686Y-47214364D01*
X91500002Y-47194532D01*
X91499998Y-47194532D01*
X91273313Y-47214364D01*
X91273302Y-47214366D01*
X91053511Y-47273258D01*
X91053502Y-47273261D01*
X90847267Y-47369431D01*
X90847265Y-47369432D01*
X90660858Y-47499954D01*
X90499954Y-47660858D01*
X90369432Y-47847265D01*
X90369431Y-47847267D01*
X90273261Y-48053502D01*
X90273258Y-48053511D01*
X90214366Y-48273302D01*
X90214364Y-48273313D01*
X90194532Y-48499998D01*
X82791611Y-48499998D01*
X82785141Y-48426051D01*
X82785139Y-48426040D01*
X82726269Y-48206333D01*
X82726264Y-48206319D01*
X82630136Y-48000172D01*
X82630132Y-48000164D01*
X82579025Y-47927177D01*
X81900000Y-48606202D01*
X81900000Y-48599990D01*
X81872741Y-48498257D01*
X81820080Y-48407045D01*
X81745606Y-48332571D01*
X81654394Y-48279910D01*
X81552661Y-48252651D01*
X81546445Y-48252651D01*
X82225472Y-47573625D01*
X82152478Y-47522514D01*
X81946331Y-47426386D01*
X81946317Y-47426381D01*
X81726610Y-47367511D01*
X81726599Y-47367509D01*
X81500002Y-47347685D01*
X81499998Y-47347685D01*
X81273400Y-47367509D01*
X81273389Y-47367511D01*
X81053682Y-47426381D01*
X81053673Y-47426385D01*
X80847516Y-47522517D01*
X80847512Y-47522519D01*
X80774526Y-47573624D01*
X80774526Y-47573625D01*
X81453553Y-48252651D01*
X81447339Y-48252651D01*
X81345606Y-48279910D01*
X81254394Y-48332571D01*
X81179920Y-48407045D01*
X81127259Y-48498257D01*
X81100000Y-48599990D01*
X81100000Y-48606203D01*
X80420974Y-47927177D01*
X80420973Y-47927177D01*
X80369868Y-48000163D01*
X80369866Y-48000167D01*
X80273734Y-48206324D01*
X80273730Y-48206333D01*
X80214860Y-48426040D01*
X80214858Y-48426051D01*
X80195034Y-48652648D01*
X74054966Y-48652648D01*
X74035141Y-48426051D01*
X74035139Y-48426040D01*
X73976269Y-48206333D01*
X73976264Y-48206319D01*
X73880136Y-48000172D01*
X73880132Y-48000164D01*
X73829025Y-47927177D01*
X73150000Y-48606202D01*
X73150000Y-48599990D01*
X73122741Y-48498257D01*
X73070080Y-48407045D01*
X72995606Y-48332571D01*
X72904394Y-48279910D01*
X72802661Y-48252651D01*
X72796445Y-48252651D01*
X73475472Y-47573625D01*
X73402478Y-47522514D01*
X73196331Y-47426386D01*
X73196317Y-47426381D01*
X72976610Y-47367511D01*
X72976599Y-47367509D01*
X72750002Y-47347685D01*
X72749998Y-47347685D01*
X72523400Y-47367509D01*
X72523389Y-47367511D01*
X72303682Y-47426381D01*
X72303673Y-47426385D01*
X72097516Y-47522517D01*
X72097512Y-47522519D01*
X72024526Y-47573624D01*
X72024526Y-47573625D01*
X72703553Y-48252651D01*
X72697339Y-48252651D01*
X72595606Y-48279910D01*
X72504394Y-48332571D01*
X72429920Y-48407045D01*
X72377259Y-48498257D01*
X72350000Y-48599990D01*
X72350000Y-48606203D01*
X71670974Y-47927177D01*
X71670973Y-47927177D01*
X71619868Y-48000163D01*
X71619866Y-48000167D01*
X71523734Y-48206324D01*
X71523730Y-48206333D01*
X71464860Y-48426040D01*
X71464858Y-48426051D01*
X71445034Y-48652648D01*
X66037234Y-48652648D01*
X65957820Y-48594951D01*
X65768414Y-48498444D01*
X65768413Y-48498443D01*
X65768412Y-48498443D01*
X65566243Y-48432754D01*
X65566241Y-48432753D01*
X65566240Y-48432753D01*
X65403924Y-48407045D01*
X65356287Y-48399500D01*
X65143713Y-48399500D01*
X65096076Y-48407045D01*
X64933760Y-48432753D01*
X64933757Y-48432754D01*
X64732161Y-48498257D01*
X64731585Y-48498444D01*
X64542179Y-48594951D01*
X64370213Y-48719890D01*
X64219890Y-48870213D01*
X64094951Y-49042179D01*
X63998444Y-49231585D01*
X63932753Y-49433760D01*
X63913272Y-49556760D01*
X63899500Y-49643713D01*
X62500000Y-49643713D01*
X62500000Y-46624500D01*
X62519685Y-46557461D01*
X62572489Y-46511706D01*
X62624000Y-46500500D01*
X172876000Y-46500500D01*
X172943039Y-46520185D01*
G37*
%TD.AperFunction*%
%TA.AperFunction,Conductor*%
G36*
X111796961Y-61620185D02*
G01*
X111842716Y-61672989D01*
X111852660Y-61742147D01*
X111844483Y-61771952D01*
X111814957Y-61843234D01*
X111814955Y-61843239D01*
X111794318Y-61999998D01*
X111794318Y-62000001D01*
X111814955Y-62156760D01*
X111814956Y-62156762D01*
X111866055Y-62280127D01*
X111875464Y-62302841D01*
X111971718Y-62428282D01*
X112097159Y-62524536D01*
X112243238Y-62585044D01*
X112400000Y-62605682D01*
X112400001Y-62605681D01*
X112403513Y-62606144D01*
X112467410Y-62634410D01*
X112475009Y-62641402D01*
X112563181Y-62729574D01*
X112596666Y-62790897D01*
X112599500Y-62817255D01*
X112599500Y-65547273D01*
X112599500Y-65652727D01*
X112604570Y-65671650D01*
X112626793Y-65754589D01*
X112645615Y-65787188D01*
X112679520Y-65845913D01*
X112679522Y-65845915D01*
X115421426Y-68587819D01*
X115454911Y-68649142D01*
X115449927Y-68718834D01*
X115408055Y-68774767D01*
X115342591Y-68799184D01*
X115333745Y-68799500D01*
X111665784Y-68799500D01*
X111598745Y-68779815D01*
X111578103Y-68763181D01*
X111494444Y-68679522D01*
X111494442Y-68679520D01*
X111448779Y-68653156D01*
X111403118Y-68626793D01*
X111322234Y-68605121D01*
X111301256Y-68599500D01*
X111301255Y-68599500D01*
X110870078Y-68599500D01*
X110803039Y-68579815D01*
X110757284Y-68527011D01*
X110747340Y-68457853D01*
X110755517Y-68428048D01*
X110782386Y-68363178D01*
X110785044Y-68356762D01*
X110799990Y-68243237D01*
X110805682Y-68200001D01*
X110805682Y-68199998D01*
X110785044Y-68043239D01*
X110785044Y-68043238D01*
X110724536Y-67897159D01*
X110628282Y-67771718D01*
X110502841Y-67675464D01*
X110356762Y-67614956D01*
X110286319Y-67605682D01*
X110196485Y-67593855D01*
X110132589Y-67565588D01*
X110124990Y-67558597D01*
X108178574Y-65612181D01*
X108145089Y-65550858D01*
X108150073Y-65481166D01*
X108191945Y-65425233D01*
X108257409Y-65400816D01*
X108266255Y-65400500D01*
X110693420Y-65400500D01*
X110760459Y-65420185D01*
X110768907Y-65426124D01*
X110771716Y-65428279D01*
X110771718Y-65428282D01*
X110897159Y-65524536D01*
X111043238Y-65585044D01*
X111121619Y-65595363D01*
X111199999Y-65605682D01*
X111200000Y-65605682D01*
X111200001Y-65605682D01*
X111252254Y-65598802D01*
X111356762Y-65585044D01*
X111502841Y-65524536D01*
X111628282Y-65428282D01*
X111724536Y-65302841D01*
X111785044Y-65156762D01*
X111805682Y-65000000D01*
X111799637Y-64954087D01*
X111785044Y-64843239D01*
X111785044Y-64843238D01*
X111724536Y-64697159D01*
X111628282Y-64571718D01*
X111502841Y-64475464D01*
X111478037Y-64465190D01*
X111356762Y-64414956D01*
X111356760Y-64414955D01*
X111200001Y-64394318D01*
X111199999Y-64394318D01*
X111043239Y-64414955D01*
X111043237Y-64414956D01*
X110897160Y-64475463D01*
X110897159Y-64475464D01*
X110771718Y-64571718D01*
X110771716Y-64571720D01*
X110768907Y-64573876D01*
X110703737Y-64599070D01*
X110693420Y-64599500D01*
X104817255Y-64599500D01*
X104750216Y-64579815D01*
X104729574Y-64563181D01*
X102142799Y-61976406D01*
X102109314Y-61915083D01*
X102114298Y-61845391D01*
X102156170Y-61789458D01*
X102183026Y-61774164D01*
X102302841Y-61724536D01*
X102428282Y-61628282D01*
X102428283Y-61628279D01*
X102431093Y-61626124D01*
X102496263Y-61600930D01*
X102506580Y-61600500D01*
X111729922Y-61600500D01*
X111796961Y-61620185D01*
G37*
%TD.AperFunction*%
%TA.AperFunction,Conductor*%
G36*
X131346227Y-66395185D02*
G01*
X131391982Y-66447989D01*
X131402126Y-66515685D01*
X131396287Y-66560043D01*
X131394318Y-66575000D01*
X131394318Y-66575001D01*
X131414955Y-66731760D01*
X131414957Y-66731764D01*
X131416022Y-66734336D01*
X131416273Y-66736678D01*
X131417060Y-66739613D01*
X131416602Y-66739735D01*
X131423488Y-66803805D01*
X131392211Y-66866283D01*
X131389140Y-66869465D01*
X130500008Y-67758597D01*
X130438685Y-67792082D01*
X130428513Y-67793855D01*
X130268238Y-67814956D01*
X130268237Y-67814956D01*
X130122160Y-67875463D01*
X129996718Y-67971718D01*
X129900463Y-68097160D01*
X129839956Y-68243237D01*
X129839955Y-68243239D01*
X129821287Y-68385044D01*
X129819318Y-68400000D01*
X129826934Y-68457853D01*
X129827127Y-68459314D01*
X129816362Y-68528350D01*
X129769982Y-68580606D01*
X129704188Y-68599500D01*
X128563844Y-68599500D01*
X128458390Y-68599500D01*
X128387546Y-68618481D01*
X128317698Y-68616819D01*
X128259836Y-68577656D01*
X128257079Y-68574193D01*
X128183842Y-68478748D01*
X128120255Y-68429956D01*
X128058400Y-68382493D01*
X128049764Y-68378916D01*
X127912321Y-68321985D01*
X127912319Y-68321984D01*
X127755560Y-68301347D01*
X127755558Y-68301347D01*
X127598798Y-68321984D01*
X127598796Y-68321985D01*
X127452719Y-68382492D01*
X127327277Y-68478747D01*
X127231022Y-68604189D01*
X127196171Y-68688329D01*
X127186300Y-68712160D01*
X127181829Y-68722953D01*
X127137988Y-68777356D01*
X127071694Y-68799421D01*
X127067268Y-68799500D01*
X124507416Y-68799500D01*
X124440377Y-68779815D01*
X124394622Y-68727011D01*
X124384678Y-68657853D01*
X124409039Y-68600014D01*
X124493361Y-68490125D01*
X124548830Y-68356209D01*
X124567750Y-68212500D01*
X124548830Y-68068791D01*
X124493361Y-67934875D01*
X124405121Y-67819879D01*
X124290125Y-67731639D01*
X124290124Y-67731638D01*
X124290122Y-67731637D01*
X124185666Y-67688371D01*
X124145436Y-67661491D01*
X123887500Y-67403553D01*
X123851268Y-67403553D01*
X123784229Y-67383868D01*
X123763587Y-67367234D01*
X123725875Y-67329522D01*
X123725873Y-67329520D01*
X123634548Y-67276793D01*
X123583793Y-67263193D01*
X123524134Y-67226829D01*
X123493605Y-67163982D01*
X123501900Y-67094606D01*
X123528208Y-67055737D01*
X123533945Y-67049999D01*
X123499136Y-67015190D01*
X123712500Y-67015190D01*
X123712500Y-67084810D01*
X123739143Y-67149129D01*
X123788371Y-67198357D01*
X123852690Y-67225000D01*
X123922310Y-67225000D01*
X123986629Y-67198357D01*
X124035857Y-67149129D01*
X124062500Y-67084810D01*
X124062500Y-67015190D01*
X124035857Y-66950871D01*
X123986629Y-66901643D01*
X123922310Y-66875000D01*
X123852690Y-66875000D01*
X123788371Y-66901643D01*
X123739143Y-66950871D01*
X123712500Y-67015190D01*
X123499136Y-67015190D01*
X123471127Y-66987181D01*
X123437642Y-66925858D01*
X123442626Y-66856166D01*
X123484498Y-66800233D01*
X123549962Y-66775816D01*
X123558808Y-66775500D01*
X124188754Y-66775500D01*
X124188756Y-66775500D01*
X124188757Y-66775499D01*
X124196812Y-66774439D01*
X124197000Y-66775869D01*
X124258010Y-66777320D01*
X124315874Y-66816481D01*
X124343380Y-66880708D01*
X124331795Y-66949611D01*
X124307939Y-66983114D01*
X124241053Y-67050000D01*
X124604160Y-67413107D01*
X124604161Y-67413107D01*
X124612833Y-67399307D01*
X124672378Y-67229138D01*
X124692562Y-67050002D01*
X124692562Y-67049997D01*
X124672378Y-66870861D01*
X124672377Y-66870858D01*
X124612837Y-66700701D01*
X124612833Y-66700692D01*
X124574336Y-66639424D01*
X124555336Y-66572188D01*
X124575704Y-66505353D01*
X124591640Y-66485781D01*
X124665605Y-66411816D01*
X124726927Y-66378334D01*
X124753284Y-66375500D01*
X131279188Y-66375500D01*
X131346227Y-66395185D01*
G37*
%TD.AperFunction*%
%TA.AperFunction,Conductor*%
G36*
X121733230Y-66795185D02*
G01*
X121778985Y-66847989D01*
X121788929Y-66917147D01*
X121759904Y-66980703D01*
X121753872Y-66987181D01*
X121691053Y-67050000D01*
X121691053Y-67060126D01*
X121712357Y-67099142D01*
X121707373Y-67168834D01*
X121665501Y-67224767D01*
X121600037Y-67249184D01*
X121591191Y-67249500D01*
X121234808Y-67249500D01*
X121167769Y-67229815D01*
X121147127Y-67213181D01*
X120949137Y-67015190D01*
X121162500Y-67015190D01*
X121162500Y-67084810D01*
X121189143Y-67149129D01*
X121238371Y-67198357D01*
X121302690Y-67225000D01*
X121372310Y-67225000D01*
X121436629Y-67198357D01*
X121485857Y-67149129D01*
X121512500Y-67084810D01*
X121512500Y-67015190D01*
X121485857Y-66950871D01*
X121436629Y-66901643D01*
X121372310Y-66875000D01*
X121302690Y-66875000D01*
X121238371Y-66901643D01*
X121189143Y-66950871D01*
X121162500Y-67015190D01*
X120949137Y-67015190D01*
X120921128Y-66987181D01*
X120887643Y-66925858D01*
X120892627Y-66856166D01*
X120934499Y-66800233D01*
X120999963Y-66775816D01*
X121008809Y-66775500D01*
X121666191Y-66775500D01*
X121733230Y-66795185D01*
G37*
%TD.AperFunction*%
%TA.AperFunction,Conductor*%
G36*
X123008230Y-66795185D02*
G01*
X123053985Y-66847989D01*
X123063929Y-66917147D01*
X123034904Y-66980703D01*
X123028872Y-66987181D01*
X122966053Y-67050000D01*
X122966053Y-67060126D01*
X122987357Y-67099142D01*
X122982373Y-67168834D01*
X122940501Y-67224767D01*
X122875037Y-67249184D01*
X122866191Y-67249500D01*
X122358808Y-67249500D01*
X122291769Y-67229815D01*
X122246014Y-67177011D01*
X122236070Y-67107853D01*
X122258946Y-67057761D01*
X122258946Y-67050000D01*
X122224136Y-67015190D01*
X122437500Y-67015190D01*
X122437500Y-67084810D01*
X122464143Y-67149129D01*
X122513371Y-67198357D01*
X122577690Y-67225000D01*
X122647310Y-67225000D01*
X122711629Y-67198357D01*
X122760857Y-67149129D01*
X122787500Y-67084810D01*
X122787500Y-67015190D01*
X122760857Y-66950871D01*
X122711629Y-66901643D01*
X122647310Y-66875000D01*
X122577690Y-66875000D01*
X122513371Y-66901643D01*
X122464143Y-66950871D01*
X122437500Y-67015190D01*
X122224136Y-67015190D01*
X122196127Y-66987181D01*
X122162642Y-66925858D01*
X122167626Y-66856166D01*
X122209498Y-66800233D01*
X122274962Y-66775816D01*
X122283808Y-66775500D01*
X122941191Y-66775500D01*
X123008230Y-66795185D01*
G37*
%TD.AperFunction*%
%TA.AperFunction,Conductor*%
G36*
X121733230Y-65520185D02*
G01*
X121778985Y-65572989D01*
X121788929Y-65642147D01*
X121759904Y-65705703D01*
X121753872Y-65712181D01*
X121691053Y-65775000D01*
X121691053Y-65785126D01*
X121712357Y-65824142D01*
X121707373Y-65893834D01*
X121665501Y-65949767D01*
X121600037Y-65974184D01*
X121591191Y-65974500D01*
X121083809Y-65974500D01*
X121016770Y-65954815D01*
X120971015Y-65902011D01*
X120961071Y-65832853D01*
X120983946Y-65782763D01*
X120983946Y-65775000D01*
X120949136Y-65740190D01*
X121162500Y-65740190D01*
X121162500Y-65809810D01*
X121189143Y-65874129D01*
X121238371Y-65923357D01*
X121302690Y-65950000D01*
X121372310Y-65950000D01*
X121436629Y-65923357D01*
X121485857Y-65874129D01*
X121512500Y-65809810D01*
X121512500Y-65740190D01*
X121485857Y-65675871D01*
X121436629Y-65626643D01*
X121372310Y-65600000D01*
X121302690Y-65600000D01*
X121238371Y-65626643D01*
X121189143Y-65675871D01*
X121162500Y-65740190D01*
X120949136Y-65740190D01*
X120921127Y-65712181D01*
X120887642Y-65650858D01*
X120892626Y-65581166D01*
X120934498Y-65525233D01*
X120999962Y-65500816D01*
X121008808Y-65500500D01*
X121666191Y-65500500D01*
X121733230Y-65520185D01*
G37*
%TD.AperFunction*%
%TA.AperFunction,Conductor*%
G36*
X123008230Y-65520185D02*
G01*
X123053985Y-65572989D01*
X123063929Y-65642147D01*
X123034904Y-65705703D01*
X123028872Y-65712181D01*
X122966053Y-65775000D01*
X122966053Y-65785126D01*
X122987357Y-65824142D01*
X122982373Y-65893834D01*
X122940501Y-65949767D01*
X122875037Y-65974184D01*
X122866191Y-65974500D01*
X122358808Y-65974500D01*
X122291769Y-65954815D01*
X122246014Y-65902011D01*
X122236070Y-65832853D01*
X122258946Y-65782761D01*
X122258946Y-65775000D01*
X122224136Y-65740190D01*
X122437500Y-65740190D01*
X122437500Y-65809810D01*
X122464143Y-65874129D01*
X122513371Y-65923357D01*
X122577690Y-65950000D01*
X122647310Y-65950000D01*
X122711629Y-65923357D01*
X122760857Y-65874129D01*
X122787500Y-65809810D01*
X122787500Y-65740190D01*
X122760857Y-65675871D01*
X122711629Y-65626643D01*
X122647310Y-65600000D01*
X122577690Y-65600000D01*
X122513371Y-65626643D01*
X122464143Y-65675871D01*
X122437500Y-65740190D01*
X122224136Y-65740190D01*
X122196127Y-65712181D01*
X122162642Y-65650858D01*
X122167626Y-65581166D01*
X122209498Y-65525233D01*
X122274962Y-65500816D01*
X122283808Y-65500500D01*
X122941191Y-65500500D01*
X123008230Y-65520185D01*
G37*
%TD.AperFunction*%
%TA.AperFunction,Conductor*%
G36*
X123910813Y-65520185D02*
G01*
X123931455Y-65536819D01*
X124081955Y-65687319D01*
X124115440Y-65748642D01*
X124110456Y-65818334D01*
X124081955Y-65862681D01*
X124006455Y-65938181D01*
X123945132Y-65971666D01*
X123918774Y-65974500D01*
X123633808Y-65974500D01*
X123566769Y-65954815D01*
X123521014Y-65902011D01*
X123511070Y-65832853D01*
X123533946Y-65782761D01*
X123533946Y-65775000D01*
X123499136Y-65740190D01*
X123712500Y-65740190D01*
X123712500Y-65809810D01*
X123739143Y-65874129D01*
X123788371Y-65923357D01*
X123852690Y-65950000D01*
X123922310Y-65950000D01*
X123986629Y-65923357D01*
X124035857Y-65874129D01*
X124062500Y-65809810D01*
X124062500Y-65740190D01*
X124035857Y-65675871D01*
X123986629Y-65626643D01*
X123922310Y-65600000D01*
X123852690Y-65600000D01*
X123788371Y-65626643D01*
X123739143Y-65675871D01*
X123712500Y-65740190D01*
X123499136Y-65740190D01*
X123471127Y-65712181D01*
X123437642Y-65650858D01*
X123442626Y-65581166D01*
X123484498Y-65525233D01*
X123549962Y-65500816D01*
X123558808Y-65500500D01*
X123843774Y-65500500D01*
X123910813Y-65520185D01*
G37*
%TD.AperFunction*%
%TA.AperFunction,Conductor*%
G36*
X121958230Y-64020185D02*
G01*
X121974351Y-64038789D01*
X121984500Y-64025233D01*
X122049964Y-64000816D01*
X122058810Y-64000500D01*
X122415192Y-64000500D01*
X122482231Y-64020185D01*
X122502873Y-64036819D01*
X122612500Y-64146446D01*
X122722127Y-64036819D01*
X122783450Y-64003334D01*
X122809808Y-64000500D01*
X123166191Y-64000500D01*
X123233230Y-64020185D01*
X123249351Y-64038789D01*
X123259500Y-64025233D01*
X123324964Y-64000816D01*
X123333810Y-64000500D01*
X123690192Y-64000500D01*
X123757231Y-64020185D01*
X123777873Y-64036819D01*
X124064277Y-64323223D01*
X124064278Y-64323223D01*
X124232940Y-64491886D01*
X124266424Y-64553209D01*
X124261440Y-64622901D01*
X124219568Y-64678834D01*
X124154104Y-64703251D01*
X124121863Y-64700172D01*
X124121812Y-64700561D01*
X124113757Y-64699500D01*
X124113756Y-64699500D01*
X124113754Y-64699500D01*
X123633808Y-64699500D01*
X123566769Y-64679815D01*
X123521014Y-64627011D01*
X123511070Y-64557853D01*
X123533946Y-64507761D01*
X123533946Y-64500000D01*
X123499136Y-64465190D01*
X123712500Y-64465190D01*
X123712500Y-64534810D01*
X123739143Y-64599129D01*
X123788371Y-64648357D01*
X123852690Y-64675000D01*
X123922310Y-64675000D01*
X123986629Y-64648357D01*
X124035857Y-64599129D01*
X124062500Y-64534810D01*
X124062500Y-64465190D01*
X124035857Y-64400871D01*
X123986629Y-64351643D01*
X123922310Y-64325000D01*
X123852690Y-64325000D01*
X123788371Y-64351643D01*
X123739143Y-64400871D01*
X123712500Y-64465190D01*
X123499136Y-64465190D01*
X123249999Y-64216053D01*
X122966053Y-64500000D01*
X122966053Y-64510126D01*
X122987357Y-64549142D01*
X122982373Y-64618834D01*
X122940501Y-64674767D01*
X122875037Y-64699184D01*
X122866191Y-64699500D01*
X122358808Y-64699500D01*
X122291769Y-64679815D01*
X122246014Y-64627011D01*
X122236070Y-64557853D01*
X122258946Y-64507761D01*
X122258946Y-64500000D01*
X122224136Y-64465190D01*
X122437500Y-64465190D01*
X122437500Y-64534810D01*
X122464143Y-64599129D01*
X122513371Y-64648357D01*
X122577690Y-64675000D01*
X122647310Y-64675000D01*
X122711629Y-64648357D01*
X122760857Y-64599129D01*
X122787500Y-64534810D01*
X122787500Y-64465190D01*
X122760857Y-64400871D01*
X122711629Y-64351643D01*
X122647310Y-64325000D01*
X122577690Y-64325000D01*
X122513371Y-64351643D01*
X122464143Y-64400871D01*
X122437500Y-64465190D01*
X122224136Y-64465190D01*
X121974999Y-64216053D01*
X121691053Y-64500000D01*
X121691053Y-64510126D01*
X121712357Y-64549142D01*
X121707373Y-64618834D01*
X121665501Y-64674767D01*
X121600037Y-64699184D01*
X121591191Y-64699500D01*
X121083808Y-64699500D01*
X121016769Y-64679815D01*
X120971014Y-64627011D01*
X120961070Y-64557853D01*
X120990095Y-64494297D01*
X120996127Y-64487819D01*
X121018756Y-64465190D01*
X121162500Y-64465190D01*
X121162500Y-64534810D01*
X121189143Y-64599129D01*
X121238371Y-64648357D01*
X121302690Y-64675000D01*
X121372310Y-64675000D01*
X121436629Y-64648357D01*
X121485857Y-64599129D01*
X121512500Y-64534810D01*
X121512500Y-64465190D01*
X121485857Y-64400871D01*
X121436629Y-64351643D01*
X121372310Y-64325000D01*
X121302690Y-64325000D01*
X121238371Y-64351643D01*
X121189143Y-64400871D01*
X121162500Y-64465190D01*
X121018756Y-64465190D01*
X121447127Y-64036819D01*
X121508450Y-64003334D01*
X121534808Y-64000500D01*
X121891191Y-64000500D01*
X121958230Y-64020185D01*
G37*
%TD.AperFunction*%
%TD*%
M02*
