%TF.GenerationSoftware,KiCad,Pcbnew,8.0.8*%
%TF.CreationDate,2025-01-24T13:29:28+05:30*%
%TF.ProjectId,heatPlate,68656174-506c-4617-9465-2e6b69636164,rev?*%
%TF.SameCoordinates,Original*%
%TF.FileFunction,Soldermask,Bot*%
%TF.FilePolarity,Negative*%
%FSLAX46Y46*%
G04 Gerber Fmt 4.6, Leading zero omitted, Abs format (unit mm)*
G04 Created by KiCad (PCBNEW 8.0.8) date 2025-01-24 13:29:28*
%MOMM*%
%LPD*%
G01*
G04 APERTURE LIST*
%ADD10C,2.000000*%
%ADD11R,1.700000X1.700000*%
%ADD12O,1.700000X1.700000*%
%ADD13C,2.200000*%
%ADD14O,1.600000X2.000000*%
%ADD15R,1.500000X1.050000*%
%ADD16O,1.500000X1.050000*%
%ADD17C,0.600000*%
%ADD18O,2.204000X1.104000*%
%ADD19O,1.904000X1.104000*%
%ADD20C,1.000000*%
%ADD21R,1.600000X1.600000*%
%ADD22C,1.600000*%
G04 APERTURE END LIST*
D10*
%TO.C,SW2*%
X138550000Y-48500000D03*
X145050000Y-48500000D03*
X138550000Y-53000000D03*
X145050000Y-53000000D03*
%TD*%
D11*
%TO.C,J1*%
X116400000Y-48800000D03*
D12*
X118940000Y-48800000D03*
%TD*%
D13*
%TO.C,H2*%
X65250000Y-49750000D03*
%TD*%
D10*
%TO.C,SW1*%
X128150000Y-48550000D03*
X134650000Y-48550000D03*
X128150000Y-53050000D03*
X134650000Y-53050000D03*
%TD*%
D14*
%TO.C,OLED1*%
X167080000Y-63500000D03*
X164540000Y-63500000D03*
X162000000Y-63500000D03*
X159460000Y-63500000D03*
%TD*%
D10*
%TO.C,SW3*%
X91500000Y-48500000D03*
X98000000Y-48500000D03*
X91500000Y-53000000D03*
X98000000Y-53000000D03*
%TD*%
D15*
%TO.C,TEMP3*%
X170160000Y-73470000D03*
D16*
X170160000Y-72200000D03*
X170160000Y-70930000D03*
%TD*%
D13*
%TO.C,H1*%
X170750000Y-50250000D03*
%TD*%
D15*
%TO.C,TEMP1*%
X158000000Y-71230000D03*
D16*
X158000000Y-72500000D03*
X158000000Y-73770000D03*
%TD*%
D13*
%TO.C,H3*%
X170480000Y-227610000D03*
%TD*%
%TO.C,H4*%
X65480000Y-227610000D03*
%TD*%
D17*
%TO.C,J4*%
X66680000Y-55360000D03*
X66680000Y-61140000D03*
D18*
X67170000Y-53925000D03*
X67170000Y-62575000D03*
D19*
X63000000Y-53925000D03*
X63000000Y-62575000D03*
%TD*%
D20*
%TO.C,J2*%
X164350000Y-47500000D03*
X156350000Y-47500000D03*
%TD*%
D21*
%TO.C,C16*%
X72750000Y-52152651D03*
D22*
X72750000Y-48652651D03*
%TD*%
D21*
%TO.C,C14*%
X81500000Y-52152651D03*
D22*
X81500000Y-48652651D03*
%TD*%
D21*
%TO.C,C13*%
X75500000Y-56900000D03*
D22*
X75500000Y-60400000D03*
%TD*%
D21*
%TO.C,C11*%
X84250000Y-56750000D03*
D22*
X84250000Y-60250000D03*
%TD*%
M02*
