%TF.GenerationSoftware,KiCad,Pcbnew,8.0.8*%
%TF.CreationDate,2025-01-24T13:29:27+05:30*%
%TF.ProjectId,heatPlate,68656174-506c-4617-9465-2e6b69636164,rev?*%
%TF.SameCoordinates,Original*%
%TF.FileFunction,Paste,Top*%
%TF.FilePolarity,Positive*%
%FSLAX46Y46*%
G04 Gerber Fmt 4.6, Leading zero omitted, Abs format (unit mm)*
G04 Created by KiCad (PCBNEW 8.0.8) date 2025-01-24 13:29:27*
%MOMM*%
%LPD*%
G01*
G04 APERTURE LIST*
G04 Aperture macros list*
%AMRoundRect*
0 Rectangle with rounded corners*
0 $1 Rounding radius*
0 $2 $3 $4 $5 $6 $7 $8 $9 X,Y pos of 4 corners*
0 Add a 4 corners polygon primitive as box body*
4,1,4,$2,$3,$4,$5,$6,$7,$8,$9,$2,$3,0*
0 Add four circle primitives for the rounded corners*
1,1,$1+$1,$2,$3*
1,1,$1+$1,$4,$5*
1,1,$1+$1,$6,$7*
1,1,$1+$1,$8,$9*
0 Add four rect primitives between the rounded corners*
20,1,$1+$1,$2,$3,$4,$5,0*
20,1,$1+$1,$4,$5,$6,$7,0*
20,1,$1+$1,$6,$7,$8,$9,0*
20,1,$1+$1,$8,$9,$2,$3,0*%
G04 Aperture macros list end*
%ADD10RoundRect,0.200000X0.200000X0.275000X-0.200000X0.275000X-0.200000X-0.275000X0.200000X-0.275000X0*%
%ADD11R,1.400000X1.200000*%
%ADD12RoundRect,0.225000X-0.225000X-0.250000X0.225000X-0.250000X0.225000X0.250000X-0.225000X0.250000X0*%
%ADD13R,0.177800X0.609600*%
%ADD14R,0.609600X0.177800*%
%ADD15R,1.447800X1.447800*%
%ADD16RoundRect,0.225000X0.250000X-0.225000X0.250000X0.225000X-0.250000X0.225000X-0.250000X-0.225000X0*%
%ADD17RoundRect,0.200000X-0.275000X0.200000X-0.275000X-0.200000X0.275000X-0.200000X0.275000X0.200000X0*%
%ADD18RoundRect,0.200000X-0.200000X-0.275000X0.200000X-0.275000X0.200000X0.275000X-0.200000X0.275000X0*%
%ADD19RoundRect,0.225000X0.225000X0.250000X-0.225000X0.250000X-0.225000X-0.250000X0.225000X-0.250000X0*%
%ADD20RoundRect,0.225000X-0.225000X-0.375000X0.225000X-0.375000X0.225000X0.375000X-0.225000X0.375000X0*%
%ADD21RoundRect,0.225000X-0.250000X0.225000X-0.250000X-0.225000X0.250000X-0.225000X0.250000X0.225000X0*%
%ADD22RoundRect,0.150000X-0.150000X0.825000X-0.150000X-0.825000X0.150000X-0.825000X0.150000X0.825000X0*%
%ADD23RoundRect,0.250000X-2.475000X0.712500X-2.475000X-0.712500X2.475000X-0.712500X2.475000X0.712500X0*%
%ADD24R,1.500000X1.100000*%
%ADD25RoundRect,0.250000X0.850000X0.350000X-0.850000X0.350000X-0.850000X-0.350000X0.850000X-0.350000X0*%
%ADD26RoundRect,0.250000X1.275000X1.125000X-1.275000X1.125000X-1.275000X-1.125000X1.275000X-1.125000X0*%
%ADD27RoundRect,0.150000X-0.587500X-0.150000X0.587500X-0.150000X0.587500X0.150000X-0.587500X0.150000X0*%
%ADD28RoundRect,0.375000X-0.625000X-0.375000X0.625000X-0.375000X0.625000X0.375000X-0.625000X0.375000X0*%
%ADD29RoundRect,0.500000X-0.500000X-1.400000X0.500000X-1.400000X0.500000X1.400000X-0.500000X1.400000X0*%
%ADD30RoundRect,0.250000X-0.292217X-0.292217X0.292217X-0.292217X0.292217X0.292217X-0.292217X0.292217X0*%
%ADD31RoundRect,0.050000X-0.387500X-0.050000X0.387500X-0.050000X0.387500X0.050000X-0.387500X0.050000X0*%
%ADD32RoundRect,0.050000X-0.050000X-0.387500X0.050000X-0.387500X0.050000X0.387500X-0.050000X0.387500X0*%
%ADD33RoundRect,0.150000X-0.650000X-0.150000X0.650000X-0.150000X0.650000X0.150000X-0.650000X0.150000X0*%
%ADD34R,1.140000X0.600000*%
%ADD35R,1.140000X0.300000*%
%ADD36RoundRect,0.150000X0.150000X0.625000X-0.150000X0.625000X-0.150000X-0.625000X0.150000X-0.625000X0*%
%ADD37RoundRect,0.250000X0.350000X0.650000X-0.350000X0.650000X-0.350000X-0.650000X0.350000X-0.650000X0*%
%ADD38R,0.700000X1.600000*%
%ADD39R,1.200000X1.600000*%
%ADD40R,1.200000X2.200000*%
%ADD41R,1.600000X1.400000*%
G04 APERTURE END LIST*
D10*
%TO.C,R9*%
X150100000Y-70250000D03*
X151750000Y-70250000D03*
%TD*%
D11*
%TO.C,Y1*%
X117100000Y-72350000D03*
X114900000Y-72350000D03*
X114900000Y-70650000D03*
X117100000Y-70650000D03*
%TD*%
D12*
%TO.C,C4*%
X129975000Y-59400000D03*
X128425000Y-59400000D03*
%TD*%
D13*
%TO.C,U4*%
X71994601Y-67994600D03*
X72494600Y-67994600D03*
X72994599Y-67994600D03*
D14*
X73739200Y-67500001D03*
X73739200Y-67000000D03*
X73739200Y-66500000D03*
X73739200Y-65999999D03*
D13*
X72994599Y-65505400D03*
X72494600Y-65505400D03*
X71994601Y-65505400D03*
D14*
X71250000Y-65999999D03*
X71250000Y-66500000D03*
X71250000Y-67000000D03*
X71250000Y-67500001D03*
D15*
X72494600Y-66750000D03*
%TD*%
D16*
%TO.C,C18*%
X117500000Y-56250000D03*
X117500000Y-57800000D03*
%TD*%
D12*
%TO.C,C7*%
X134975000Y-63200000D03*
X133425000Y-63200000D03*
%TD*%
D17*
%TO.C,R12*%
X102200000Y-52625000D03*
X102200000Y-50975000D03*
%TD*%
D12*
%TO.C,C8*%
X133375000Y-61600000D03*
X131825000Y-61600000D03*
%TD*%
D16*
%TO.C,C15*%
X122630000Y-56250000D03*
X122630000Y-57800000D03*
%TD*%
D18*
%TO.C,R7*%
X116225000Y-53200000D03*
X114575000Y-53200000D03*
%TD*%
D10*
%TO.C,R1*%
X112175000Y-67000000D03*
X113825000Y-67000000D03*
%TD*%
D19*
%TO.C,C2*%
X139225000Y-55750000D03*
X140775000Y-55750000D03*
%TD*%
D18*
%TO.C,R15*%
X109450000Y-63600000D03*
X107800000Y-63600000D03*
%TD*%
%TO.C,R18*%
X130425000Y-68600000D03*
X128775000Y-68600000D03*
%TD*%
D20*
%TO.C,D1*%
X105850000Y-73000000D03*
X109150000Y-73000000D03*
%TD*%
D12*
%TO.C,C6*%
X140575000Y-70400000D03*
X139025000Y-70400000D03*
%TD*%
D18*
%TO.C,R4*%
X147325000Y-56000000D03*
X145675000Y-56000000D03*
%TD*%
D21*
%TO.C,C17*%
X91600000Y-58175000D03*
X91600000Y-56625000D03*
%TD*%
D16*
%TO.C,C12*%
X124380000Y-56225000D03*
X124380000Y-57775000D03*
%TD*%
D22*
%TO.C,TEMP2*%
X165905000Y-69025000D03*
X164635000Y-69025000D03*
X163365000Y-69025000D03*
X162095000Y-69025000D03*
X162095000Y-73975000D03*
X163365000Y-73975000D03*
X164635000Y-73975000D03*
X165905000Y-73975000D03*
%TD*%
D17*
%TO.C,R10*%
X106000000Y-70825000D03*
X106000000Y-69175000D03*
%TD*%
D18*
%TO.C,R16*%
X130400000Y-72200000D03*
X128750000Y-72200000D03*
%TD*%
D10*
%TO.C,R8*%
X94375000Y-57250000D03*
X96025000Y-57250000D03*
%TD*%
D16*
%TO.C,C24*%
X129600000Y-56225000D03*
X129600000Y-57775000D03*
%TD*%
D12*
%TO.C,C3*%
X124175000Y-48800000D03*
X122625000Y-48800000D03*
%TD*%
D19*
%TO.C,C1*%
X112625000Y-64600000D03*
X114175000Y-64600000D03*
%TD*%
D18*
%TO.C,R3*%
X137250000Y-55800000D03*
X135600000Y-55800000D03*
%TD*%
D10*
%TO.C,R5*%
X96175000Y-59400000D03*
X97825000Y-59400000D03*
%TD*%
D16*
%TO.C,C10*%
X88250000Y-52225000D03*
X88250000Y-53775000D03*
%TD*%
D10*
%TO.C,R2*%
X112375000Y-68800000D03*
X114025000Y-68800000D03*
%TD*%
D21*
%TO.C,C5*%
X122000000Y-72375000D03*
X122000000Y-70825000D03*
%TD*%
D10*
%TO.C,R13*%
X100600000Y-49250000D03*
X102250000Y-49250000D03*
%TD*%
D16*
%TO.C,C23*%
X126130000Y-56225000D03*
X126130000Y-57775000D03*
%TD*%
D18*
%TO.C,R14*%
X110425000Y-66400000D03*
X108775000Y-66400000D03*
%TD*%
D17*
%TO.C,R11*%
X123600000Y-73025000D03*
X123600000Y-71375000D03*
%TD*%
D18*
%TO.C,R17*%
X130425000Y-70400000D03*
X128775000Y-70400000D03*
%TD*%
D23*
%TO.C,F1*%
X65200000Y-65412500D03*
X65200000Y-72187500D03*
%TD*%
D24*
%TO.C,LED1*%
X143300000Y-59450000D03*
X146300000Y-59450000D03*
X146300000Y-60950000D03*
X143300000Y-60950000D03*
%TD*%
D25*
%TO.C,Q2*%
X102800000Y-70530000D03*
D26*
X98175000Y-69775000D03*
X98175000Y-66725000D03*
X94825000Y-69775000D03*
X94825000Y-66725000D03*
D25*
X102800000Y-65970000D03*
%TD*%
D10*
%TO.C,R6*%
X128775000Y-65800000D03*
X130425000Y-65800000D03*
%TD*%
D12*
%TO.C,C9*%
X130025000Y-61250000D03*
X128475000Y-61250000D03*
%TD*%
D27*
%TO.C,Q1*%
X87750000Y-67350000D03*
X87750000Y-69250000D03*
X89625000Y-68300000D03*
%TD*%
D28*
%TO.C,U3*%
X78100000Y-65950000D03*
X78100000Y-68250000D03*
D29*
X84400000Y-68250000D03*
D28*
X78100000Y-70550000D03*
%TD*%
D30*
%TO.C,U2*%
X121975000Y-65137500D03*
X121975000Y-66412500D03*
X123250000Y-65137500D03*
X123250000Y-66412500D03*
D31*
X119175000Y-63175000D03*
X119175000Y-63575000D03*
X119175000Y-63975000D03*
X119175000Y-64375000D03*
X119175000Y-64775000D03*
X119175000Y-65175000D03*
X119175000Y-65575000D03*
X119175000Y-65975000D03*
X119175000Y-66375000D03*
X119175000Y-66775000D03*
X119175000Y-67175000D03*
X119175000Y-67575000D03*
X119175000Y-67975000D03*
X119175000Y-68375000D03*
D32*
X120012500Y-69212500D03*
X120412500Y-69212500D03*
X120812500Y-69212500D03*
X121212500Y-69212500D03*
X121612500Y-69212500D03*
X122012500Y-69212500D03*
X122412500Y-69212500D03*
X122812500Y-69212500D03*
X123212500Y-69212500D03*
X123612500Y-69212500D03*
X124012500Y-69212500D03*
X124412500Y-69212500D03*
X124812500Y-69212500D03*
X125212500Y-69212500D03*
D31*
X126050000Y-68375000D03*
X126050000Y-67975000D03*
X126050000Y-67575000D03*
X126050000Y-67175000D03*
X126050000Y-66775000D03*
X126050000Y-66375000D03*
X126050000Y-65975000D03*
X126050000Y-65575000D03*
X126050000Y-65175000D03*
X126050000Y-64775000D03*
X126050000Y-64375000D03*
X126050000Y-63975000D03*
X126050000Y-63575000D03*
X126050000Y-63175000D03*
D32*
X125212500Y-62337500D03*
X124812500Y-62337500D03*
X124412500Y-62337500D03*
X124012500Y-62337500D03*
X123612500Y-62337500D03*
X123212500Y-62337500D03*
X122812500Y-62337500D03*
X122412500Y-62337500D03*
X122012500Y-62337500D03*
X121612500Y-62337500D03*
X121212500Y-62337500D03*
X120812500Y-62337500D03*
X120412500Y-62337500D03*
X120012500Y-62337500D03*
%TD*%
D33*
%TO.C,U1*%
X105000000Y-54695000D03*
X105000000Y-55965000D03*
X105000000Y-57235000D03*
X105000000Y-58505000D03*
X112200000Y-58505000D03*
X112200000Y-57235000D03*
X112200000Y-55965000D03*
X112200000Y-54695000D03*
%TD*%
D34*
%TO.C,J4*%
X67750000Y-55050000D03*
X67750000Y-55850000D03*
D35*
X67750000Y-57000000D03*
X67750000Y-58000000D03*
X67750000Y-58500000D03*
X67750000Y-59500000D03*
D34*
X67750000Y-61450000D03*
X67750000Y-60650000D03*
D35*
X67750000Y-60000000D03*
X67750000Y-59000000D03*
X67750000Y-57500000D03*
X67750000Y-56500000D03*
%TD*%
D36*
%TO.C,J3*%
X109400000Y-51600000D03*
X108400000Y-51600000D03*
X107400000Y-51600000D03*
D37*
X110700000Y-47725000D03*
X106100000Y-47725000D03*
%TD*%
D38*
%TO.C,J2*%
X157150000Y-58000000D03*
X158250000Y-58000000D03*
X159350000Y-58000000D03*
X160450000Y-58000000D03*
X161550000Y-58000000D03*
X162650000Y-58000000D03*
X163750000Y-58000000D03*
X164850000Y-58000000D03*
X165950000Y-58000000D03*
D39*
X167150000Y-57400000D03*
D40*
X167150000Y-47900000D03*
X151650000Y-47900000D03*
D41*
X152550000Y-57500000D03*
%TD*%
D16*
%TO.C,C22*%
X119130000Y-57750000D03*
X119130000Y-56200000D03*
%TD*%
%TO.C,C21*%
X120880000Y-57775000D03*
X120880000Y-56225000D03*
%TD*%
%TO.C,C20*%
X127880000Y-57750000D03*
X127880000Y-56200000D03*
%TD*%
D19*
%TO.C,C19*%
X74525000Y-70250000D03*
X72975000Y-70250000D03*
%TD*%
M02*
