%TF.GenerationSoftware,KiCad,Pcbnew,8.0.8*%
%TF.CreationDate,2025-01-24T13:29:28+05:30*%
%TF.ProjectId,heatPlate,68656174-506c-4617-9465-2e6b69636164,rev?*%
%TF.SameCoordinates,Original*%
%TF.FileFunction,Legend,Top*%
%TF.FilePolarity,Positive*%
%FSLAX46Y46*%
G04 Gerber Fmt 4.6, Leading zero omitted, Abs format (unit mm)*
G04 Created by KiCad (PCBNEW 8.0.8) date 2025-01-24 13:29:28*
%MOMM*%
%LPD*%
G01*
G04 APERTURE LIST*
%ADD10C,0.600000*%
%ADD11C,0.200000*%
%ADD12C,0.400000*%
%ADD13C,0.240000*%
%ADD14C,0.150000*%
%ADD15C,0.120000*%
%ADD16C,0.152400*%
%ADD17C,0.000000*%
%ADD18C,0.100000*%
%ADD19C,0.127000*%
%ADD20C,0.203200*%
G04 APERTURE END LIST*
D10*
X116915577Y-132103577D02*
G75*
G02*
X116349755Y-130737577I1365923J1365977D01*
G01*
X119315577Y-133634577D02*
G75*
G02*
X118749998Y-134999998I-1931177J77D01*
G01*
X117715577Y-133703577D02*
G75*
G02*
X117149998Y-135068998I-1931177J77D01*
G01*
X118749577Y-132269577D02*
G75*
G02*
X119314943Y-133634577I-1365177J-1365023D01*
G01*
X115315577Y-132034577D02*
G75*
G02*
X114750462Y-130668870I1365923J1364977D01*
G01*
X118515577Y-132034577D02*
G75*
G02*
X117950462Y-130668870I1365923J1364977D01*
G01*
X116349577Y-130737577D02*
G75*
G02*
X116915445Y-129371445I1931823J77D01*
G01*
X116115577Y-133634577D02*
G75*
G02*
X115549998Y-134999998I-1931177J77D01*
G01*
X117949577Y-130669577D02*
G75*
G02*
X118515445Y-129303445I1931823J77D01*
G01*
X115549577Y-132269577D02*
G75*
G02*
X116114943Y-133634577I-1365177J-1365023D01*
G01*
X114749577Y-130669577D02*
G75*
G02*
X115315445Y-129303445I1931823J77D01*
G01*
X117149577Y-132337577D02*
G75*
G02*
X117715679Y-133702870I-1365077J-1366023D01*
G01*
X103614284Y-115241741D02*
X103614284Y-112241741D01*
X103614284Y-113670312D02*
X105328570Y-113670312D01*
X105328570Y-115241741D02*
X105328570Y-112241741D01*
X107899998Y-115098884D02*
X107614284Y-115241741D01*
X107614284Y-115241741D02*
X107042856Y-115241741D01*
X107042856Y-115241741D02*
X106757141Y-115098884D01*
X106757141Y-115098884D02*
X106614284Y-114813169D01*
X106614284Y-114813169D02*
X106614284Y-113670312D01*
X106614284Y-113670312D02*
X106757141Y-113384598D01*
X106757141Y-113384598D02*
X107042856Y-113241741D01*
X107042856Y-113241741D02*
X107614284Y-113241741D01*
X107614284Y-113241741D02*
X107899998Y-113384598D01*
X107899998Y-113384598D02*
X108042856Y-113670312D01*
X108042856Y-113670312D02*
X108042856Y-113956026D01*
X108042856Y-113956026D02*
X106614284Y-114241741D01*
X110614285Y-115241741D02*
X110614285Y-113670312D01*
X110614285Y-113670312D02*
X110471427Y-113384598D01*
X110471427Y-113384598D02*
X110185713Y-113241741D01*
X110185713Y-113241741D02*
X109614285Y-113241741D01*
X109614285Y-113241741D02*
X109328570Y-113384598D01*
X110614285Y-115098884D02*
X110328570Y-115241741D01*
X110328570Y-115241741D02*
X109614285Y-115241741D01*
X109614285Y-115241741D02*
X109328570Y-115098884D01*
X109328570Y-115098884D02*
X109185713Y-114813169D01*
X109185713Y-114813169D02*
X109185713Y-114527455D01*
X109185713Y-114527455D02*
X109328570Y-114241741D01*
X109328570Y-114241741D02*
X109614285Y-114098884D01*
X109614285Y-114098884D02*
X110328570Y-114098884D01*
X110328570Y-114098884D02*
X110614285Y-113956026D01*
X111614285Y-113241741D02*
X112757142Y-113241741D01*
X112042856Y-112241741D02*
X112042856Y-114813169D01*
X112042856Y-114813169D02*
X112185713Y-115098884D01*
X112185713Y-115098884D02*
X112471428Y-115241741D01*
X112471428Y-115241741D02*
X112757142Y-115241741D01*
X113757142Y-115241741D02*
X113757142Y-113241741D01*
X113757142Y-112241741D02*
X113614285Y-112384598D01*
X113614285Y-112384598D02*
X113757142Y-112527455D01*
X113757142Y-112527455D02*
X113899999Y-112384598D01*
X113899999Y-112384598D02*
X113757142Y-112241741D01*
X113757142Y-112241741D02*
X113757142Y-112527455D01*
X115185713Y-113241741D02*
X115185713Y-115241741D01*
X115185713Y-113527455D02*
X115328570Y-113384598D01*
X115328570Y-113384598D02*
X115614285Y-113241741D01*
X115614285Y-113241741D02*
X116042856Y-113241741D01*
X116042856Y-113241741D02*
X116328570Y-113384598D01*
X116328570Y-113384598D02*
X116471428Y-113670312D01*
X116471428Y-113670312D02*
X116471428Y-115241741D01*
X119185714Y-113241741D02*
X119185714Y-115670312D01*
X119185714Y-115670312D02*
X119042856Y-115956026D01*
X119042856Y-115956026D02*
X118899999Y-116098884D01*
X118899999Y-116098884D02*
X118614285Y-116241741D01*
X118614285Y-116241741D02*
X118185714Y-116241741D01*
X118185714Y-116241741D02*
X117899999Y-116098884D01*
X119185714Y-115098884D02*
X118899999Y-115241741D01*
X118899999Y-115241741D02*
X118328571Y-115241741D01*
X118328571Y-115241741D02*
X118042856Y-115098884D01*
X118042856Y-115098884D02*
X117899999Y-114956026D01*
X117899999Y-114956026D02*
X117757142Y-114670312D01*
X117757142Y-114670312D02*
X117757142Y-113813169D01*
X117757142Y-113813169D02*
X117899999Y-113527455D01*
X117899999Y-113527455D02*
X118042856Y-113384598D01*
X118042856Y-113384598D02*
X118328571Y-113241741D01*
X118328571Y-113241741D02*
X118899999Y-113241741D01*
X118899999Y-113241741D02*
X119185714Y-113384598D01*
X122757142Y-114384598D02*
X124185714Y-114384598D01*
X122471428Y-115241741D02*
X123471428Y-112241741D01*
X123471428Y-112241741D02*
X124471428Y-115241741D01*
X125471428Y-115241741D02*
X125471428Y-113241741D01*
X125471428Y-113813169D02*
X125614285Y-113527455D01*
X125614285Y-113527455D02*
X125757143Y-113384598D01*
X125757143Y-113384598D02*
X126042857Y-113241741D01*
X126042857Y-113241741D02*
X126328571Y-113241741D01*
X128471428Y-115098884D02*
X128185714Y-115241741D01*
X128185714Y-115241741D02*
X127614286Y-115241741D01*
X127614286Y-115241741D02*
X127328571Y-115098884D01*
X127328571Y-115098884D02*
X127185714Y-114813169D01*
X127185714Y-114813169D02*
X127185714Y-113670312D01*
X127185714Y-113670312D02*
X127328571Y-113384598D01*
X127328571Y-113384598D02*
X127614286Y-113241741D01*
X127614286Y-113241741D02*
X128185714Y-113241741D01*
X128185714Y-113241741D02*
X128471428Y-113384598D01*
X128471428Y-113384598D02*
X128614286Y-113670312D01*
X128614286Y-113670312D02*
X128614286Y-113956026D01*
X128614286Y-113956026D02*
X127185714Y-114241741D01*
X131185715Y-115241741D02*
X131185715Y-113670312D01*
X131185715Y-113670312D02*
X131042857Y-113384598D01*
X131042857Y-113384598D02*
X130757143Y-113241741D01*
X130757143Y-113241741D02*
X130185715Y-113241741D01*
X130185715Y-113241741D02*
X129900000Y-113384598D01*
X131185715Y-115098884D02*
X130900000Y-115241741D01*
X130900000Y-115241741D02*
X130185715Y-115241741D01*
X130185715Y-115241741D02*
X129900000Y-115098884D01*
X129900000Y-115098884D02*
X129757143Y-114813169D01*
X129757143Y-114813169D02*
X129757143Y-114527455D01*
X129757143Y-114527455D02*
X129900000Y-114241741D01*
X129900000Y-114241741D02*
X130185715Y-114098884D01*
X130185715Y-114098884D02*
X130900000Y-114098884D01*
X130900000Y-114098884D02*
X131185715Y-113956026D01*
X107400000Y-120071573D02*
X105685714Y-120071573D01*
X106542857Y-120071573D02*
X106542857Y-117071573D01*
X106542857Y-117071573D02*
X106257143Y-117500144D01*
X106257143Y-117500144D02*
X105971428Y-117785858D01*
X105971428Y-117785858D02*
X105685714Y-117928716D01*
X110114286Y-117071573D02*
X108685714Y-117071573D01*
X108685714Y-117071573D02*
X108542857Y-118500144D01*
X108542857Y-118500144D02*
X108685714Y-118357287D01*
X108685714Y-118357287D02*
X108971429Y-118214430D01*
X108971429Y-118214430D02*
X109685714Y-118214430D01*
X109685714Y-118214430D02*
X109971429Y-118357287D01*
X109971429Y-118357287D02*
X110114286Y-118500144D01*
X110114286Y-118500144D02*
X110257143Y-118785858D01*
X110257143Y-118785858D02*
X110257143Y-119500144D01*
X110257143Y-119500144D02*
X110114286Y-119785858D01*
X110114286Y-119785858D02*
X109971429Y-119928716D01*
X109971429Y-119928716D02*
X109685714Y-120071573D01*
X109685714Y-120071573D02*
X108971429Y-120071573D01*
X108971429Y-120071573D02*
X108685714Y-119928716D01*
X108685714Y-119928716D02*
X108542857Y-119785858D01*
X112114286Y-117071573D02*
X112400000Y-117071573D01*
X112400000Y-117071573D02*
X112685714Y-117214430D01*
X112685714Y-117214430D02*
X112828572Y-117357287D01*
X112828572Y-117357287D02*
X112971429Y-117643001D01*
X112971429Y-117643001D02*
X113114286Y-118214430D01*
X113114286Y-118214430D02*
X113114286Y-118928716D01*
X113114286Y-118928716D02*
X112971429Y-119500144D01*
X112971429Y-119500144D02*
X112828572Y-119785858D01*
X112828572Y-119785858D02*
X112685714Y-119928716D01*
X112685714Y-119928716D02*
X112400000Y-120071573D01*
X112400000Y-120071573D02*
X112114286Y-120071573D01*
X112114286Y-120071573D02*
X111828572Y-119928716D01*
X111828572Y-119928716D02*
X111685714Y-119785858D01*
X111685714Y-119785858D02*
X111542857Y-119500144D01*
X111542857Y-119500144D02*
X111400000Y-118928716D01*
X111400000Y-118928716D02*
X111400000Y-118214430D01*
X111400000Y-118214430D02*
X111542857Y-117643001D01*
X111542857Y-117643001D02*
X111685714Y-117357287D01*
X111685714Y-117357287D02*
X111828572Y-117214430D01*
X111828572Y-117214430D02*
X112114286Y-117071573D01*
X116400000Y-117071573D02*
X118400000Y-120071573D01*
X118400000Y-117071573D02*
X116400000Y-120071573D01*
X123400000Y-120071573D02*
X121685714Y-120071573D01*
X122542857Y-120071573D02*
X122542857Y-117071573D01*
X122542857Y-117071573D02*
X122257143Y-117500144D01*
X122257143Y-117500144D02*
X121971428Y-117785858D01*
X121971428Y-117785858D02*
X121685714Y-117928716D01*
X125257143Y-117071573D02*
X125542857Y-117071573D01*
X125542857Y-117071573D02*
X125828571Y-117214430D01*
X125828571Y-117214430D02*
X125971429Y-117357287D01*
X125971429Y-117357287D02*
X126114286Y-117643001D01*
X126114286Y-117643001D02*
X126257143Y-118214430D01*
X126257143Y-118214430D02*
X126257143Y-118928716D01*
X126257143Y-118928716D02*
X126114286Y-119500144D01*
X126114286Y-119500144D02*
X125971429Y-119785858D01*
X125971429Y-119785858D02*
X125828571Y-119928716D01*
X125828571Y-119928716D02*
X125542857Y-120071573D01*
X125542857Y-120071573D02*
X125257143Y-120071573D01*
X125257143Y-120071573D02*
X124971429Y-119928716D01*
X124971429Y-119928716D02*
X124828571Y-119785858D01*
X124828571Y-119785858D02*
X124685714Y-119500144D01*
X124685714Y-119500144D02*
X124542857Y-118928716D01*
X124542857Y-118928716D02*
X124542857Y-118214430D01*
X124542857Y-118214430D02*
X124685714Y-117643001D01*
X124685714Y-117643001D02*
X124828571Y-117357287D01*
X124828571Y-117357287D02*
X124971429Y-117214430D01*
X124971429Y-117214430D02*
X125257143Y-117071573D01*
X128114286Y-117071573D02*
X128400000Y-117071573D01*
X128400000Y-117071573D02*
X128685714Y-117214430D01*
X128685714Y-117214430D02*
X128828572Y-117357287D01*
X128828572Y-117357287D02*
X128971429Y-117643001D01*
X128971429Y-117643001D02*
X129114286Y-118214430D01*
X129114286Y-118214430D02*
X129114286Y-118928716D01*
X129114286Y-118928716D02*
X128971429Y-119500144D01*
X128971429Y-119500144D02*
X128828572Y-119785858D01*
X128828572Y-119785858D02*
X128685714Y-119928716D01*
X128685714Y-119928716D02*
X128400000Y-120071573D01*
X128400000Y-120071573D02*
X128114286Y-120071573D01*
X128114286Y-120071573D02*
X127828572Y-119928716D01*
X127828572Y-119928716D02*
X127685714Y-119785858D01*
X127685714Y-119785858D02*
X127542857Y-119500144D01*
X127542857Y-119500144D02*
X127400000Y-118928716D01*
X127400000Y-118928716D02*
X127400000Y-118214430D01*
X127400000Y-118214430D02*
X127542857Y-117643001D01*
X127542857Y-117643001D02*
X127685714Y-117357287D01*
X127685714Y-117357287D02*
X127828572Y-117214430D01*
X127828572Y-117214430D02*
X128114286Y-117071573D01*
D11*
X102169673Y-47767219D02*
X102169673Y-46767219D01*
X102169673Y-46767219D02*
X102407768Y-46767219D01*
X102407768Y-46767219D02*
X102550625Y-46814838D01*
X102550625Y-46814838D02*
X102645863Y-46910076D01*
X102645863Y-46910076D02*
X102693482Y-47005314D01*
X102693482Y-47005314D02*
X102741101Y-47195790D01*
X102741101Y-47195790D02*
X102741101Y-47338647D01*
X102741101Y-47338647D02*
X102693482Y-47529123D01*
X102693482Y-47529123D02*
X102645863Y-47624361D01*
X102645863Y-47624361D02*
X102550625Y-47719600D01*
X102550625Y-47719600D02*
X102407768Y-47767219D01*
X102407768Y-47767219D02*
X102169673Y-47767219D01*
X103503006Y-47243409D02*
X103645863Y-47291028D01*
X103645863Y-47291028D02*
X103693482Y-47338647D01*
X103693482Y-47338647D02*
X103741101Y-47433885D01*
X103741101Y-47433885D02*
X103741101Y-47576742D01*
X103741101Y-47576742D02*
X103693482Y-47671980D01*
X103693482Y-47671980D02*
X103645863Y-47719600D01*
X103645863Y-47719600D02*
X103550625Y-47767219D01*
X103550625Y-47767219D02*
X103169673Y-47767219D01*
X103169673Y-47767219D02*
X103169673Y-46767219D01*
X103169673Y-46767219D02*
X103503006Y-46767219D01*
X103503006Y-46767219D02*
X103598244Y-46814838D01*
X103598244Y-46814838D02*
X103645863Y-46862457D01*
X103645863Y-46862457D02*
X103693482Y-46957695D01*
X103693482Y-46957695D02*
X103693482Y-47052933D01*
X103693482Y-47052933D02*
X103645863Y-47148171D01*
X103645863Y-47148171D02*
X103598244Y-47195790D01*
X103598244Y-47195790D02*
X103503006Y-47243409D01*
X103503006Y-47243409D02*
X103169673Y-47243409D01*
X104693482Y-46814838D02*
X104598244Y-46767219D01*
X104598244Y-46767219D02*
X104455387Y-46767219D01*
X104455387Y-46767219D02*
X104312530Y-46814838D01*
X104312530Y-46814838D02*
X104217292Y-46910076D01*
X104217292Y-46910076D02*
X104169673Y-47005314D01*
X104169673Y-47005314D02*
X104122054Y-47195790D01*
X104122054Y-47195790D02*
X104122054Y-47338647D01*
X104122054Y-47338647D02*
X104169673Y-47529123D01*
X104169673Y-47529123D02*
X104217292Y-47624361D01*
X104217292Y-47624361D02*
X104312530Y-47719600D01*
X104312530Y-47719600D02*
X104455387Y-47767219D01*
X104455387Y-47767219D02*
X104550625Y-47767219D01*
X104550625Y-47767219D02*
X104693482Y-47719600D01*
X104693482Y-47719600D02*
X104741101Y-47671980D01*
X104741101Y-47671980D02*
X104741101Y-47338647D01*
X104741101Y-47338647D02*
X104550625Y-47338647D01*
D12*
X112121591Y-142964491D02*
X112007305Y-143078777D01*
X112007305Y-143078777D02*
X111664448Y-143193062D01*
X111664448Y-143193062D02*
X111435876Y-143193062D01*
X111435876Y-143193062D02*
X111093019Y-143078777D01*
X111093019Y-143078777D02*
X110864448Y-142850205D01*
X110864448Y-142850205D02*
X110750162Y-142621634D01*
X110750162Y-142621634D02*
X110635876Y-142164491D01*
X110635876Y-142164491D02*
X110635876Y-141821634D01*
X110635876Y-141821634D02*
X110750162Y-141364491D01*
X110750162Y-141364491D02*
X110864448Y-141135919D01*
X110864448Y-141135919D02*
X111093019Y-140907348D01*
X111093019Y-140907348D02*
X111435876Y-140793062D01*
X111435876Y-140793062D02*
X111664448Y-140793062D01*
X111664448Y-140793062D02*
X112007305Y-140907348D01*
X112007305Y-140907348D02*
X112121591Y-141021634D01*
X113035876Y-142507348D02*
X114178734Y-142507348D01*
X112807305Y-143193062D02*
X113607305Y-140793062D01*
X113607305Y-140793062D02*
X114407305Y-143193062D01*
X115207305Y-140793062D02*
X115207305Y-142735919D01*
X115207305Y-142735919D02*
X115321591Y-142964491D01*
X115321591Y-142964491D02*
X115435877Y-143078777D01*
X115435877Y-143078777D02*
X115664448Y-143193062D01*
X115664448Y-143193062D02*
X116121591Y-143193062D01*
X116121591Y-143193062D02*
X116350162Y-143078777D01*
X116350162Y-143078777D02*
X116464448Y-142964491D01*
X116464448Y-142964491D02*
X116578734Y-142735919D01*
X116578734Y-142735919D02*
X116578734Y-140793062D01*
X117378734Y-140793062D02*
X118750163Y-140793062D01*
X118064448Y-143193062D02*
X118064448Y-140793062D01*
X119550162Y-143193062D02*
X119550162Y-140793062D01*
X121150162Y-140793062D02*
X121607305Y-140793062D01*
X121607305Y-140793062D02*
X121835876Y-140907348D01*
X121835876Y-140907348D02*
X122064448Y-141135919D01*
X122064448Y-141135919D02*
X122178733Y-141593062D01*
X122178733Y-141593062D02*
X122178733Y-142393062D01*
X122178733Y-142393062D02*
X122064448Y-142850205D01*
X122064448Y-142850205D02*
X121835876Y-143078777D01*
X121835876Y-143078777D02*
X121607305Y-143193062D01*
X121607305Y-143193062D02*
X121150162Y-143193062D01*
X121150162Y-143193062D02*
X120921591Y-143078777D01*
X120921591Y-143078777D02*
X120693019Y-142850205D01*
X120693019Y-142850205D02*
X120578733Y-142393062D01*
X120578733Y-142393062D02*
X120578733Y-141593062D01*
X120578733Y-141593062D02*
X120693019Y-141135919D01*
X120693019Y-141135919D02*
X120921591Y-140907348D01*
X120921591Y-140907348D02*
X121150162Y-140793062D01*
X123207305Y-143193062D02*
X123207305Y-140793062D01*
X123207305Y-140793062D02*
X124578734Y-143193062D01*
X124578734Y-143193062D02*
X124578734Y-140793062D01*
D13*
X110606804Y-145138763D02*
X110606804Y-143738763D01*
X110606804Y-144405430D02*
X111406804Y-144405430D01*
X111406804Y-145138763D02*
X111406804Y-143738763D01*
X112340138Y-143738763D02*
X112606804Y-143738763D01*
X112606804Y-143738763D02*
X112740138Y-143805430D01*
X112740138Y-143805430D02*
X112873471Y-143938763D01*
X112873471Y-143938763D02*
X112940138Y-144205430D01*
X112940138Y-144205430D02*
X112940138Y-144672097D01*
X112940138Y-144672097D02*
X112873471Y-144938763D01*
X112873471Y-144938763D02*
X112740138Y-145072097D01*
X112740138Y-145072097D02*
X112606804Y-145138763D01*
X112606804Y-145138763D02*
X112340138Y-145138763D01*
X112340138Y-145138763D02*
X112206804Y-145072097D01*
X112206804Y-145072097D02*
X112073471Y-144938763D01*
X112073471Y-144938763D02*
X112006804Y-144672097D01*
X112006804Y-144672097D02*
X112006804Y-144205430D01*
X112006804Y-144205430D02*
X112073471Y-143938763D01*
X112073471Y-143938763D02*
X112206804Y-143805430D01*
X112206804Y-143805430D02*
X112340138Y-143738763D01*
X113340138Y-143738763D02*
X114140138Y-143738763D01*
X113740138Y-145138763D02*
X113740138Y-143738763D01*
X115606805Y-145072097D02*
X115806805Y-145138763D01*
X115806805Y-145138763D02*
X116140139Y-145138763D01*
X116140139Y-145138763D02*
X116273472Y-145072097D01*
X116273472Y-145072097D02*
X116340139Y-145005430D01*
X116340139Y-145005430D02*
X116406805Y-144872097D01*
X116406805Y-144872097D02*
X116406805Y-144738763D01*
X116406805Y-144738763D02*
X116340139Y-144605430D01*
X116340139Y-144605430D02*
X116273472Y-144538763D01*
X116273472Y-144538763D02*
X116140139Y-144472097D01*
X116140139Y-144472097D02*
X115873472Y-144405430D01*
X115873472Y-144405430D02*
X115740139Y-144338763D01*
X115740139Y-144338763D02*
X115673472Y-144272097D01*
X115673472Y-144272097D02*
X115606805Y-144138763D01*
X115606805Y-144138763D02*
X115606805Y-144005430D01*
X115606805Y-144005430D02*
X115673472Y-143872097D01*
X115673472Y-143872097D02*
X115740139Y-143805430D01*
X115740139Y-143805430D02*
X115873472Y-143738763D01*
X115873472Y-143738763D02*
X116206805Y-143738763D01*
X116206805Y-143738763D02*
X116406805Y-143805430D01*
X117006805Y-143738763D02*
X117006805Y-144872097D01*
X117006805Y-144872097D02*
X117073472Y-145005430D01*
X117073472Y-145005430D02*
X117140138Y-145072097D01*
X117140138Y-145072097D02*
X117273472Y-145138763D01*
X117273472Y-145138763D02*
X117540138Y-145138763D01*
X117540138Y-145138763D02*
X117673472Y-145072097D01*
X117673472Y-145072097D02*
X117740138Y-145005430D01*
X117740138Y-145005430D02*
X117806805Y-144872097D01*
X117806805Y-144872097D02*
X117806805Y-143738763D01*
X119273472Y-145138763D02*
X118806805Y-144472097D01*
X118473472Y-145138763D02*
X118473472Y-143738763D01*
X118473472Y-143738763D02*
X119006805Y-143738763D01*
X119006805Y-143738763D02*
X119140139Y-143805430D01*
X119140139Y-143805430D02*
X119206805Y-143872097D01*
X119206805Y-143872097D02*
X119273472Y-144005430D01*
X119273472Y-144005430D02*
X119273472Y-144205430D01*
X119273472Y-144205430D02*
X119206805Y-144338763D01*
X119206805Y-144338763D02*
X119140139Y-144405430D01*
X119140139Y-144405430D02*
X119006805Y-144472097D01*
X119006805Y-144472097D02*
X118473472Y-144472097D01*
X120340139Y-144405430D02*
X119873472Y-144405430D01*
X119873472Y-145138763D02*
X119873472Y-143738763D01*
X119873472Y-143738763D02*
X120540139Y-143738763D01*
X121006805Y-144738763D02*
X121673472Y-144738763D01*
X120873472Y-145138763D02*
X121340139Y-143738763D01*
X121340139Y-143738763D02*
X121806805Y-145138763D01*
X123073472Y-145005430D02*
X123006805Y-145072097D01*
X123006805Y-145072097D02*
X122806805Y-145138763D01*
X122806805Y-145138763D02*
X122673472Y-145138763D01*
X122673472Y-145138763D02*
X122473472Y-145072097D01*
X122473472Y-145072097D02*
X122340139Y-144938763D01*
X122340139Y-144938763D02*
X122273472Y-144805430D01*
X122273472Y-144805430D02*
X122206805Y-144538763D01*
X122206805Y-144538763D02*
X122206805Y-144338763D01*
X122206805Y-144338763D02*
X122273472Y-144072097D01*
X122273472Y-144072097D02*
X122340139Y-143938763D01*
X122340139Y-143938763D02*
X122473472Y-143805430D01*
X122473472Y-143805430D02*
X122673472Y-143738763D01*
X122673472Y-143738763D02*
X122806805Y-143738763D01*
X122806805Y-143738763D02*
X123006805Y-143805430D01*
X123006805Y-143805430D02*
X123073472Y-143872097D01*
X123673472Y-144405430D02*
X124140139Y-144405430D01*
X124340139Y-145138763D02*
X123673472Y-145138763D01*
X123673472Y-145138763D02*
X123673472Y-143738763D01*
X123673472Y-143738763D02*
X124340139Y-143738763D01*
D14*
X150758333Y-72134819D02*
X150425000Y-71658628D01*
X150186905Y-72134819D02*
X150186905Y-71134819D01*
X150186905Y-71134819D02*
X150567857Y-71134819D01*
X150567857Y-71134819D02*
X150663095Y-71182438D01*
X150663095Y-71182438D02*
X150710714Y-71230057D01*
X150710714Y-71230057D02*
X150758333Y-71325295D01*
X150758333Y-71325295D02*
X150758333Y-71468152D01*
X150758333Y-71468152D02*
X150710714Y-71563390D01*
X150710714Y-71563390D02*
X150663095Y-71611009D01*
X150663095Y-71611009D02*
X150567857Y-71658628D01*
X150567857Y-71658628D02*
X150186905Y-71658628D01*
X151234524Y-72134819D02*
X151425000Y-72134819D01*
X151425000Y-72134819D02*
X151520238Y-72087200D01*
X151520238Y-72087200D02*
X151567857Y-72039580D01*
X151567857Y-72039580D02*
X151663095Y-71896723D01*
X151663095Y-71896723D02*
X151710714Y-71706247D01*
X151710714Y-71706247D02*
X151710714Y-71325295D01*
X151710714Y-71325295D02*
X151663095Y-71230057D01*
X151663095Y-71230057D02*
X151615476Y-71182438D01*
X151615476Y-71182438D02*
X151520238Y-71134819D01*
X151520238Y-71134819D02*
X151329762Y-71134819D01*
X151329762Y-71134819D02*
X151234524Y-71182438D01*
X151234524Y-71182438D02*
X151186905Y-71230057D01*
X151186905Y-71230057D02*
X151139286Y-71325295D01*
X151139286Y-71325295D02*
X151139286Y-71563390D01*
X151139286Y-71563390D02*
X151186905Y-71658628D01*
X151186905Y-71658628D02*
X151234524Y-71706247D01*
X151234524Y-71706247D02*
X151329762Y-71753866D01*
X151329762Y-71753866D02*
X151520238Y-71753866D01*
X151520238Y-71753866D02*
X151615476Y-71706247D01*
X151615476Y-71706247D02*
X151663095Y-71658628D01*
X151663095Y-71658628D02*
X151710714Y-71563390D01*
X112523809Y-72178628D02*
X112523809Y-72654819D01*
X112190476Y-71654819D02*
X112523809Y-72178628D01*
X112523809Y-72178628D02*
X112857142Y-71654819D01*
X113714285Y-72654819D02*
X113142857Y-72654819D01*
X113428571Y-72654819D02*
X113428571Y-71654819D01*
X113428571Y-71654819D02*
X113333333Y-71797676D01*
X113333333Y-71797676D02*
X113238095Y-71892914D01*
X113238095Y-71892914D02*
X113142857Y-71940533D01*
X126533333Y-59959580D02*
X126485714Y-60007200D01*
X126485714Y-60007200D02*
X126342857Y-60054819D01*
X126342857Y-60054819D02*
X126247619Y-60054819D01*
X126247619Y-60054819D02*
X126104762Y-60007200D01*
X126104762Y-60007200D02*
X126009524Y-59911961D01*
X126009524Y-59911961D02*
X125961905Y-59816723D01*
X125961905Y-59816723D02*
X125914286Y-59626247D01*
X125914286Y-59626247D02*
X125914286Y-59483390D01*
X125914286Y-59483390D02*
X125961905Y-59292914D01*
X125961905Y-59292914D02*
X126009524Y-59197676D01*
X126009524Y-59197676D02*
X126104762Y-59102438D01*
X126104762Y-59102438D02*
X126247619Y-59054819D01*
X126247619Y-59054819D02*
X126342857Y-59054819D01*
X126342857Y-59054819D02*
X126485714Y-59102438D01*
X126485714Y-59102438D02*
X126533333Y-59150057D01*
X127390476Y-59388152D02*
X127390476Y-60054819D01*
X127152381Y-59007200D02*
X126914286Y-59721485D01*
X126914286Y-59721485D02*
X127533333Y-59721485D01*
X69238095Y-64154819D02*
X69238095Y-64964342D01*
X69238095Y-64964342D02*
X69285714Y-65059580D01*
X69285714Y-65059580D02*
X69333333Y-65107200D01*
X69333333Y-65107200D02*
X69428571Y-65154819D01*
X69428571Y-65154819D02*
X69619047Y-65154819D01*
X69619047Y-65154819D02*
X69714285Y-65107200D01*
X69714285Y-65107200D02*
X69761904Y-65059580D01*
X69761904Y-65059580D02*
X69809523Y-64964342D01*
X69809523Y-64964342D02*
X69809523Y-64154819D01*
X70714285Y-64488152D02*
X70714285Y-65154819D01*
X70476190Y-64107200D02*
X70238095Y-64821485D01*
X70238095Y-64821485D02*
X70857142Y-64821485D01*
X68838095Y-67954819D02*
X68838095Y-68764342D01*
X68838095Y-68764342D02*
X68885714Y-68859580D01*
X68885714Y-68859580D02*
X68933333Y-68907200D01*
X68933333Y-68907200D02*
X69028571Y-68954819D01*
X69028571Y-68954819D02*
X69219047Y-68954819D01*
X69219047Y-68954819D02*
X69314285Y-68907200D01*
X69314285Y-68907200D02*
X69361904Y-68859580D01*
X69361904Y-68859580D02*
X69409523Y-68764342D01*
X69409523Y-68764342D02*
X69409523Y-67954819D01*
X70314285Y-68288152D02*
X70314285Y-68954819D01*
X70076190Y-67907200D02*
X69838095Y-68621485D01*
X69838095Y-68621485D02*
X70457142Y-68621485D01*
X114557142Y-57359580D02*
X114509523Y-57407200D01*
X114509523Y-57407200D02*
X114366666Y-57454819D01*
X114366666Y-57454819D02*
X114271428Y-57454819D01*
X114271428Y-57454819D02*
X114128571Y-57407200D01*
X114128571Y-57407200D02*
X114033333Y-57311961D01*
X114033333Y-57311961D02*
X113985714Y-57216723D01*
X113985714Y-57216723D02*
X113938095Y-57026247D01*
X113938095Y-57026247D02*
X113938095Y-56883390D01*
X113938095Y-56883390D02*
X113985714Y-56692914D01*
X113985714Y-56692914D02*
X114033333Y-56597676D01*
X114033333Y-56597676D02*
X114128571Y-56502438D01*
X114128571Y-56502438D02*
X114271428Y-56454819D01*
X114271428Y-56454819D02*
X114366666Y-56454819D01*
X114366666Y-56454819D02*
X114509523Y-56502438D01*
X114509523Y-56502438D02*
X114557142Y-56550057D01*
X115509523Y-57454819D02*
X114938095Y-57454819D01*
X115223809Y-57454819D02*
X115223809Y-56454819D01*
X115223809Y-56454819D02*
X115128571Y-56597676D01*
X115128571Y-56597676D02*
X115033333Y-56692914D01*
X115033333Y-56692914D02*
X114938095Y-56740533D01*
X116080952Y-56883390D02*
X115985714Y-56835771D01*
X115985714Y-56835771D02*
X115938095Y-56788152D01*
X115938095Y-56788152D02*
X115890476Y-56692914D01*
X115890476Y-56692914D02*
X115890476Y-56645295D01*
X115890476Y-56645295D02*
X115938095Y-56550057D01*
X115938095Y-56550057D02*
X115985714Y-56502438D01*
X115985714Y-56502438D02*
X116080952Y-56454819D01*
X116080952Y-56454819D02*
X116271428Y-56454819D01*
X116271428Y-56454819D02*
X116366666Y-56502438D01*
X116366666Y-56502438D02*
X116414285Y-56550057D01*
X116414285Y-56550057D02*
X116461904Y-56645295D01*
X116461904Y-56645295D02*
X116461904Y-56692914D01*
X116461904Y-56692914D02*
X116414285Y-56788152D01*
X116414285Y-56788152D02*
X116366666Y-56835771D01*
X116366666Y-56835771D02*
X116271428Y-56883390D01*
X116271428Y-56883390D02*
X116080952Y-56883390D01*
X116080952Y-56883390D02*
X115985714Y-56931009D01*
X115985714Y-56931009D02*
X115938095Y-56978628D01*
X115938095Y-56978628D02*
X115890476Y-57073866D01*
X115890476Y-57073866D02*
X115890476Y-57264342D01*
X115890476Y-57264342D02*
X115938095Y-57359580D01*
X115938095Y-57359580D02*
X115985714Y-57407200D01*
X115985714Y-57407200D02*
X116080952Y-57454819D01*
X116080952Y-57454819D02*
X116271428Y-57454819D01*
X116271428Y-57454819D02*
X116366666Y-57407200D01*
X116366666Y-57407200D02*
X116414285Y-57359580D01*
X116414285Y-57359580D02*
X116461904Y-57264342D01*
X116461904Y-57264342D02*
X116461904Y-57073866D01*
X116461904Y-57073866D02*
X116414285Y-56978628D01*
X116414285Y-56978628D02*
X116366666Y-56931009D01*
X116366666Y-56931009D02*
X116271428Y-56883390D01*
X133733333Y-65259580D02*
X133685714Y-65307200D01*
X133685714Y-65307200D02*
X133542857Y-65354819D01*
X133542857Y-65354819D02*
X133447619Y-65354819D01*
X133447619Y-65354819D02*
X133304762Y-65307200D01*
X133304762Y-65307200D02*
X133209524Y-65211961D01*
X133209524Y-65211961D02*
X133161905Y-65116723D01*
X133161905Y-65116723D02*
X133114286Y-64926247D01*
X133114286Y-64926247D02*
X133114286Y-64783390D01*
X133114286Y-64783390D02*
X133161905Y-64592914D01*
X133161905Y-64592914D02*
X133209524Y-64497676D01*
X133209524Y-64497676D02*
X133304762Y-64402438D01*
X133304762Y-64402438D02*
X133447619Y-64354819D01*
X133447619Y-64354819D02*
X133542857Y-64354819D01*
X133542857Y-64354819D02*
X133685714Y-64402438D01*
X133685714Y-64402438D02*
X133733333Y-64450057D01*
X134066667Y-64354819D02*
X134733333Y-64354819D01*
X134733333Y-64354819D02*
X134304762Y-65354819D01*
X104084819Y-52442857D02*
X103608628Y-52776190D01*
X104084819Y-53014285D02*
X103084819Y-53014285D01*
X103084819Y-53014285D02*
X103084819Y-52633333D01*
X103084819Y-52633333D02*
X103132438Y-52538095D01*
X103132438Y-52538095D02*
X103180057Y-52490476D01*
X103180057Y-52490476D02*
X103275295Y-52442857D01*
X103275295Y-52442857D02*
X103418152Y-52442857D01*
X103418152Y-52442857D02*
X103513390Y-52490476D01*
X103513390Y-52490476D02*
X103561009Y-52538095D01*
X103561009Y-52538095D02*
X103608628Y-52633333D01*
X103608628Y-52633333D02*
X103608628Y-53014285D01*
X104084819Y-51490476D02*
X104084819Y-52061904D01*
X104084819Y-51776190D02*
X103084819Y-51776190D01*
X103084819Y-51776190D02*
X103227676Y-51871428D01*
X103227676Y-51871428D02*
X103322914Y-51966666D01*
X103322914Y-51966666D02*
X103370533Y-52061904D01*
X103180057Y-51109523D02*
X103132438Y-51061904D01*
X103132438Y-51061904D02*
X103084819Y-50966666D01*
X103084819Y-50966666D02*
X103084819Y-50728571D01*
X103084819Y-50728571D02*
X103132438Y-50633333D01*
X103132438Y-50633333D02*
X103180057Y-50585714D01*
X103180057Y-50585714D02*
X103275295Y-50538095D01*
X103275295Y-50538095D02*
X103370533Y-50538095D01*
X103370533Y-50538095D02*
X103513390Y-50585714D01*
X103513390Y-50585714D02*
X104084819Y-51157142D01*
X104084819Y-51157142D02*
X104084819Y-50538095D01*
X132533333Y-60529580D02*
X132485714Y-60577200D01*
X132485714Y-60577200D02*
X132342857Y-60624819D01*
X132342857Y-60624819D02*
X132247619Y-60624819D01*
X132247619Y-60624819D02*
X132104762Y-60577200D01*
X132104762Y-60577200D02*
X132009524Y-60481961D01*
X132009524Y-60481961D02*
X131961905Y-60386723D01*
X131961905Y-60386723D02*
X131914286Y-60196247D01*
X131914286Y-60196247D02*
X131914286Y-60053390D01*
X131914286Y-60053390D02*
X131961905Y-59862914D01*
X131961905Y-59862914D02*
X132009524Y-59767676D01*
X132009524Y-59767676D02*
X132104762Y-59672438D01*
X132104762Y-59672438D02*
X132247619Y-59624819D01*
X132247619Y-59624819D02*
X132342857Y-59624819D01*
X132342857Y-59624819D02*
X132485714Y-59672438D01*
X132485714Y-59672438D02*
X132533333Y-59720057D01*
X133104762Y-60053390D02*
X133009524Y-60005771D01*
X133009524Y-60005771D02*
X132961905Y-59958152D01*
X132961905Y-59958152D02*
X132914286Y-59862914D01*
X132914286Y-59862914D02*
X132914286Y-59815295D01*
X132914286Y-59815295D02*
X132961905Y-59720057D01*
X132961905Y-59720057D02*
X133009524Y-59672438D01*
X133009524Y-59672438D02*
X133104762Y-59624819D01*
X133104762Y-59624819D02*
X133295238Y-59624819D01*
X133295238Y-59624819D02*
X133390476Y-59672438D01*
X133390476Y-59672438D02*
X133438095Y-59720057D01*
X133438095Y-59720057D02*
X133485714Y-59815295D01*
X133485714Y-59815295D02*
X133485714Y-59862914D01*
X133485714Y-59862914D02*
X133438095Y-59958152D01*
X133438095Y-59958152D02*
X133390476Y-60005771D01*
X133390476Y-60005771D02*
X133295238Y-60053390D01*
X133295238Y-60053390D02*
X133104762Y-60053390D01*
X133104762Y-60053390D02*
X133009524Y-60101009D01*
X133009524Y-60101009D02*
X132961905Y-60148628D01*
X132961905Y-60148628D02*
X132914286Y-60243866D01*
X132914286Y-60243866D02*
X132914286Y-60434342D01*
X132914286Y-60434342D02*
X132961905Y-60529580D01*
X132961905Y-60529580D02*
X133009524Y-60577200D01*
X133009524Y-60577200D02*
X133104762Y-60624819D01*
X133104762Y-60624819D02*
X133295238Y-60624819D01*
X133295238Y-60624819D02*
X133390476Y-60577200D01*
X133390476Y-60577200D02*
X133438095Y-60529580D01*
X133438095Y-60529580D02*
X133485714Y-60434342D01*
X133485714Y-60434342D02*
X133485714Y-60243866D01*
X133485714Y-60243866D02*
X133438095Y-60148628D01*
X133438095Y-60148628D02*
X133390476Y-60101009D01*
X133390476Y-60101009D02*
X133295238Y-60053390D01*
X122959580Y-54642857D02*
X123007200Y-54690476D01*
X123007200Y-54690476D02*
X123054819Y-54833333D01*
X123054819Y-54833333D02*
X123054819Y-54928571D01*
X123054819Y-54928571D02*
X123007200Y-55071428D01*
X123007200Y-55071428D02*
X122911961Y-55166666D01*
X122911961Y-55166666D02*
X122816723Y-55214285D01*
X122816723Y-55214285D02*
X122626247Y-55261904D01*
X122626247Y-55261904D02*
X122483390Y-55261904D01*
X122483390Y-55261904D02*
X122292914Y-55214285D01*
X122292914Y-55214285D02*
X122197676Y-55166666D01*
X122197676Y-55166666D02*
X122102438Y-55071428D01*
X122102438Y-55071428D02*
X122054819Y-54928571D01*
X122054819Y-54928571D02*
X122054819Y-54833333D01*
X122054819Y-54833333D02*
X122102438Y-54690476D01*
X122102438Y-54690476D02*
X122150057Y-54642857D01*
X123054819Y-53690476D02*
X123054819Y-54261904D01*
X123054819Y-53976190D02*
X122054819Y-53976190D01*
X122054819Y-53976190D02*
X122197676Y-54071428D01*
X122197676Y-54071428D02*
X122292914Y-54166666D01*
X122292914Y-54166666D02*
X122340533Y-54261904D01*
X122054819Y-52785714D02*
X122054819Y-53261904D01*
X122054819Y-53261904D02*
X122531009Y-53309523D01*
X122531009Y-53309523D02*
X122483390Y-53261904D01*
X122483390Y-53261904D02*
X122435771Y-53166666D01*
X122435771Y-53166666D02*
X122435771Y-52928571D01*
X122435771Y-52928571D02*
X122483390Y-52833333D01*
X122483390Y-52833333D02*
X122531009Y-52785714D01*
X122531009Y-52785714D02*
X122626247Y-52738095D01*
X122626247Y-52738095D02*
X122864342Y-52738095D01*
X122864342Y-52738095D02*
X122959580Y-52785714D01*
X122959580Y-52785714D02*
X123007200Y-52833333D01*
X123007200Y-52833333D02*
X123054819Y-52928571D01*
X123054819Y-52928571D02*
X123054819Y-53166666D01*
X123054819Y-53166666D02*
X123007200Y-53261904D01*
X123007200Y-53261904D02*
X122959580Y-53309523D01*
X115233333Y-52224819D02*
X114900000Y-51748628D01*
X114661905Y-52224819D02*
X114661905Y-51224819D01*
X114661905Y-51224819D02*
X115042857Y-51224819D01*
X115042857Y-51224819D02*
X115138095Y-51272438D01*
X115138095Y-51272438D02*
X115185714Y-51320057D01*
X115185714Y-51320057D02*
X115233333Y-51415295D01*
X115233333Y-51415295D02*
X115233333Y-51558152D01*
X115233333Y-51558152D02*
X115185714Y-51653390D01*
X115185714Y-51653390D02*
X115138095Y-51701009D01*
X115138095Y-51701009D02*
X115042857Y-51748628D01*
X115042857Y-51748628D02*
X114661905Y-51748628D01*
X115566667Y-51224819D02*
X116233333Y-51224819D01*
X116233333Y-51224819D02*
X115804762Y-52224819D01*
X115633333Y-68054819D02*
X115300000Y-67578628D01*
X115061905Y-68054819D02*
X115061905Y-67054819D01*
X115061905Y-67054819D02*
X115442857Y-67054819D01*
X115442857Y-67054819D02*
X115538095Y-67102438D01*
X115538095Y-67102438D02*
X115585714Y-67150057D01*
X115585714Y-67150057D02*
X115633333Y-67245295D01*
X115633333Y-67245295D02*
X115633333Y-67388152D01*
X115633333Y-67388152D02*
X115585714Y-67483390D01*
X115585714Y-67483390D02*
X115538095Y-67531009D01*
X115538095Y-67531009D02*
X115442857Y-67578628D01*
X115442857Y-67578628D02*
X115061905Y-67578628D01*
X116585714Y-68054819D02*
X116014286Y-68054819D01*
X116300000Y-68054819D02*
X116300000Y-67054819D01*
X116300000Y-67054819D02*
X116204762Y-67197676D01*
X116204762Y-67197676D02*
X116109524Y-67292914D01*
X116109524Y-67292914D02*
X116014286Y-67340533D01*
X142166667Y-55907200D02*
X142309524Y-55954819D01*
X142309524Y-55954819D02*
X142547619Y-55954819D01*
X142547619Y-55954819D02*
X142642857Y-55907200D01*
X142642857Y-55907200D02*
X142690476Y-55859580D01*
X142690476Y-55859580D02*
X142738095Y-55764342D01*
X142738095Y-55764342D02*
X142738095Y-55669104D01*
X142738095Y-55669104D02*
X142690476Y-55573866D01*
X142690476Y-55573866D02*
X142642857Y-55526247D01*
X142642857Y-55526247D02*
X142547619Y-55478628D01*
X142547619Y-55478628D02*
X142357143Y-55431009D01*
X142357143Y-55431009D02*
X142261905Y-55383390D01*
X142261905Y-55383390D02*
X142214286Y-55335771D01*
X142214286Y-55335771D02*
X142166667Y-55240533D01*
X142166667Y-55240533D02*
X142166667Y-55145295D01*
X142166667Y-55145295D02*
X142214286Y-55050057D01*
X142214286Y-55050057D02*
X142261905Y-55002438D01*
X142261905Y-55002438D02*
X142357143Y-54954819D01*
X142357143Y-54954819D02*
X142595238Y-54954819D01*
X142595238Y-54954819D02*
X142738095Y-55002438D01*
X143071429Y-54954819D02*
X143309524Y-55954819D01*
X143309524Y-55954819D02*
X143500000Y-55240533D01*
X143500000Y-55240533D02*
X143690476Y-55954819D01*
X143690476Y-55954819D02*
X143928572Y-54954819D01*
X144261905Y-55050057D02*
X144309524Y-55002438D01*
X144309524Y-55002438D02*
X144404762Y-54954819D01*
X144404762Y-54954819D02*
X144642857Y-54954819D01*
X144642857Y-54954819D02*
X144738095Y-55002438D01*
X144738095Y-55002438D02*
X144785714Y-55050057D01*
X144785714Y-55050057D02*
X144833333Y-55145295D01*
X144833333Y-55145295D02*
X144833333Y-55240533D01*
X144833333Y-55240533D02*
X144785714Y-55383390D01*
X144785714Y-55383390D02*
X144214286Y-55954819D01*
X144214286Y-55954819D02*
X144833333Y-55954819D01*
X138833333Y-57659580D02*
X138785714Y-57707200D01*
X138785714Y-57707200D02*
X138642857Y-57754819D01*
X138642857Y-57754819D02*
X138547619Y-57754819D01*
X138547619Y-57754819D02*
X138404762Y-57707200D01*
X138404762Y-57707200D02*
X138309524Y-57611961D01*
X138309524Y-57611961D02*
X138261905Y-57516723D01*
X138261905Y-57516723D02*
X138214286Y-57326247D01*
X138214286Y-57326247D02*
X138214286Y-57183390D01*
X138214286Y-57183390D02*
X138261905Y-56992914D01*
X138261905Y-56992914D02*
X138309524Y-56897676D01*
X138309524Y-56897676D02*
X138404762Y-56802438D01*
X138404762Y-56802438D02*
X138547619Y-56754819D01*
X138547619Y-56754819D02*
X138642857Y-56754819D01*
X138642857Y-56754819D02*
X138785714Y-56802438D01*
X138785714Y-56802438D02*
X138833333Y-56850057D01*
X139214286Y-56850057D02*
X139261905Y-56802438D01*
X139261905Y-56802438D02*
X139357143Y-56754819D01*
X139357143Y-56754819D02*
X139595238Y-56754819D01*
X139595238Y-56754819D02*
X139690476Y-56802438D01*
X139690476Y-56802438D02*
X139738095Y-56850057D01*
X139738095Y-56850057D02*
X139785714Y-56945295D01*
X139785714Y-56945295D02*
X139785714Y-57040533D01*
X139785714Y-57040533D02*
X139738095Y-57183390D01*
X139738095Y-57183390D02*
X139166667Y-57754819D01*
X139166667Y-57754819D02*
X139785714Y-57754819D01*
X119266666Y-50854819D02*
X119266666Y-51569104D01*
X119266666Y-51569104D02*
X119219047Y-51711961D01*
X119219047Y-51711961D02*
X119123809Y-51807200D01*
X119123809Y-51807200D02*
X118980952Y-51854819D01*
X118980952Y-51854819D02*
X118885714Y-51854819D01*
X120266666Y-51854819D02*
X119695238Y-51854819D01*
X119980952Y-51854819D02*
X119980952Y-50854819D01*
X119980952Y-50854819D02*
X119885714Y-50997676D01*
X119885714Y-50997676D02*
X119790476Y-51092914D01*
X119790476Y-51092914D02*
X119695238Y-51140533D01*
X108057142Y-62654819D02*
X107723809Y-62178628D01*
X107485714Y-62654819D02*
X107485714Y-61654819D01*
X107485714Y-61654819D02*
X107866666Y-61654819D01*
X107866666Y-61654819D02*
X107961904Y-61702438D01*
X107961904Y-61702438D02*
X108009523Y-61750057D01*
X108009523Y-61750057D02*
X108057142Y-61845295D01*
X108057142Y-61845295D02*
X108057142Y-61988152D01*
X108057142Y-61988152D02*
X108009523Y-62083390D01*
X108009523Y-62083390D02*
X107961904Y-62131009D01*
X107961904Y-62131009D02*
X107866666Y-62178628D01*
X107866666Y-62178628D02*
X107485714Y-62178628D01*
X109009523Y-62654819D02*
X108438095Y-62654819D01*
X108723809Y-62654819D02*
X108723809Y-61654819D01*
X108723809Y-61654819D02*
X108628571Y-61797676D01*
X108628571Y-61797676D02*
X108533333Y-61892914D01*
X108533333Y-61892914D02*
X108438095Y-61940533D01*
X109914285Y-61654819D02*
X109438095Y-61654819D01*
X109438095Y-61654819D02*
X109390476Y-62131009D01*
X109390476Y-62131009D02*
X109438095Y-62083390D01*
X109438095Y-62083390D02*
X109533333Y-62035771D01*
X109533333Y-62035771D02*
X109771428Y-62035771D01*
X109771428Y-62035771D02*
X109866666Y-62083390D01*
X109866666Y-62083390D02*
X109914285Y-62131009D01*
X109914285Y-62131009D02*
X109961904Y-62226247D01*
X109961904Y-62226247D02*
X109961904Y-62464342D01*
X109961904Y-62464342D02*
X109914285Y-62559580D01*
X109914285Y-62559580D02*
X109866666Y-62607200D01*
X109866666Y-62607200D02*
X109771428Y-62654819D01*
X109771428Y-62654819D02*
X109533333Y-62654819D01*
X109533333Y-62654819D02*
X109438095Y-62607200D01*
X109438095Y-62607200D02*
X109390476Y-62559580D01*
X131957142Y-68954819D02*
X131623809Y-68478628D01*
X131385714Y-68954819D02*
X131385714Y-67954819D01*
X131385714Y-67954819D02*
X131766666Y-67954819D01*
X131766666Y-67954819D02*
X131861904Y-68002438D01*
X131861904Y-68002438D02*
X131909523Y-68050057D01*
X131909523Y-68050057D02*
X131957142Y-68145295D01*
X131957142Y-68145295D02*
X131957142Y-68288152D01*
X131957142Y-68288152D02*
X131909523Y-68383390D01*
X131909523Y-68383390D02*
X131861904Y-68431009D01*
X131861904Y-68431009D02*
X131766666Y-68478628D01*
X131766666Y-68478628D02*
X131385714Y-68478628D01*
X132909523Y-68954819D02*
X132338095Y-68954819D01*
X132623809Y-68954819D02*
X132623809Y-67954819D01*
X132623809Y-67954819D02*
X132528571Y-68097676D01*
X132528571Y-68097676D02*
X132433333Y-68192914D01*
X132433333Y-68192914D02*
X132338095Y-68240533D01*
X133480952Y-68383390D02*
X133385714Y-68335771D01*
X133385714Y-68335771D02*
X133338095Y-68288152D01*
X133338095Y-68288152D02*
X133290476Y-68192914D01*
X133290476Y-68192914D02*
X133290476Y-68145295D01*
X133290476Y-68145295D02*
X133338095Y-68050057D01*
X133338095Y-68050057D02*
X133385714Y-68002438D01*
X133385714Y-68002438D02*
X133480952Y-67954819D01*
X133480952Y-67954819D02*
X133671428Y-67954819D01*
X133671428Y-67954819D02*
X133766666Y-68002438D01*
X133766666Y-68002438D02*
X133814285Y-68050057D01*
X133814285Y-68050057D02*
X133861904Y-68145295D01*
X133861904Y-68145295D02*
X133861904Y-68192914D01*
X133861904Y-68192914D02*
X133814285Y-68288152D01*
X133814285Y-68288152D02*
X133766666Y-68335771D01*
X133766666Y-68335771D02*
X133671428Y-68383390D01*
X133671428Y-68383390D02*
X133480952Y-68383390D01*
X133480952Y-68383390D02*
X133385714Y-68431009D01*
X133385714Y-68431009D02*
X133338095Y-68478628D01*
X133338095Y-68478628D02*
X133290476Y-68573866D01*
X133290476Y-68573866D02*
X133290476Y-68764342D01*
X133290476Y-68764342D02*
X133338095Y-68859580D01*
X133338095Y-68859580D02*
X133385714Y-68907200D01*
X133385714Y-68907200D02*
X133480952Y-68954819D01*
X133480952Y-68954819D02*
X133671428Y-68954819D01*
X133671428Y-68954819D02*
X133766666Y-68907200D01*
X133766666Y-68907200D02*
X133814285Y-68859580D01*
X133814285Y-68859580D02*
X133861904Y-68764342D01*
X133861904Y-68764342D02*
X133861904Y-68573866D01*
X133861904Y-68573866D02*
X133814285Y-68478628D01*
X133814285Y-68478628D02*
X133766666Y-68431009D01*
X133766666Y-68431009D02*
X133671428Y-68383390D01*
X110461905Y-73454819D02*
X110461905Y-72454819D01*
X110461905Y-72454819D02*
X110700000Y-72454819D01*
X110700000Y-72454819D02*
X110842857Y-72502438D01*
X110842857Y-72502438D02*
X110938095Y-72597676D01*
X110938095Y-72597676D02*
X110985714Y-72692914D01*
X110985714Y-72692914D02*
X111033333Y-72883390D01*
X111033333Y-72883390D02*
X111033333Y-73026247D01*
X111033333Y-73026247D02*
X110985714Y-73216723D01*
X110985714Y-73216723D02*
X110938095Y-73311961D01*
X110938095Y-73311961D02*
X110842857Y-73407200D01*
X110842857Y-73407200D02*
X110700000Y-73454819D01*
X110700000Y-73454819D02*
X110461905Y-73454819D01*
X111985714Y-73454819D02*
X111414286Y-73454819D01*
X111700000Y-73454819D02*
X111700000Y-72454819D01*
X111700000Y-72454819D02*
X111604762Y-72597676D01*
X111604762Y-72597676D02*
X111509524Y-72692914D01*
X111509524Y-72692914D02*
X111414286Y-72740533D01*
X139633333Y-69329580D02*
X139585714Y-69377200D01*
X139585714Y-69377200D02*
X139442857Y-69424819D01*
X139442857Y-69424819D02*
X139347619Y-69424819D01*
X139347619Y-69424819D02*
X139204762Y-69377200D01*
X139204762Y-69377200D02*
X139109524Y-69281961D01*
X139109524Y-69281961D02*
X139061905Y-69186723D01*
X139061905Y-69186723D02*
X139014286Y-68996247D01*
X139014286Y-68996247D02*
X139014286Y-68853390D01*
X139014286Y-68853390D02*
X139061905Y-68662914D01*
X139061905Y-68662914D02*
X139109524Y-68567676D01*
X139109524Y-68567676D02*
X139204762Y-68472438D01*
X139204762Y-68472438D02*
X139347619Y-68424819D01*
X139347619Y-68424819D02*
X139442857Y-68424819D01*
X139442857Y-68424819D02*
X139585714Y-68472438D01*
X139585714Y-68472438D02*
X139633333Y-68520057D01*
X140490476Y-68424819D02*
X140300000Y-68424819D01*
X140300000Y-68424819D02*
X140204762Y-68472438D01*
X140204762Y-68472438D02*
X140157143Y-68520057D01*
X140157143Y-68520057D02*
X140061905Y-68662914D01*
X140061905Y-68662914D02*
X140014286Y-68853390D01*
X140014286Y-68853390D02*
X140014286Y-69234342D01*
X140014286Y-69234342D02*
X140061905Y-69329580D01*
X140061905Y-69329580D02*
X140109524Y-69377200D01*
X140109524Y-69377200D02*
X140204762Y-69424819D01*
X140204762Y-69424819D02*
X140395238Y-69424819D01*
X140395238Y-69424819D02*
X140490476Y-69377200D01*
X140490476Y-69377200D02*
X140538095Y-69329580D01*
X140538095Y-69329580D02*
X140585714Y-69234342D01*
X140585714Y-69234342D02*
X140585714Y-68996247D01*
X140585714Y-68996247D02*
X140538095Y-68901009D01*
X140538095Y-68901009D02*
X140490476Y-68853390D01*
X140490476Y-68853390D02*
X140395238Y-68805771D01*
X140395238Y-68805771D02*
X140204762Y-68805771D01*
X140204762Y-68805771D02*
X140109524Y-68853390D01*
X140109524Y-68853390D02*
X140061905Y-68901009D01*
X140061905Y-68901009D02*
X140014286Y-68996247D01*
X146833333Y-57954819D02*
X146500000Y-57478628D01*
X146261905Y-57954819D02*
X146261905Y-56954819D01*
X146261905Y-56954819D02*
X146642857Y-56954819D01*
X146642857Y-56954819D02*
X146738095Y-57002438D01*
X146738095Y-57002438D02*
X146785714Y-57050057D01*
X146785714Y-57050057D02*
X146833333Y-57145295D01*
X146833333Y-57145295D02*
X146833333Y-57288152D01*
X146833333Y-57288152D02*
X146785714Y-57383390D01*
X146785714Y-57383390D02*
X146738095Y-57431009D01*
X146738095Y-57431009D02*
X146642857Y-57478628D01*
X146642857Y-57478628D02*
X146261905Y-57478628D01*
X147690476Y-57288152D02*
X147690476Y-57954819D01*
X147452381Y-56907200D02*
X147214286Y-57621485D01*
X147214286Y-57621485D02*
X147833333Y-57621485D01*
X64488095Y-50204819D02*
X64488095Y-49204819D01*
X64488095Y-49681009D02*
X65059523Y-49681009D01*
X65059523Y-50204819D02*
X65059523Y-49204819D01*
X65488095Y-49300057D02*
X65535714Y-49252438D01*
X65535714Y-49252438D02*
X65630952Y-49204819D01*
X65630952Y-49204819D02*
X65869047Y-49204819D01*
X65869047Y-49204819D02*
X65964285Y-49252438D01*
X65964285Y-49252438D02*
X66011904Y-49300057D01*
X66011904Y-49300057D02*
X66059523Y-49395295D01*
X66059523Y-49395295D02*
X66059523Y-49490533D01*
X66059523Y-49490533D02*
X66011904Y-49633390D01*
X66011904Y-49633390D02*
X65440476Y-50204819D01*
X65440476Y-50204819D02*
X66059523Y-50204819D01*
X90957142Y-60059580D02*
X90909523Y-60107200D01*
X90909523Y-60107200D02*
X90766666Y-60154819D01*
X90766666Y-60154819D02*
X90671428Y-60154819D01*
X90671428Y-60154819D02*
X90528571Y-60107200D01*
X90528571Y-60107200D02*
X90433333Y-60011961D01*
X90433333Y-60011961D02*
X90385714Y-59916723D01*
X90385714Y-59916723D02*
X90338095Y-59726247D01*
X90338095Y-59726247D02*
X90338095Y-59583390D01*
X90338095Y-59583390D02*
X90385714Y-59392914D01*
X90385714Y-59392914D02*
X90433333Y-59297676D01*
X90433333Y-59297676D02*
X90528571Y-59202438D01*
X90528571Y-59202438D02*
X90671428Y-59154819D01*
X90671428Y-59154819D02*
X90766666Y-59154819D01*
X90766666Y-59154819D02*
X90909523Y-59202438D01*
X90909523Y-59202438D02*
X90957142Y-59250057D01*
X91909523Y-60154819D02*
X91338095Y-60154819D01*
X91623809Y-60154819D02*
X91623809Y-59154819D01*
X91623809Y-59154819D02*
X91528571Y-59297676D01*
X91528571Y-59297676D02*
X91433333Y-59392914D01*
X91433333Y-59392914D02*
X91338095Y-59440533D01*
X92242857Y-59154819D02*
X92909523Y-59154819D01*
X92909523Y-59154819D02*
X92480952Y-60154819D01*
X124559580Y-54642857D02*
X124607200Y-54690476D01*
X124607200Y-54690476D02*
X124654819Y-54833333D01*
X124654819Y-54833333D02*
X124654819Y-54928571D01*
X124654819Y-54928571D02*
X124607200Y-55071428D01*
X124607200Y-55071428D02*
X124511961Y-55166666D01*
X124511961Y-55166666D02*
X124416723Y-55214285D01*
X124416723Y-55214285D02*
X124226247Y-55261904D01*
X124226247Y-55261904D02*
X124083390Y-55261904D01*
X124083390Y-55261904D02*
X123892914Y-55214285D01*
X123892914Y-55214285D02*
X123797676Y-55166666D01*
X123797676Y-55166666D02*
X123702438Y-55071428D01*
X123702438Y-55071428D02*
X123654819Y-54928571D01*
X123654819Y-54928571D02*
X123654819Y-54833333D01*
X123654819Y-54833333D02*
X123702438Y-54690476D01*
X123702438Y-54690476D02*
X123750057Y-54642857D01*
X124654819Y-53690476D02*
X124654819Y-54261904D01*
X124654819Y-53976190D02*
X123654819Y-53976190D01*
X123654819Y-53976190D02*
X123797676Y-54071428D01*
X123797676Y-54071428D02*
X123892914Y-54166666D01*
X123892914Y-54166666D02*
X123940533Y-54261904D01*
X123750057Y-53309523D02*
X123702438Y-53261904D01*
X123702438Y-53261904D02*
X123654819Y-53166666D01*
X123654819Y-53166666D02*
X123654819Y-52928571D01*
X123654819Y-52928571D02*
X123702438Y-52833333D01*
X123702438Y-52833333D02*
X123750057Y-52785714D01*
X123750057Y-52785714D02*
X123845295Y-52738095D01*
X123845295Y-52738095D02*
X123940533Y-52738095D01*
X123940533Y-52738095D02*
X124083390Y-52785714D01*
X124083390Y-52785714D02*
X124654819Y-53357142D01*
X124654819Y-53357142D02*
X124654819Y-52738095D01*
X166554819Y-73885713D02*
X166554819Y-73314285D01*
X167554819Y-73599999D02*
X166554819Y-73599999D01*
X167031009Y-72980951D02*
X167031009Y-72647618D01*
X167554819Y-72504761D02*
X167554819Y-72980951D01*
X167554819Y-72980951D02*
X166554819Y-72980951D01*
X166554819Y-72980951D02*
X166554819Y-72504761D01*
X167554819Y-72076189D02*
X166554819Y-72076189D01*
X166554819Y-72076189D02*
X167269104Y-71742856D01*
X167269104Y-71742856D02*
X166554819Y-71409523D01*
X166554819Y-71409523D02*
X167554819Y-71409523D01*
X167554819Y-70933332D02*
X166554819Y-70933332D01*
X166554819Y-70933332D02*
X166554819Y-70552380D01*
X166554819Y-70552380D02*
X166602438Y-70457142D01*
X166602438Y-70457142D02*
X166650057Y-70409523D01*
X166650057Y-70409523D02*
X166745295Y-70361904D01*
X166745295Y-70361904D02*
X166888152Y-70361904D01*
X166888152Y-70361904D02*
X166983390Y-70409523D01*
X166983390Y-70409523D02*
X167031009Y-70457142D01*
X167031009Y-70457142D02*
X167078628Y-70552380D01*
X167078628Y-70552380D02*
X167078628Y-70933332D01*
X166650057Y-69980951D02*
X166602438Y-69933332D01*
X166602438Y-69933332D02*
X166554819Y-69838094D01*
X166554819Y-69838094D02*
X166554819Y-69599999D01*
X166554819Y-69599999D02*
X166602438Y-69504761D01*
X166602438Y-69504761D02*
X166650057Y-69457142D01*
X166650057Y-69457142D02*
X166745295Y-69409523D01*
X166745295Y-69409523D02*
X166840533Y-69409523D01*
X166840533Y-69409523D02*
X166983390Y-69457142D01*
X166983390Y-69457142D02*
X167554819Y-70028570D01*
X167554819Y-70028570D02*
X167554819Y-69409523D01*
X107557142Y-70754819D02*
X107223809Y-70278628D01*
X106985714Y-70754819D02*
X106985714Y-69754819D01*
X106985714Y-69754819D02*
X107366666Y-69754819D01*
X107366666Y-69754819D02*
X107461904Y-69802438D01*
X107461904Y-69802438D02*
X107509523Y-69850057D01*
X107509523Y-69850057D02*
X107557142Y-69945295D01*
X107557142Y-69945295D02*
X107557142Y-70088152D01*
X107557142Y-70088152D02*
X107509523Y-70183390D01*
X107509523Y-70183390D02*
X107461904Y-70231009D01*
X107461904Y-70231009D02*
X107366666Y-70278628D01*
X107366666Y-70278628D02*
X106985714Y-70278628D01*
X108509523Y-70754819D02*
X107938095Y-70754819D01*
X108223809Y-70754819D02*
X108223809Y-69754819D01*
X108223809Y-69754819D02*
X108128571Y-69897676D01*
X108128571Y-69897676D02*
X108033333Y-69992914D01*
X108033333Y-69992914D02*
X107938095Y-70040533D01*
X109128571Y-69754819D02*
X109223809Y-69754819D01*
X109223809Y-69754819D02*
X109319047Y-69802438D01*
X109319047Y-69802438D02*
X109366666Y-69850057D01*
X109366666Y-69850057D02*
X109414285Y-69945295D01*
X109414285Y-69945295D02*
X109461904Y-70135771D01*
X109461904Y-70135771D02*
X109461904Y-70373866D01*
X109461904Y-70373866D02*
X109414285Y-70564342D01*
X109414285Y-70564342D02*
X109366666Y-70659580D01*
X109366666Y-70659580D02*
X109319047Y-70707200D01*
X109319047Y-70707200D02*
X109223809Y-70754819D01*
X109223809Y-70754819D02*
X109128571Y-70754819D01*
X109128571Y-70754819D02*
X109033333Y-70707200D01*
X109033333Y-70707200D02*
X108985714Y-70659580D01*
X108985714Y-70659580D02*
X108938095Y-70564342D01*
X108938095Y-70564342D02*
X108890476Y-70373866D01*
X108890476Y-70373866D02*
X108890476Y-70135771D01*
X108890476Y-70135771D02*
X108938095Y-69945295D01*
X108938095Y-69945295D02*
X108985714Y-69850057D01*
X108985714Y-69850057D02*
X109033333Y-69802438D01*
X109033333Y-69802438D02*
X109128571Y-69754819D01*
X132366667Y-56107200D02*
X132509524Y-56154819D01*
X132509524Y-56154819D02*
X132747619Y-56154819D01*
X132747619Y-56154819D02*
X132842857Y-56107200D01*
X132842857Y-56107200D02*
X132890476Y-56059580D01*
X132890476Y-56059580D02*
X132938095Y-55964342D01*
X132938095Y-55964342D02*
X132938095Y-55869104D01*
X132938095Y-55869104D02*
X132890476Y-55773866D01*
X132890476Y-55773866D02*
X132842857Y-55726247D01*
X132842857Y-55726247D02*
X132747619Y-55678628D01*
X132747619Y-55678628D02*
X132557143Y-55631009D01*
X132557143Y-55631009D02*
X132461905Y-55583390D01*
X132461905Y-55583390D02*
X132414286Y-55535771D01*
X132414286Y-55535771D02*
X132366667Y-55440533D01*
X132366667Y-55440533D02*
X132366667Y-55345295D01*
X132366667Y-55345295D02*
X132414286Y-55250057D01*
X132414286Y-55250057D02*
X132461905Y-55202438D01*
X132461905Y-55202438D02*
X132557143Y-55154819D01*
X132557143Y-55154819D02*
X132795238Y-55154819D01*
X132795238Y-55154819D02*
X132938095Y-55202438D01*
X133271429Y-55154819D02*
X133509524Y-56154819D01*
X133509524Y-56154819D02*
X133700000Y-55440533D01*
X133700000Y-55440533D02*
X133890476Y-56154819D01*
X133890476Y-56154819D02*
X134128572Y-55154819D01*
X135033333Y-56154819D02*
X134461905Y-56154819D01*
X134747619Y-56154819D02*
X134747619Y-55154819D01*
X134747619Y-55154819D02*
X134652381Y-55297676D01*
X134652381Y-55297676D02*
X134557143Y-55392914D01*
X134557143Y-55392914D02*
X134461905Y-55440533D01*
X131857142Y-72654819D02*
X131523809Y-72178628D01*
X131285714Y-72654819D02*
X131285714Y-71654819D01*
X131285714Y-71654819D02*
X131666666Y-71654819D01*
X131666666Y-71654819D02*
X131761904Y-71702438D01*
X131761904Y-71702438D02*
X131809523Y-71750057D01*
X131809523Y-71750057D02*
X131857142Y-71845295D01*
X131857142Y-71845295D02*
X131857142Y-71988152D01*
X131857142Y-71988152D02*
X131809523Y-72083390D01*
X131809523Y-72083390D02*
X131761904Y-72131009D01*
X131761904Y-72131009D02*
X131666666Y-72178628D01*
X131666666Y-72178628D02*
X131285714Y-72178628D01*
X132809523Y-72654819D02*
X132238095Y-72654819D01*
X132523809Y-72654819D02*
X132523809Y-71654819D01*
X132523809Y-71654819D02*
X132428571Y-71797676D01*
X132428571Y-71797676D02*
X132333333Y-71892914D01*
X132333333Y-71892914D02*
X132238095Y-71940533D01*
X133666666Y-71654819D02*
X133476190Y-71654819D01*
X133476190Y-71654819D02*
X133380952Y-71702438D01*
X133380952Y-71702438D02*
X133333333Y-71750057D01*
X133333333Y-71750057D02*
X133238095Y-71892914D01*
X133238095Y-71892914D02*
X133190476Y-72083390D01*
X133190476Y-72083390D02*
X133190476Y-72464342D01*
X133190476Y-72464342D02*
X133238095Y-72559580D01*
X133238095Y-72559580D02*
X133285714Y-72607200D01*
X133285714Y-72607200D02*
X133380952Y-72654819D01*
X133380952Y-72654819D02*
X133571428Y-72654819D01*
X133571428Y-72654819D02*
X133666666Y-72607200D01*
X133666666Y-72607200D02*
X133714285Y-72559580D01*
X133714285Y-72559580D02*
X133761904Y-72464342D01*
X133761904Y-72464342D02*
X133761904Y-72226247D01*
X133761904Y-72226247D02*
X133714285Y-72131009D01*
X133714285Y-72131009D02*
X133666666Y-72083390D01*
X133666666Y-72083390D02*
X133571428Y-72035771D01*
X133571428Y-72035771D02*
X133380952Y-72035771D01*
X133380952Y-72035771D02*
X133285714Y-72083390D01*
X133285714Y-72083390D02*
X133238095Y-72131009D01*
X133238095Y-72131009D02*
X133190476Y-72226247D01*
X97633333Y-57954819D02*
X97300000Y-57478628D01*
X97061905Y-57954819D02*
X97061905Y-56954819D01*
X97061905Y-56954819D02*
X97442857Y-56954819D01*
X97442857Y-56954819D02*
X97538095Y-57002438D01*
X97538095Y-57002438D02*
X97585714Y-57050057D01*
X97585714Y-57050057D02*
X97633333Y-57145295D01*
X97633333Y-57145295D02*
X97633333Y-57288152D01*
X97633333Y-57288152D02*
X97585714Y-57383390D01*
X97585714Y-57383390D02*
X97538095Y-57431009D01*
X97538095Y-57431009D02*
X97442857Y-57478628D01*
X97442857Y-57478628D02*
X97061905Y-57478628D01*
X98204762Y-57383390D02*
X98109524Y-57335771D01*
X98109524Y-57335771D02*
X98061905Y-57288152D01*
X98061905Y-57288152D02*
X98014286Y-57192914D01*
X98014286Y-57192914D02*
X98014286Y-57145295D01*
X98014286Y-57145295D02*
X98061905Y-57050057D01*
X98061905Y-57050057D02*
X98109524Y-57002438D01*
X98109524Y-57002438D02*
X98204762Y-56954819D01*
X98204762Y-56954819D02*
X98395238Y-56954819D01*
X98395238Y-56954819D02*
X98490476Y-57002438D01*
X98490476Y-57002438D02*
X98538095Y-57050057D01*
X98538095Y-57050057D02*
X98585714Y-57145295D01*
X98585714Y-57145295D02*
X98585714Y-57192914D01*
X98585714Y-57192914D02*
X98538095Y-57288152D01*
X98538095Y-57288152D02*
X98490476Y-57335771D01*
X98490476Y-57335771D02*
X98395238Y-57383390D01*
X98395238Y-57383390D02*
X98204762Y-57383390D01*
X98204762Y-57383390D02*
X98109524Y-57431009D01*
X98109524Y-57431009D02*
X98061905Y-57478628D01*
X98061905Y-57478628D02*
X98014286Y-57573866D01*
X98014286Y-57573866D02*
X98014286Y-57764342D01*
X98014286Y-57764342D02*
X98061905Y-57859580D01*
X98061905Y-57859580D02*
X98109524Y-57907200D01*
X98109524Y-57907200D02*
X98204762Y-57954819D01*
X98204762Y-57954819D02*
X98395238Y-57954819D01*
X98395238Y-57954819D02*
X98490476Y-57907200D01*
X98490476Y-57907200D02*
X98538095Y-57859580D01*
X98538095Y-57859580D02*
X98585714Y-57764342D01*
X98585714Y-57764342D02*
X98585714Y-57573866D01*
X98585714Y-57573866D02*
X98538095Y-57478628D01*
X98538095Y-57478628D02*
X98490476Y-57431009D01*
X98490476Y-57431009D02*
X98395238Y-57383390D01*
X130157142Y-55159580D02*
X130109523Y-55207200D01*
X130109523Y-55207200D02*
X129966666Y-55254819D01*
X129966666Y-55254819D02*
X129871428Y-55254819D01*
X129871428Y-55254819D02*
X129728571Y-55207200D01*
X129728571Y-55207200D02*
X129633333Y-55111961D01*
X129633333Y-55111961D02*
X129585714Y-55016723D01*
X129585714Y-55016723D02*
X129538095Y-54826247D01*
X129538095Y-54826247D02*
X129538095Y-54683390D01*
X129538095Y-54683390D02*
X129585714Y-54492914D01*
X129585714Y-54492914D02*
X129633333Y-54397676D01*
X129633333Y-54397676D02*
X129728571Y-54302438D01*
X129728571Y-54302438D02*
X129871428Y-54254819D01*
X129871428Y-54254819D02*
X129966666Y-54254819D01*
X129966666Y-54254819D02*
X130109523Y-54302438D01*
X130109523Y-54302438D02*
X130157142Y-54350057D01*
X130538095Y-54350057D02*
X130585714Y-54302438D01*
X130585714Y-54302438D02*
X130680952Y-54254819D01*
X130680952Y-54254819D02*
X130919047Y-54254819D01*
X130919047Y-54254819D02*
X131014285Y-54302438D01*
X131014285Y-54302438D02*
X131061904Y-54350057D01*
X131061904Y-54350057D02*
X131109523Y-54445295D01*
X131109523Y-54445295D02*
X131109523Y-54540533D01*
X131109523Y-54540533D02*
X131061904Y-54683390D01*
X131061904Y-54683390D02*
X130490476Y-55254819D01*
X130490476Y-55254819D02*
X131109523Y-55254819D01*
X131966666Y-54588152D02*
X131966666Y-55254819D01*
X131728571Y-54207200D02*
X131490476Y-54921485D01*
X131490476Y-54921485D02*
X132109523Y-54921485D01*
X123233333Y-47729580D02*
X123185714Y-47777200D01*
X123185714Y-47777200D02*
X123042857Y-47824819D01*
X123042857Y-47824819D02*
X122947619Y-47824819D01*
X122947619Y-47824819D02*
X122804762Y-47777200D01*
X122804762Y-47777200D02*
X122709524Y-47681961D01*
X122709524Y-47681961D02*
X122661905Y-47586723D01*
X122661905Y-47586723D02*
X122614286Y-47396247D01*
X122614286Y-47396247D02*
X122614286Y-47253390D01*
X122614286Y-47253390D02*
X122661905Y-47062914D01*
X122661905Y-47062914D02*
X122709524Y-46967676D01*
X122709524Y-46967676D02*
X122804762Y-46872438D01*
X122804762Y-46872438D02*
X122947619Y-46824819D01*
X122947619Y-46824819D02*
X123042857Y-46824819D01*
X123042857Y-46824819D02*
X123185714Y-46872438D01*
X123185714Y-46872438D02*
X123233333Y-46920057D01*
X123566667Y-46824819D02*
X124185714Y-46824819D01*
X124185714Y-46824819D02*
X123852381Y-47205771D01*
X123852381Y-47205771D02*
X123995238Y-47205771D01*
X123995238Y-47205771D02*
X124090476Y-47253390D01*
X124090476Y-47253390D02*
X124138095Y-47301009D01*
X124138095Y-47301009D02*
X124185714Y-47396247D01*
X124185714Y-47396247D02*
X124185714Y-47634342D01*
X124185714Y-47634342D02*
X124138095Y-47729580D01*
X124138095Y-47729580D02*
X124090476Y-47777200D01*
X124090476Y-47777200D02*
X123995238Y-47824819D01*
X123995238Y-47824819D02*
X123709524Y-47824819D01*
X123709524Y-47824819D02*
X123614286Y-47777200D01*
X123614286Y-47777200D02*
X123566667Y-47729580D01*
X160971428Y-65354819D02*
X161161904Y-65354819D01*
X161161904Y-65354819D02*
X161257142Y-65402438D01*
X161257142Y-65402438D02*
X161352380Y-65497676D01*
X161352380Y-65497676D02*
X161399999Y-65688152D01*
X161399999Y-65688152D02*
X161399999Y-66021485D01*
X161399999Y-66021485D02*
X161352380Y-66211961D01*
X161352380Y-66211961D02*
X161257142Y-66307200D01*
X161257142Y-66307200D02*
X161161904Y-66354819D01*
X161161904Y-66354819D02*
X160971428Y-66354819D01*
X160971428Y-66354819D02*
X160876190Y-66307200D01*
X160876190Y-66307200D02*
X160780952Y-66211961D01*
X160780952Y-66211961D02*
X160733333Y-66021485D01*
X160733333Y-66021485D02*
X160733333Y-65688152D01*
X160733333Y-65688152D02*
X160780952Y-65497676D01*
X160780952Y-65497676D02*
X160876190Y-65402438D01*
X160876190Y-65402438D02*
X160971428Y-65354819D01*
X162304761Y-66354819D02*
X161828571Y-66354819D01*
X161828571Y-66354819D02*
X161828571Y-65354819D01*
X162638095Y-65831009D02*
X162971428Y-65831009D01*
X163114285Y-66354819D02*
X162638095Y-66354819D01*
X162638095Y-66354819D02*
X162638095Y-65354819D01*
X162638095Y-65354819D02*
X163114285Y-65354819D01*
X163542857Y-66354819D02*
X163542857Y-65354819D01*
X163542857Y-65354819D02*
X163780952Y-65354819D01*
X163780952Y-65354819D02*
X163923809Y-65402438D01*
X163923809Y-65402438D02*
X164019047Y-65497676D01*
X164019047Y-65497676D02*
X164066666Y-65592914D01*
X164066666Y-65592914D02*
X164114285Y-65783390D01*
X164114285Y-65783390D02*
X164114285Y-65926247D01*
X164114285Y-65926247D02*
X164066666Y-66116723D01*
X164066666Y-66116723D02*
X164019047Y-66211961D01*
X164019047Y-66211961D02*
X163923809Y-66307200D01*
X163923809Y-66307200D02*
X163780952Y-66354819D01*
X163780952Y-66354819D02*
X163542857Y-66354819D01*
X165066666Y-66354819D02*
X164495238Y-66354819D01*
X164780952Y-66354819D02*
X164780952Y-65354819D01*
X164780952Y-65354819D02*
X164685714Y-65497676D01*
X164685714Y-65497676D02*
X164590476Y-65592914D01*
X164590476Y-65592914D02*
X164495238Y-65640533D01*
X94466667Y-55807200D02*
X94609524Y-55854819D01*
X94609524Y-55854819D02*
X94847619Y-55854819D01*
X94847619Y-55854819D02*
X94942857Y-55807200D01*
X94942857Y-55807200D02*
X94990476Y-55759580D01*
X94990476Y-55759580D02*
X95038095Y-55664342D01*
X95038095Y-55664342D02*
X95038095Y-55569104D01*
X95038095Y-55569104D02*
X94990476Y-55473866D01*
X94990476Y-55473866D02*
X94942857Y-55426247D01*
X94942857Y-55426247D02*
X94847619Y-55378628D01*
X94847619Y-55378628D02*
X94657143Y-55331009D01*
X94657143Y-55331009D02*
X94561905Y-55283390D01*
X94561905Y-55283390D02*
X94514286Y-55235771D01*
X94514286Y-55235771D02*
X94466667Y-55140533D01*
X94466667Y-55140533D02*
X94466667Y-55045295D01*
X94466667Y-55045295D02*
X94514286Y-54950057D01*
X94514286Y-54950057D02*
X94561905Y-54902438D01*
X94561905Y-54902438D02*
X94657143Y-54854819D01*
X94657143Y-54854819D02*
X94895238Y-54854819D01*
X94895238Y-54854819D02*
X95038095Y-54902438D01*
X95371429Y-54854819D02*
X95609524Y-55854819D01*
X95609524Y-55854819D02*
X95800000Y-55140533D01*
X95800000Y-55140533D02*
X95990476Y-55854819D01*
X95990476Y-55854819D02*
X96228572Y-54854819D01*
X96514286Y-54854819D02*
X97133333Y-54854819D01*
X97133333Y-54854819D02*
X96800000Y-55235771D01*
X96800000Y-55235771D02*
X96942857Y-55235771D01*
X96942857Y-55235771D02*
X97038095Y-55283390D01*
X97038095Y-55283390D02*
X97085714Y-55331009D01*
X97085714Y-55331009D02*
X97133333Y-55426247D01*
X97133333Y-55426247D02*
X97133333Y-55664342D01*
X97133333Y-55664342D02*
X97085714Y-55759580D01*
X97085714Y-55759580D02*
X97038095Y-55807200D01*
X97038095Y-55807200D02*
X96942857Y-55854819D01*
X96942857Y-55854819D02*
X96657143Y-55854819D01*
X96657143Y-55854819D02*
X96561905Y-55807200D01*
X96561905Y-55807200D02*
X96514286Y-55759580D01*
X113533333Y-63459580D02*
X113485714Y-63507200D01*
X113485714Y-63507200D02*
X113342857Y-63554819D01*
X113342857Y-63554819D02*
X113247619Y-63554819D01*
X113247619Y-63554819D02*
X113104762Y-63507200D01*
X113104762Y-63507200D02*
X113009524Y-63411961D01*
X113009524Y-63411961D02*
X112961905Y-63316723D01*
X112961905Y-63316723D02*
X112914286Y-63126247D01*
X112914286Y-63126247D02*
X112914286Y-62983390D01*
X112914286Y-62983390D02*
X112961905Y-62792914D01*
X112961905Y-62792914D02*
X113009524Y-62697676D01*
X113009524Y-62697676D02*
X113104762Y-62602438D01*
X113104762Y-62602438D02*
X113247619Y-62554819D01*
X113247619Y-62554819D02*
X113342857Y-62554819D01*
X113342857Y-62554819D02*
X113485714Y-62602438D01*
X113485714Y-62602438D02*
X113533333Y-62650057D01*
X114485714Y-63554819D02*
X113914286Y-63554819D01*
X114200000Y-63554819D02*
X114200000Y-62554819D01*
X114200000Y-62554819D02*
X114104762Y-62697676D01*
X114104762Y-62697676D02*
X114009524Y-62792914D01*
X114009524Y-62792914D02*
X113914286Y-62840533D01*
X136433333Y-57654819D02*
X136100000Y-57178628D01*
X135861905Y-57654819D02*
X135861905Y-56654819D01*
X135861905Y-56654819D02*
X136242857Y-56654819D01*
X136242857Y-56654819D02*
X136338095Y-56702438D01*
X136338095Y-56702438D02*
X136385714Y-56750057D01*
X136385714Y-56750057D02*
X136433333Y-56845295D01*
X136433333Y-56845295D02*
X136433333Y-56988152D01*
X136433333Y-56988152D02*
X136385714Y-57083390D01*
X136385714Y-57083390D02*
X136338095Y-57131009D01*
X136338095Y-57131009D02*
X136242857Y-57178628D01*
X136242857Y-57178628D02*
X135861905Y-57178628D01*
X136766667Y-56654819D02*
X137385714Y-56654819D01*
X137385714Y-56654819D02*
X137052381Y-57035771D01*
X137052381Y-57035771D02*
X137195238Y-57035771D01*
X137195238Y-57035771D02*
X137290476Y-57083390D01*
X137290476Y-57083390D02*
X137338095Y-57131009D01*
X137338095Y-57131009D02*
X137385714Y-57226247D01*
X137385714Y-57226247D02*
X137385714Y-57464342D01*
X137385714Y-57464342D02*
X137338095Y-57559580D01*
X137338095Y-57559580D02*
X137290476Y-57607200D01*
X137290476Y-57607200D02*
X137195238Y-57654819D01*
X137195238Y-57654819D02*
X136909524Y-57654819D01*
X136909524Y-57654819D02*
X136814286Y-57607200D01*
X136814286Y-57607200D02*
X136766667Y-57559580D01*
X96833333Y-61254819D02*
X96500000Y-60778628D01*
X96261905Y-61254819D02*
X96261905Y-60254819D01*
X96261905Y-60254819D02*
X96642857Y-60254819D01*
X96642857Y-60254819D02*
X96738095Y-60302438D01*
X96738095Y-60302438D02*
X96785714Y-60350057D01*
X96785714Y-60350057D02*
X96833333Y-60445295D01*
X96833333Y-60445295D02*
X96833333Y-60588152D01*
X96833333Y-60588152D02*
X96785714Y-60683390D01*
X96785714Y-60683390D02*
X96738095Y-60731009D01*
X96738095Y-60731009D02*
X96642857Y-60778628D01*
X96642857Y-60778628D02*
X96261905Y-60778628D01*
X97738095Y-60254819D02*
X97261905Y-60254819D01*
X97261905Y-60254819D02*
X97214286Y-60731009D01*
X97214286Y-60731009D02*
X97261905Y-60683390D01*
X97261905Y-60683390D02*
X97357143Y-60635771D01*
X97357143Y-60635771D02*
X97595238Y-60635771D01*
X97595238Y-60635771D02*
X97690476Y-60683390D01*
X97690476Y-60683390D02*
X97738095Y-60731009D01*
X97738095Y-60731009D02*
X97785714Y-60826247D01*
X97785714Y-60826247D02*
X97785714Y-61064342D01*
X97785714Y-61064342D02*
X97738095Y-61159580D01*
X97738095Y-61159580D02*
X97690476Y-61207200D01*
X97690476Y-61207200D02*
X97595238Y-61254819D01*
X97595238Y-61254819D02*
X97357143Y-61254819D01*
X97357143Y-61254819D02*
X97261905Y-61207200D01*
X97261905Y-61207200D02*
X97214286Y-61159580D01*
X87179580Y-53642857D02*
X87227200Y-53690476D01*
X87227200Y-53690476D02*
X87274819Y-53833333D01*
X87274819Y-53833333D02*
X87274819Y-53928571D01*
X87274819Y-53928571D02*
X87227200Y-54071428D01*
X87227200Y-54071428D02*
X87131961Y-54166666D01*
X87131961Y-54166666D02*
X87036723Y-54214285D01*
X87036723Y-54214285D02*
X86846247Y-54261904D01*
X86846247Y-54261904D02*
X86703390Y-54261904D01*
X86703390Y-54261904D02*
X86512914Y-54214285D01*
X86512914Y-54214285D02*
X86417676Y-54166666D01*
X86417676Y-54166666D02*
X86322438Y-54071428D01*
X86322438Y-54071428D02*
X86274819Y-53928571D01*
X86274819Y-53928571D02*
X86274819Y-53833333D01*
X86274819Y-53833333D02*
X86322438Y-53690476D01*
X86322438Y-53690476D02*
X86370057Y-53642857D01*
X87274819Y-52690476D02*
X87274819Y-53261904D01*
X87274819Y-52976190D02*
X86274819Y-52976190D01*
X86274819Y-52976190D02*
X86417676Y-53071428D01*
X86417676Y-53071428D02*
X86512914Y-53166666D01*
X86512914Y-53166666D02*
X86560533Y-53261904D01*
X86274819Y-52071428D02*
X86274819Y-51976190D01*
X86274819Y-51976190D02*
X86322438Y-51880952D01*
X86322438Y-51880952D02*
X86370057Y-51833333D01*
X86370057Y-51833333D02*
X86465295Y-51785714D01*
X86465295Y-51785714D02*
X86655771Y-51738095D01*
X86655771Y-51738095D02*
X86893866Y-51738095D01*
X86893866Y-51738095D02*
X87084342Y-51785714D01*
X87084342Y-51785714D02*
X87179580Y-51833333D01*
X87179580Y-51833333D02*
X87227200Y-51880952D01*
X87227200Y-51880952D02*
X87274819Y-51976190D01*
X87274819Y-51976190D02*
X87274819Y-52071428D01*
X87274819Y-52071428D02*
X87227200Y-52166666D01*
X87227200Y-52166666D02*
X87179580Y-52214285D01*
X87179580Y-52214285D02*
X87084342Y-52261904D01*
X87084342Y-52261904D02*
X86893866Y-52309523D01*
X86893866Y-52309523D02*
X86655771Y-52309523D01*
X86655771Y-52309523D02*
X86465295Y-52261904D01*
X86465295Y-52261904D02*
X86370057Y-52214285D01*
X86370057Y-52214285D02*
X86322438Y-52166666D01*
X86322438Y-52166666D02*
X86274819Y-52071428D01*
X172254819Y-74585713D02*
X172254819Y-74014285D01*
X173254819Y-74299999D02*
X172254819Y-74299999D01*
X172731009Y-73680951D02*
X172731009Y-73347618D01*
X173254819Y-73204761D02*
X173254819Y-73680951D01*
X173254819Y-73680951D02*
X172254819Y-73680951D01*
X172254819Y-73680951D02*
X172254819Y-73204761D01*
X173254819Y-72776189D02*
X172254819Y-72776189D01*
X172254819Y-72776189D02*
X172969104Y-72442856D01*
X172969104Y-72442856D02*
X172254819Y-72109523D01*
X172254819Y-72109523D02*
X173254819Y-72109523D01*
X173254819Y-71633332D02*
X172254819Y-71633332D01*
X172254819Y-71633332D02*
X172254819Y-71252380D01*
X172254819Y-71252380D02*
X172302438Y-71157142D01*
X172302438Y-71157142D02*
X172350057Y-71109523D01*
X172350057Y-71109523D02*
X172445295Y-71061904D01*
X172445295Y-71061904D02*
X172588152Y-71061904D01*
X172588152Y-71061904D02*
X172683390Y-71109523D01*
X172683390Y-71109523D02*
X172731009Y-71157142D01*
X172731009Y-71157142D02*
X172778628Y-71252380D01*
X172778628Y-71252380D02*
X172778628Y-71633332D01*
X172254819Y-70728570D02*
X172254819Y-70109523D01*
X172254819Y-70109523D02*
X172635771Y-70442856D01*
X172635771Y-70442856D02*
X172635771Y-70299999D01*
X172635771Y-70299999D02*
X172683390Y-70204761D01*
X172683390Y-70204761D02*
X172731009Y-70157142D01*
X172731009Y-70157142D02*
X172826247Y-70109523D01*
X172826247Y-70109523D02*
X173064342Y-70109523D01*
X173064342Y-70109523D02*
X173159580Y-70157142D01*
X173159580Y-70157142D02*
X173207200Y-70204761D01*
X173207200Y-70204761D02*
X173254819Y-70299999D01*
X173254819Y-70299999D02*
X173254819Y-70585713D01*
X173254819Y-70585713D02*
X173207200Y-70680951D01*
X173207200Y-70680951D02*
X173159580Y-70728570D01*
X115533333Y-69654819D02*
X115200000Y-69178628D01*
X114961905Y-69654819D02*
X114961905Y-68654819D01*
X114961905Y-68654819D02*
X115342857Y-68654819D01*
X115342857Y-68654819D02*
X115438095Y-68702438D01*
X115438095Y-68702438D02*
X115485714Y-68750057D01*
X115485714Y-68750057D02*
X115533333Y-68845295D01*
X115533333Y-68845295D02*
X115533333Y-68988152D01*
X115533333Y-68988152D02*
X115485714Y-69083390D01*
X115485714Y-69083390D02*
X115438095Y-69131009D01*
X115438095Y-69131009D02*
X115342857Y-69178628D01*
X115342857Y-69178628D02*
X114961905Y-69178628D01*
X115914286Y-68750057D02*
X115961905Y-68702438D01*
X115961905Y-68702438D02*
X116057143Y-68654819D01*
X116057143Y-68654819D02*
X116295238Y-68654819D01*
X116295238Y-68654819D02*
X116390476Y-68702438D01*
X116390476Y-68702438D02*
X116438095Y-68750057D01*
X116438095Y-68750057D02*
X116485714Y-68845295D01*
X116485714Y-68845295D02*
X116485714Y-68940533D01*
X116485714Y-68940533D02*
X116438095Y-69083390D01*
X116438095Y-69083390D02*
X115866667Y-69654819D01*
X115866667Y-69654819D02*
X116485714Y-69654819D01*
X120033333Y-71759580D02*
X119985714Y-71807200D01*
X119985714Y-71807200D02*
X119842857Y-71854819D01*
X119842857Y-71854819D02*
X119747619Y-71854819D01*
X119747619Y-71854819D02*
X119604762Y-71807200D01*
X119604762Y-71807200D02*
X119509524Y-71711961D01*
X119509524Y-71711961D02*
X119461905Y-71616723D01*
X119461905Y-71616723D02*
X119414286Y-71426247D01*
X119414286Y-71426247D02*
X119414286Y-71283390D01*
X119414286Y-71283390D02*
X119461905Y-71092914D01*
X119461905Y-71092914D02*
X119509524Y-70997676D01*
X119509524Y-70997676D02*
X119604762Y-70902438D01*
X119604762Y-70902438D02*
X119747619Y-70854819D01*
X119747619Y-70854819D02*
X119842857Y-70854819D01*
X119842857Y-70854819D02*
X119985714Y-70902438D01*
X119985714Y-70902438D02*
X120033333Y-70950057D01*
X120938095Y-70854819D02*
X120461905Y-70854819D01*
X120461905Y-70854819D02*
X120414286Y-71331009D01*
X120414286Y-71331009D02*
X120461905Y-71283390D01*
X120461905Y-71283390D02*
X120557143Y-71235771D01*
X120557143Y-71235771D02*
X120795238Y-71235771D01*
X120795238Y-71235771D02*
X120890476Y-71283390D01*
X120890476Y-71283390D02*
X120938095Y-71331009D01*
X120938095Y-71331009D02*
X120985714Y-71426247D01*
X120985714Y-71426247D02*
X120985714Y-71664342D01*
X120985714Y-71664342D02*
X120938095Y-71759580D01*
X120938095Y-71759580D02*
X120890476Y-71807200D01*
X120890476Y-71807200D02*
X120795238Y-71854819D01*
X120795238Y-71854819D02*
X120557143Y-71854819D01*
X120557143Y-71854819D02*
X120461905Y-71807200D01*
X120461905Y-71807200D02*
X120414286Y-71759580D01*
X100157142Y-51134819D02*
X99823809Y-50658628D01*
X99585714Y-51134819D02*
X99585714Y-50134819D01*
X99585714Y-50134819D02*
X99966666Y-50134819D01*
X99966666Y-50134819D02*
X100061904Y-50182438D01*
X100061904Y-50182438D02*
X100109523Y-50230057D01*
X100109523Y-50230057D02*
X100157142Y-50325295D01*
X100157142Y-50325295D02*
X100157142Y-50468152D01*
X100157142Y-50468152D02*
X100109523Y-50563390D01*
X100109523Y-50563390D02*
X100061904Y-50611009D01*
X100061904Y-50611009D02*
X99966666Y-50658628D01*
X99966666Y-50658628D02*
X99585714Y-50658628D01*
X101109523Y-51134819D02*
X100538095Y-51134819D01*
X100823809Y-51134819D02*
X100823809Y-50134819D01*
X100823809Y-50134819D02*
X100728571Y-50277676D01*
X100728571Y-50277676D02*
X100633333Y-50372914D01*
X100633333Y-50372914D02*
X100538095Y-50420533D01*
X101442857Y-50134819D02*
X102061904Y-50134819D01*
X102061904Y-50134819D02*
X101728571Y-50515771D01*
X101728571Y-50515771D02*
X101871428Y-50515771D01*
X101871428Y-50515771D02*
X101966666Y-50563390D01*
X101966666Y-50563390D02*
X102014285Y-50611009D01*
X102014285Y-50611009D02*
X102061904Y-50706247D01*
X102061904Y-50706247D02*
X102061904Y-50944342D01*
X102061904Y-50944342D02*
X102014285Y-51039580D01*
X102014285Y-51039580D02*
X101966666Y-51087200D01*
X101966666Y-51087200D02*
X101871428Y-51134819D01*
X101871428Y-51134819D02*
X101585714Y-51134819D01*
X101585714Y-51134819D02*
X101490476Y-51087200D01*
X101490476Y-51087200D02*
X101442857Y-51039580D01*
X126259580Y-54542857D02*
X126307200Y-54590476D01*
X126307200Y-54590476D02*
X126354819Y-54733333D01*
X126354819Y-54733333D02*
X126354819Y-54828571D01*
X126354819Y-54828571D02*
X126307200Y-54971428D01*
X126307200Y-54971428D02*
X126211961Y-55066666D01*
X126211961Y-55066666D02*
X126116723Y-55114285D01*
X126116723Y-55114285D02*
X125926247Y-55161904D01*
X125926247Y-55161904D02*
X125783390Y-55161904D01*
X125783390Y-55161904D02*
X125592914Y-55114285D01*
X125592914Y-55114285D02*
X125497676Y-55066666D01*
X125497676Y-55066666D02*
X125402438Y-54971428D01*
X125402438Y-54971428D02*
X125354819Y-54828571D01*
X125354819Y-54828571D02*
X125354819Y-54733333D01*
X125354819Y-54733333D02*
X125402438Y-54590476D01*
X125402438Y-54590476D02*
X125450057Y-54542857D01*
X125450057Y-54161904D02*
X125402438Y-54114285D01*
X125402438Y-54114285D02*
X125354819Y-54019047D01*
X125354819Y-54019047D02*
X125354819Y-53780952D01*
X125354819Y-53780952D02*
X125402438Y-53685714D01*
X125402438Y-53685714D02*
X125450057Y-53638095D01*
X125450057Y-53638095D02*
X125545295Y-53590476D01*
X125545295Y-53590476D02*
X125640533Y-53590476D01*
X125640533Y-53590476D02*
X125783390Y-53638095D01*
X125783390Y-53638095D02*
X126354819Y-54209523D01*
X126354819Y-54209523D02*
X126354819Y-53590476D01*
X125354819Y-53257142D02*
X125354819Y-52638095D01*
X125354819Y-52638095D02*
X125735771Y-52971428D01*
X125735771Y-52971428D02*
X125735771Y-52828571D01*
X125735771Y-52828571D02*
X125783390Y-52733333D01*
X125783390Y-52733333D02*
X125831009Y-52685714D01*
X125831009Y-52685714D02*
X125926247Y-52638095D01*
X125926247Y-52638095D02*
X126164342Y-52638095D01*
X126164342Y-52638095D02*
X126259580Y-52685714D01*
X126259580Y-52685714D02*
X126307200Y-52733333D01*
X126307200Y-52733333D02*
X126354819Y-52828571D01*
X126354819Y-52828571D02*
X126354819Y-53114285D01*
X126354819Y-53114285D02*
X126307200Y-53209523D01*
X126307200Y-53209523D02*
X126259580Y-53257142D01*
X107257142Y-68254819D02*
X106923809Y-67778628D01*
X106685714Y-68254819D02*
X106685714Y-67254819D01*
X106685714Y-67254819D02*
X107066666Y-67254819D01*
X107066666Y-67254819D02*
X107161904Y-67302438D01*
X107161904Y-67302438D02*
X107209523Y-67350057D01*
X107209523Y-67350057D02*
X107257142Y-67445295D01*
X107257142Y-67445295D02*
X107257142Y-67588152D01*
X107257142Y-67588152D02*
X107209523Y-67683390D01*
X107209523Y-67683390D02*
X107161904Y-67731009D01*
X107161904Y-67731009D02*
X107066666Y-67778628D01*
X107066666Y-67778628D02*
X106685714Y-67778628D01*
X108209523Y-68254819D02*
X107638095Y-68254819D01*
X107923809Y-68254819D02*
X107923809Y-67254819D01*
X107923809Y-67254819D02*
X107828571Y-67397676D01*
X107828571Y-67397676D02*
X107733333Y-67492914D01*
X107733333Y-67492914D02*
X107638095Y-67540533D01*
X109066666Y-67588152D02*
X109066666Y-68254819D01*
X108828571Y-67207200D02*
X108590476Y-67921485D01*
X108590476Y-67921485D02*
X109209523Y-67921485D01*
X125057142Y-72954819D02*
X124723809Y-72478628D01*
X124485714Y-72954819D02*
X124485714Y-71954819D01*
X124485714Y-71954819D02*
X124866666Y-71954819D01*
X124866666Y-71954819D02*
X124961904Y-72002438D01*
X124961904Y-72002438D02*
X125009523Y-72050057D01*
X125009523Y-72050057D02*
X125057142Y-72145295D01*
X125057142Y-72145295D02*
X125057142Y-72288152D01*
X125057142Y-72288152D02*
X125009523Y-72383390D01*
X125009523Y-72383390D02*
X124961904Y-72431009D01*
X124961904Y-72431009D02*
X124866666Y-72478628D01*
X124866666Y-72478628D02*
X124485714Y-72478628D01*
X126009523Y-72954819D02*
X125438095Y-72954819D01*
X125723809Y-72954819D02*
X125723809Y-71954819D01*
X125723809Y-71954819D02*
X125628571Y-72097676D01*
X125628571Y-72097676D02*
X125533333Y-72192914D01*
X125533333Y-72192914D02*
X125438095Y-72240533D01*
X126961904Y-72954819D02*
X126390476Y-72954819D01*
X126676190Y-72954819D02*
X126676190Y-71954819D01*
X126676190Y-71954819D02*
X126580952Y-72097676D01*
X126580952Y-72097676D02*
X126485714Y-72192914D01*
X126485714Y-72192914D02*
X126390476Y-72240533D01*
X169988095Y-47504819D02*
X169988095Y-46504819D01*
X169988095Y-46981009D02*
X170559523Y-46981009D01*
X170559523Y-47504819D02*
X170559523Y-46504819D01*
X171559523Y-47504819D02*
X170988095Y-47504819D01*
X171273809Y-47504819D02*
X171273809Y-46504819D01*
X171273809Y-46504819D02*
X171178571Y-46647676D01*
X171178571Y-46647676D02*
X171083333Y-46742914D01*
X171083333Y-46742914D02*
X170988095Y-46790533D01*
X131857142Y-70454819D02*
X131523809Y-69978628D01*
X131285714Y-70454819D02*
X131285714Y-69454819D01*
X131285714Y-69454819D02*
X131666666Y-69454819D01*
X131666666Y-69454819D02*
X131761904Y-69502438D01*
X131761904Y-69502438D02*
X131809523Y-69550057D01*
X131809523Y-69550057D02*
X131857142Y-69645295D01*
X131857142Y-69645295D02*
X131857142Y-69788152D01*
X131857142Y-69788152D02*
X131809523Y-69883390D01*
X131809523Y-69883390D02*
X131761904Y-69931009D01*
X131761904Y-69931009D02*
X131666666Y-69978628D01*
X131666666Y-69978628D02*
X131285714Y-69978628D01*
X132809523Y-70454819D02*
X132238095Y-70454819D01*
X132523809Y-70454819D02*
X132523809Y-69454819D01*
X132523809Y-69454819D02*
X132428571Y-69597676D01*
X132428571Y-69597676D02*
X132333333Y-69692914D01*
X132333333Y-69692914D02*
X132238095Y-69740533D01*
X133142857Y-69454819D02*
X133809523Y-69454819D01*
X133809523Y-69454819D02*
X133380952Y-70454819D01*
X155614286Y-67654819D02*
X156185714Y-67654819D01*
X155900000Y-68654819D02*
X155900000Y-67654819D01*
X156519048Y-68131009D02*
X156852381Y-68131009D01*
X156995238Y-68654819D02*
X156519048Y-68654819D01*
X156519048Y-68654819D02*
X156519048Y-67654819D01*
X156519048Y-67654819D02*
X156995238Y-67654819D01*
X157423810Y-68654819D02*
X157423810Y-67654819D01*
X157423810Y-67654819D02*
X157757143Y-68369104D01*
X157757143Y-68369104D02*
X158090476Y-67654819D01*
X158090476Y-67654819D02*
X158090476Y-68654819D01*
X158566667Y-68654819D02*
X158566667Y-67654819D01*
X158566667Y-67654819D02*
X158947619Y-67654819D01*
X158947619Y-67654819D02*
X159042857Y-67702438D01*
X159042857Y-67702438D02*
X159090476Y-67750057D01*
X159090476Y-67750057D02*
X159138095Y-67845295D01*
X159138095Y-67845295D02*
X159138095Y-67988152D01*
X159138095Y-67988152D02*
X159090476Y-68083390D01*
X159090476Y-68083390D02*
X159042857Y-68131009D01*
X159042857Y-68131009D02*
X158947619Y-68178628D01*
X158947619Y-68178628D02*
X158566667Y-68178628D01*
X160090476Y-68654819D02*
X159519048Y-68654819D01*
X159804762Y-68654819D02*
X159804762Y-67654819D01*
X159804762Y-67654819D02*
X159709524Y-67797676D01*
X159709524Y-67797676D02*
X159614286Y-67892914D01*
X159614286Y-67892914D02*
X159519048Y-67940533D01*
X69266666Y-70131009D02*
X68933333Y-70131009D01*
X68933333Y-70654819D02*
X68933333Y-69654819D01*
X68933333Y-69654819D02*
X69409523Y-69654819D01*
X70314285Y-70654819D02*
X69742857Y-70654819D01*
X70028571Y-70654819D02*
X70028571Y-69654819D01*
X70028571Y-69654819D02*
X69933333Y-69797676D01*
X69933333Y-69797676D02*
X69838095Y-69892914D01*
X69838095Y-69892914D02*
X69742857Y-69940533D01*
X141180952Y-63154819D02*
X140704762Y-63154819D01*
X140704762Y-63154819D02*
X140704762Y-62154819D01*
X141514286Y-62631009D02*
X141847619Y-62631009D01*
X141990476Y-63154819D02*
X141514286Y-63154819D01*
X141514286Y-63154819D02*
X141514286Y-62154819D01*
X141514286Y-62154819D02*
X141990476Y-62154819D01*
X142419048Y-63154819D02*
X142419048Y-62154819D01*
X142419048Y-62154819D02*
X142657143Y-62154819D01*
X142657143Y-62154819D02*
X142800000Y-62202438D01*
X142800000Y-62202438D02*
X142895238Y-62297676D01*
X142895238Y-62297676D02*
X142942857Y-62392914D01*
X142942857Y-62392914D02*
X142990476Y-62583390D01*
X142990476Y-62583390D02*
X142990476Y-62726247D01*
X142990476Y-62726247D02*
X142942857Y-62916723D01*
X142942857Y-62916723D02*
X142895238Y-63011961D01*
X142895238Y-63011961D02*
X142800000Y-63107200D01*
X142800000Y-63107200D02*
X142657143Y-63154819D01*
X142657143Y-63154819D02*
X142419048Y-63154819D01*
X143942857Y-63154819D02*
X143371429Y-63154819D01*
X143657143Y-63154819D02*
X143657143Y-62154819D01*
X143657143Y-62154819D02*
X143561905Y-62297676D01*
X143561905Y-62297676D02*
X143466667Y-62392914D01*
X143466667Y-62392914D02*
X143371429Y-62440533D01*
X91604761Y-71450057D02*
X91509523Y-71402438D01*
X91509523Y-71402438D02*
X91414285Y-71307200D01*
X91414285Y-71307200D02*
X91271428Y-71164342D01*
X91271428Y-71164342D02*
X91176190Y-71116723D01*
X91176190Y-71116723D02*
X91080952Y-71116723D01*
X91128571Y-71354819D02*
X91033333Y-71307200D01*
X91033333Y-71307200D02*
X90938095Y-71211961D01*
X90938095Y-71211961D02*
X90890476Y-71021485D01*
X90890476Y-71021485D02*
X90890476Y-70688152D01*
X90890476Y-70688152D02*
X90938095Y-70497676D01*
X90938095Y-70497676D02*
X91033333Y-70402438D01*
X91033333Y-70402438D02*
X91128571Y-70354819D01*
X91128571Y-70354819D02*
X91319047Y-70354819D01*
X91319047Y-70354819D02*
X91414285Y-70402438D01*
X91414285Y-70402438D02*
X91509523Y-70497676D01*
X91509523Y-70497676D02*
X91557142Y-70688152D01*
X91557142Y-70688152D02*
X91557142Y-71021485D01*
X91557142Y-71021485D02*
X91509523Y-71211961D01*
X91509523Y-71211961D02*
X91414285Y-71307200D01*
X91414285Y-71307200D02*
X91319047Y-71354819D01*
X91319047Y-71354819D02*
X91128571Y-71354819D01*
X91938095Y-70450057D02*
X91985714Y-70402438D01*
X91985714Y-70402438D02*
X92080952Y-70354819D01*
X92080952Y-70354819D02*
X92319047Y-70354819D01*
X92319047Y-70354819D02*
X92414285Y-70402438D01*
X92414285Y-70402438D02*
X92461904Y-70450057D01*
X92461904Y-70450057D02*
X92509523Y-70545295D01*
X92509523Y-70545295D02*
X92509523Y-70640533D01*
X92509523Y-70640533D02*
X92461904Y-70783390D01*
X92461904Y-70783390D02*
X91890476Y-71354819D01*
X91890476Y-71354819D02*
X92509523Y-71354819D01*
X130133333Y-64954819D02*
X129800000Y-64478628D01*
X129561905Y-64954819D02*
X129561905Y-63954819D01*
X129561905Y-63954819D02*
X129942857Y-63954819D01*
X129942857Y-63954819D02*
X130038095Y-64002438D01*
X130038095Y-64002438D02*
X130085714Y-64050057D01*
X130085714Y-64050057D02*
X130133333Y-64145295D01*
X130133333Y-64145295D02*
X130133333Y-64288152D01*
X130133333Y-64288152D02*
X130085714Y-64383390D01*
X130085714Y-64383390D02*
X130038095Y-64431009D01*
X130038095Y-64431009D02*
X129942857Y-64478628D01*
X129942857Y-64478628D02*
X129561905Y-64478628D01*
X130990476Y-63954819D02*
X130800000Y-63954819D01*
X130800000Y-63954819D02*
X130704762Y-64002438D01*
X130704762Y-64002438D02*
X130657143Y-64050057D01*
X130657143Y-64050057D02*
X130561905Y-64192914D01*
X130561905Y-64192914D02*
X130514286Y-64383390D01*
X130514286Y-64383390D02*
X130514286Y-64764342D01*
X130514286Y-64764342D02*
X130561905Y-64859580D01*
X130561905Y-64859580D02*
X130609524Y-64907200D01*
X130609524Y-64907200D02*
X130704762Y-64954819D01*
X130704762Y-64954819D02*
X130895238Y-64954819D01*
X130895238Y-64954819D02*
X130990476Y-64907200D01*
X130990476Y-64907200D02*
X131038095Y-64859580D01*
X131038095Y-64859580D02*
X131085714Y-64764342D01*
X131085714Y-64764342D02*
X131085714Y-64526247D01*
X131085714Y-64526247D02*
X131038095Y-64431009D01*
X131038095Y-64431009D02*
X130990476Y-64383390D01*
X130990476Y-64383390D02*
X130895238Y-64335771D01*
X130895238Y-64335771D02*
X130704762Y-64335771D01*
X130704762Y-64335771D02*
X130609524Y-64383390D01*
X130609524Y-64383390D02*
X130561905Y-64431009D01*
X130561905Y-64431009D02*
X130514286Y-64526247D01*
X129083333Y-63159580D02*
X129035714Y-63207200D01*
X129035714Y-63207200D02*
X128892857Y-63254819D01*
X128892857Y-63254819D02*
X128797619Y-63254819D01*
X128797619Y-63254819D02*
X128654762Y-63207200D01*
X128654762Y-63207200D02*
X128559524Y-63111961D01*
X128559524Y-63111961D02*
X128511905Y-63016723D01*
X128511905Y-63016723D02*
X128464286Y-62826247D01*
X128464286Y-62826247D02*
X128464286Y-62683390D01*
X128464286Y-62683390D02*
X128511905Y-62492914D01*
X128511905Y-62492914D02*
X128559524Y-62397676D01*
X128559524Y-62397676D02*
X128654762Y-62302438D01*
X128654762Y-62302438D02*
X128797619Y-62254819D01*
X128797619Y-62254819D02*
X128892857Y-62254819D01*
X128892857Y-62254819D02*
X129035714Y-62302438D01*
X129035714Y-62302438D02*
X129083333Y-62350057D01*
X129559524Y-63254819D02*
X129750000Y-63254819D01*
X129750000Y-63254819D02*
X129845238Y-63207200D01*
X129845238Y-63207200D02*
X129892857Y-63159580D01*
X129892857Y-63159580D02*
X129988095Y-63016723D01*
X129988095Y-63016723D02*
X130035714Y-62826247D01*
X130035714Y-62826247D02*
X130035714Y-62445295D01*
X130035714Y-62445295D02*
X129988095Y-62350057D01*
X129988095Y-62350057D02*
X129940476Y-62302438D01*
X129940476Y-62302438D02*
X129845238Y-62254819D01*
X129845238Y-62254819D02*
X129654762Y-62254819D01*
X129654762Y-62254819D02*
X129559524Y-62302438D01*
X129559524Y-62302438D02*
X129511905Y-62350057D01*
X129511905Y-62350057D02*
X129464286Y-62445295D01*
X129464286Y-62445295D02*
X129464286Y-62683390D01*
X129464286Y-62683390D02*
X129511905Y-62778628D01*
X129511905Y-62778628D02*
X129559524Y-62826247D01*
X129559524Y-62826247D02*
X129654762Y-62873866D01*
X129654762Y-62873866D02*
X129845238Y-62873866D01*
X129845238Y-62873866D02*
X129940476Y-62826247D01*
X129940476Y-62826247D02*
X129988095Y-62778628D01*
X129988095Y-62778628D02*
X130035714Y-62683390D01*
X87004761Y-71350057D02*
X86909523Y-71302438D01*
X86909523Y-71302438D02*
X86814285Y-71207200D01*
X86814285Y-71207200D02*
X86671428Y-71064342D01*
X86671428Y-71064342D02*
X86576190Y-71016723D01*
X86576190Y-71016723D02*
X86480952Y-71016723D01*
X86528571Y-71254819D02*
X86433333Y-71207200D01*
X86433333Y-71207200D02*
X86338095Y-71111961D01*
X86338095Y-71111961D02*
X86290476Y-70921485D01*
X86290476Y-70921485D02*
X86290476Y-70588152D01*
X86290476Y-70588152D02*
X86338095Y-70397676D01*
X86338095Y-70397676D02*
X86433333Y-70302438D01*
X86433333Y-70302438D02*
X86528571Y-70254819D01*
X86528571Y-70254819D02*
X86719047Y-70254819D01*
X86719047Y-70254819D02*
X86814285Y-70302438D01*
X86814285Y-70302438D02*
X86909523Y-70397676D01*
X86909523Y-70397676D02*
X86957142Y-70588152D01*
X86957142Y-70588152D02*
X86957142Y-70921485D01*
X86957142Y-70921485D02*
X86909523Y-71111961D01*
X86909523Y-71111961D02*
X86814285Y-71207200D01*
X86814285Y-71207200D02*
X86719047Y-71254819D01*
X86719047Y-71254819D02*
X86528571Y-71254819D01*
X87909523Y-71254819D02*
X87338095Y-71254819D01*
X87623809Y-71254819D02*
X87623809Y-70254819D01*
X87623809Y-70254819D02*
X87528571Y-70397676D01*
X87528571Y-70397676D02*
X87433333Y-70492914D01*
X87433333Y-70492914D02*
X87338095Y-70540533D01*
X169718095Y-224864819D02*
X169718095Y-223864819D01*
X169718095Y-224341009D02*
X170289523Y-224341009D01*
X170289523Y-224864819D02*
X170289523Y-223864819D01*
X170670476Y-223864819D02*
X171289523Y-223864819D01*
X171289523Y-223864819D02*
X170956190Y-224245771D01*
X170956190Y-224245771D02*
X171099047Y-224245771D01*
X171099047Y-224245771D02*
X171194285Y-224293390D01*
X171194285Y-224293390D02*
X171241904Y-224341009D01*
X171241904Y-224341009D02*
X171289523Y-224436247D01*
X171289523Y-224436247D02*
X171289523Y-224674342D01*
X171289523Y-224674342D02*
X171241904Y-224769580D01*
X171241904Y-224769580D02*
X171194285Y-224817200D01*
X171194285Y-224817200D02*
X171099047Y-224864819D01*
X171099047Y-224864819D02*
X170813333Y-224864819D01*
X170813333Y-224864819D02*
X170718095Y-224817200D01*
X170718095Y-224817200D02*
X170670476Y-224769580D01*
X64718095Y-224864819D02*
X64718095Y-223864819D01*
X64718095Y-224341009D02*
X65289523Y-224341009D01*
X65289523Y-224864819D02*
X65289523Y-223864819D01*
X66194285Y-224198152D02*
X66194285Y-224864819D01*
X65956190Y-223817200D02*
X65718095Y-224531485D01*
X65718095Y-224531485D02*
X66337142Y-224531485D01*
X80488095Y-63204819D02*
X80488095Y-64014342D01*
X80488095Y-64014342D02*
X80535714Y-64109580D01*
X80535714Y-64109580D02*
X80583333Y-64157200D01*
X80583333Y-64157200D02*
X80678571Y-64204819D01*
X80678571Y-64204819D02*
X80869047Y-64204819D01*
X80869047Y-64204819D02*
X80964285Y-64157200D01*
X80964285Y-64157200D02*
X81011904Y-64109580D01*
X81011904Y-64109580D02*
X81059523Y-64014342D01*
X81059523Y-64014342D02*
X81059523Y-63204819D01*
X81440476Y-63204819D02*
X82059523Y-63204819D01*
X82059523Y-63204819D02*
X81726190Y-63585771D01*
X81726190Y-63585771D02*
X81869047Y-63585771D01*
X81869047Y-63585771D02*
X81964285Y-63633390D01*
X81964285Y-63633390D02*
X82011904Y-63681009D01*
X82011904Y-63681009D02*
X82059523Y-63776247D01*
X82059523Y-63776247D02*
X82059523Y-64014342D01*
X82059523Y-64014342D02*
X82011904Y-64109580D01*
X82011904Y-64109580D02*
X81964285Y-64157200D01*
X81964285Y-64157200D02*
X81869047Y-64204819D01*
X81869047Y-64204819D02*
X81583333Y-64204819D01*
X81583333Y-64204819D02*
X81488095Y-64157200D01*
X81488095Y-64157200D02*
X81440476Y-64109580D01*
X127038095Y-63754819D02*
X127038095Y-64564342D01*
X127038095Y-64564342D02*
X127085714Y-64659580D01*
X127085714Y-64659580D02*
X127133333Y-64707200D01*
X127133333Y-64707200D02*
X127228571Y-64754819D01*
X127228571Y-64754819D02*
X127419047Y-64754819D01*
X127419047Y-64754819D02*
X127514285Y-64707200D01*
X127514285Y-64707200D02*
X127561904Y-64659580D01*
X127561904Y-64659580D02*
X127609523Y-64564342D01*
X127609523Y-64564342D02*
X127609523Y-63754819D01*
X128038095Y-63850057D02*
X128085714Y-63802438D01*
X128085714Y-63802438D02*
X128180952Y-63754819D01*
X128180952Y-63754819D02*
X128419047Y-63754819D01*
X128419047Y-63754819D02*
X128514285Y-63802438D01*
X128514285Y-63802438D02*
X128561904Y-63850057D01*
X128561904Y-63850057D02*
X128609523Y-63945295D01*
X128609523Y-63945295D02*
X128609523Y-64040533D01*
X128609523Y-64040533D02*
X128561904Y-64183390D01*
X128561904Y-64183390D02*
X127990476Y-64754819D01*
X127990476Y-64754819D02*
X128609523Y-64754819D01*
X111538095Y-52454819D02*
X111538095Y-53264342D01*
X111538095Y-53264342D02*
X111585714Y-53359580D01*
X111585714Y-53359580D02*
X111633333Y-53407200D01*
X111633333Y-53407200D02*
X111728571Y-53454819D01*
X111728571Y-53454819D02*
X111919047Y-53454819D01*
X111919047Y-53454819D02*
X112014285Y-53407200D01*
X112014285Y-53407200D02*
X112061904Y-53359580D01*
X112061904Y-53359580D02*
X112109523Y-53264342D01*
X112109523Y-53264342D02*
X112109523Y-52454819D01*
X113109523Y-53454819D02*
X112538095Y-53454819D01*
X112823809Y-53454819D02*
X112823809Y-52454819D01*
X112823809Y-52454819D02*
X112728571Y-52597676D01*
X112728571Y-52597676D02*
X112633333Y-52692914D01*
X112633333Y-52692914D02*
X112538095Y-52740533D01*
X62866666Y-52054819D02*
X62866666Y-52769104D01*
X62866666Y-52769104D02*
X62819047Y-52911961D01*
X62819047Y-52911961D02*
X62723809Y-53007200D01*
X62723809Y-53007200D02*
X62580952Y-53054819D01*
X62580952Y-53054819D02*
X62485714Y-53054819D01*
X63771428Y-52388152D02*
X63771428Y-53054819D01*
X63533333Y-52007200D02*
X63295238Y-52721485D01*
X63295238Y-52721485D02*
X63914285Y-52721485D01*
X112266666Y-47854819D02*
X112266666Y-48569104D01*
X112266666Y-48569104D02*
X112219047Y-48711961D01*
X112219047Y-48711961D02*
X112123809Y-48807200D01*
X112123809Y-48807200D02*
X111980952Y-48854819D01*
X111980952Y-48854819D02*
X111885714Y-48854819D01*
X112647619Y-47854819D02*
X113266666Y-47854819D01*
X113266666Y-47854819D02*
X112933333Y-48235771D01*
X112933333Y-48235771D02*
X113076190Y-48235771D01*
X113076190Y-48235771D02*
X113171428Y-48283390D01*
X113171428Y-48283390D02*
X113219047Y-48331009D01*
X113219047Y-48331009D02*
X113266666Y-48426247D01*
X113266666Y-48426247D02*
X113266666Y-48664342D01*
X113266666Y-48664342D02*
X113219047Y-48759580D01*
X113219047Y-48759580D02*
X113171428Y-48807200D01*
X113171428Y-48807200D02*
X113076190Y-48854819D01*
X113076190Y-48854819D02*
X112790476Y-48854819D01*
X112790476Y-48854819D02*
X112695238Y-48807200D01*
X112695238Y-48807200D02*
X112647619Y-48759580D01*
X119559580Y-54842857D02*
X119607200Y-54890476D01*
X119607200Y-54890476D02*
X119654819Y-55033333D01*
X119654819Y-55033333D02*
X119654819Y-55128571D01*
X119654819Y-55128571D02*
X119607200Y-55271428D01*
X119607200Y-55271428D02*
X119511961Y-55366666D01*
X119511961Y-55366666D02*
X119416723Y-55414285D01*
X119416723Y-55414285D02*
X119226247Y-55461904D01*
X119226247Y-55461904D02*
X119083390Y-55461904D01*
X119083390Y-55461904D02*
X118892914Y-55414285D01*
X118892914Y-55414285D02*
X118797676Y-55366666D01*
X118797676Y-55366666D02*
X118702438Y-55271428D01*
X118702438Y-55271428D02*
X118654819Y-55128571D01*
X118654819Y-55128571D02*
X118654819Y-55033333D01*
X118654819Y-55033333D02*
X118702438Y-54890476D01*
X118702438Y-54890476D02*
X118750057Y-54842857D01*
X118750057Y-54461904D02*
X118702438Y-54414285D01*
X118702438Y-54414285D02*
X118654819Y-54319047D01*
X118654819Y-54319047D02*
X118654819Y-54080952D01*
X118654819Y-54080952D02*
X118702438Y-53985714D01*
X118702438Y-53985714D02*
X118750057Y-53938095D01*
X118750057Y-53938095D02*
X118845295Y-53890476D01*
X118845295Y-53890476D02*
X118940533Y-53890476D01*
X118940533Y-53890476D02*
X119083390Y-53938095D01*
X119083390Y-53938095D02*
X119654819Y-54509523D01*
X119654819Y-54509523D02*
X119654819Y-53890476D01*
X118750057Y-53509523D02*
X118702438Y-53461904D01*
X118702438Y-53461904D02*
X118654819Y-53366666D01*
X118654819Y-53366666D02*
X118654819Y-53128571D01*
X118654819Y-53128571D02*
X118702438Y-53033333D01*
X118702438Y-53033333D02*
X118750057Y-52985714D01*
X118750057Y-52985714D02*
X118845295Y-52938095D01*
X118845295Y-52938095D02*
X118940533Y-52938095D01*
X118940533Y-52938095D02*
X119083390Y-52985714D01*
X119083390Y-52985714D02*
X119654819Y-53557142D01*
X119654819Y-53557142D02*
X119654819Y-52938095D01*
X121159580Y-54642857D02*
X121207200Y-54690476D01*
X121207200Y-54690476D02*
X121254819Y-54833333D01*
X121254819Y-54833333D02*
X121254819Y-54928571D01*
X121254819Y-54928571D02*
X121207200Y-55071428D01*
X121207200Y-55071428D02*
X121111961Y-55166666D01*
X121111961Y-55166666D02*
X121016723Y-55214285D01*
X121016723Y-55214285D02*
X120826247Y-55261904D01*
X120826247Y-55261904D02*
X120683390Y-55261904D01*
X120683390Y-55261904D02*
X120492914Y-55214285D01*
X120492914Y-55214285D02*
X120397676Y-55166666D01*
X120397676Y-55166666D02*
X120302438Y-55071428D01*
X120302438Y-55071428D02*
X120254819Y-54928571D01*
X120254819Y-54928571D02*
X120254819Y-54833333D01*
X120254819Y-54833333D02*
X120302438Y-54690476D01*
X120302438Y-54690476D02*
X120350057Y-54642857D01*
X120350057Y-54261904D02*
X120302438Y-54214285D01*
X120302438Y-54214285D02*
X120254819Y-54119047D01*
X120254819Y-54119047D02*
X120254819Y-53880952D01*
X120254819Y-53880952D02*
X120302438Y-53785714D01*
X120302438Y-53785714D02*
X120350057Y-53738095D01*
X120350057Y-53738095D02*
X120445295Y-53690476D01*
X120445295Y-53690476D02*
X120540533Y-53690476D01*
X120540533Y-53690476D02*
X120683390Y-53738095D01*
X120683390Y-53738095D02*
X121254819Y-54309523D01*
X121254819Y-54309523D02*
X121254819Y-53690476D01*
X121254819Y-52738095D02*
X121254819Y-53309523D01*
X121254819Y-53023809D02*
X120254819Y-53023809D01*
X120254819Y-53023809D02*
X120397676Y-53119047D01*
X120397676Y-53119047D02*
X120492914Y-53214285D01*
X120492914Y-53214285D02*
X120540533Y-53309523D01*
X127357142Y-55159580D02*
X127309523Y-55207200D01*
X127309523Y-55207200D02*
X127166666Y-55254819D01*
X127166666Y-55254819D02*
X127071428Y-55254819D01*
X127071428Y-55254819D02*
X126928571Y-55207200D01*
X126928571Y-55207200D02*
X126833333Y-55111961D01*
X126833333Y-55111961D02*
X126785714Y-55016723D01*
X126785714Y-55016723D02*
X126738095Y-54826247D01*
X126738095Y-54826247D02*
X126738095Y-54683390D01*
X126738095Y-54683390D02*
X126785714Y-54492914D01*
X126785714Y-54492914D02*
X126833333Y-54397676D01*
X126833333Y-54397676D02*
X126928571Y-54302438D01*
X126928571Y-54302438D02*
X127071428Y-54254819D01*
X127071428Y-54254819D02*
X127166666Y-54254819D01*
X127166666Y-54254819D02*
X127309523Y-54302438D01*
X127309523Y-54302438D02*
X127357142Y-54350057D01*
X127738095Y-54350057D02*
X127785714Y-54302438D01*
X127785714Y-54302438D02*
X127880952Y-54254819D01*
X127880952Y-54254819D02*
X128119047Y-54254819D01*
X128119047Y-54254819D02*
X128214285Y-54302438D01*
X128214285Y-54302438D02*
X128261904Y-54350057D01*
X128261904Y-54350057D02*
X128309523Y-54445295D01*
X128309523Y-54445295D02*
X128309523Y-54540533D01*
X128309523Y-54540533D02*
X128261904Y-54683390D01*
X128261904Y-54683390D02*
X127690476Y-55254819D01*
X127690476Y-55254819D02*
X128309523Y-55254819D01*
X128928571Y-54254819D02*
X129023809Y-54254819D01*
X129023809Y-54254819D02*
X129119047Y-54302438D01*
X129119047Y-54302438D02*
X129166666Y-54350057D01*
X129166666Y-54350057D02*
X129214285Y-54445295D01*
X129214285Y-54445295D02*
X129261904Y-54635771D01*
X129261904Y-54635771D02*
X129261904Y-54873866D01*
X129261904Y-54873866D02*
X129214285Y-55064342D01*
X129214285Y-55064342D02*
X129166666Y-55159580D01*
X129166666Y-55159580D02*
X129119047Y-55207200D01*
X129119047Y-55207200D02*
X129023809Y-55254819D01*
X129023809Y-55254819D02*
X128928571Y-55254819D01*
X128928571Y-55254819D02*
X128833333Y-55207200D01*
X128833333Y-55207200D02*
X128785714Y-55159580D01*
X128785714Y-55159580D02*
X128738095Y-55064342D01*
X128738095Y-55064342D02*
X128690476Y-54873866D01*
X128690476Y-54873866D02*
X128690476Y-54635771D01*
X128690476Y-54635771D02*
X128738095Y-54445295D01*
X128738095Y-54445295D02*
X128785714Y-54350057D01*
X128785714Y-54350057D02*
X128833333Y-54302438D01*
X128833333Y-54302438D02*
X128928571Y-54254819D01*
X69957142Y-72259580D02*
X69909523Y-72307200D01*
X69909523Y-72307200D02*
X69766666Y-72354819D01*
X69766666Y-72354819D02*
X69671428Y-72354819D01*
X69671428Y-72354819D02*
X69528571Y-72307200D01*
X69528571Y-72307200D02*
X69433333Y-72211961D01*
X69433333Y-72211961D02*
X69385714Y-72116723D01*
X69385714Y-72116723D02*
X69338095Y-71926247D01*
X69338095Y-71926247D02*
X69338095Y-71783390D01*
X69338095Y-71783390D02*
X69385714Y-71592914D01*
X69385714Y-71592914D02*
X69433333Y-71497676D01*
X69433333Y-71497676D02*
X69528571Y-71402438D01*
X69528571Y-71402438D02*
X69671428Y-71354819D01*
X69671428Y-71354819D02*
X69766666Y-71354819D01*
X69766666Y-71354819D02*
X69909523Y-71402438D01*
X69909523Y-71402438D02*
X69957142Y-71450057D01*
X70909523Y-72354819D02*
X70338095Y-72354819D01*
X70623809Y-72354819D02*
X70623809Y-71354819D01*
X70623809Y-71354819D02*
X70528571Y-71497676D01*
X70528571Y-71497676D02*
X70433333Y-71592914D01*
X70433333Y-71592914D02*
X70338095Y-71640533D01*
X71385714Y-72354819D02*
X71576190Y-72354819D01*
X71576190Y-72354819D02*
X71671428Y-72307200D01*
X71671428Y-72307200D02*
X71719047Y-72259580D01*
X71719047Y-72259580D02*
X71814285Y-72116723D01*
X71814285Y-72116723D02*
X71861904Y-71926247D01*
X71861904Y-71926247D02*
X71861904Y-71545295D01*
X71861904Y-71545295D02*
X71814285Y-71450057D01*
X71814285Y-71450057D02*
X71766666Y-71402438D01*
X71766666Y-71402438D02*
X71671428Y-71354819D01*
X71671428Y-71354819D02*
X71480952Y-71354819D01*
X71480952Y-71354819D02*
X71385714Y-71402438D01*
X71385714Y-71402438D02*
X71338095Y-71450057D01*
X71338095Y-71450057D02*
X71290476Y-71545295D01*
X71290476Y-71545295D02*
X71290476Y-71783390D01*
X71290476Y-71783390D02*
X71338095Y-71878628D01*
X71338095Y-71878628D02*
X71385714Y-71926247D01*
X71385714Y-71926247D02*
X71480952Y-71973866D01*
X71480952Y-71973866D02*
X71671428Y-71973866D01*
X71671428Y-71973866D02*
X71766666Y-71926247D01*
X71766666Y-71926247D02*
X71814285Y-71878628D01*
X71814285Y-71878628D02*
X71861904Y-71783390D01*
X66857142Y-52759580D02*
X66809523Y-52807200D01*
X66809523Y-52807200D02*
X66666666Y-52854819D01*
X66666666Y-52854819D02*
X66571428Y-52854819D01*
X66571428Y-52854819D02*
X66428571Y-52807200D01*
X66428571Y-52807200D02*
X66333333Y-52711961D01*
X66333333Y-52711961D02*
X66285714Y-52616723D01*
X66285714Y-52616723D02*
X66238095Y-52426247D01*
X66238095Y-52426247D02*
X66238095Y-52283390D01*
X66238095Y-52283390D02*
X66285714Y-52092914D01*
X66285714Y-52092914D02*
X66333333Y-51997676D01*
X66333333Y-51997676D02*
X66428571Y-51902438D01*
X66428571Y-51902438D02*
X66571428Y-51854819D01*
X66571428Y-51854819D02*
X66666666Y-51854819D01*
X66666666Y-51854819D02*
X66809523Y-51902438D01*
X66809523Y-51902438D02*
X66857142Y-51950057D01*
X67809523Y-52854819D02*
X67238095Y-52854819D01*
X67523809Y-52854819D02*
X67523809Y-51854819D01*
X67523809Y-51854819D02*
X67428571Y-51997676D01*
X67428571Y-51997676D02*
X67333333Y-52092914D01*
X67333333Y-52092914D02*
X67238095Y-52140533D01*
X68666666Y-51854819D02*
X68476190Y-51854819D01*
X68476190Y-51854819D02*
X68380952Y-51902438D01*
X68380952Y-51902438D02*
X68333333Y-51950057D01*
X68333333Y-51950057D02*
X68238095Y-52092914D01*
X68238095Y-52092914D02*
X68190476Y-52283390D01*
X68190476Y-52283390D02*
X68190476Y-52664342D01*
X68190476Y-52664342D02*
X68238095Y-52759580D01*
X68238095Y-52759580D02*
X68285714Y-52807200D01*
X68285714Y-52807200D02*
X68380952Y-52854819D01*
X68380952Y-52854819D02*
X68571428Y-52854819D01*
X68571428Y-52854819D02*
X68666666Y-52807200D01*
X68666666Y-52807200D02*
X68714285Y-52759580D01*
X68714285Y-52759580D02*
X68761904Y-52664342D01*
X68761904Y-52664342D02*
X68761904Y-52426247D01*
X68761904Y-52426247D02*
X68714285Y-52331009D01*
X68714285Y-52331009D02*
X68666666Y-52283390D01*
X68666666Y-52283390D02*
X68571428Y-52235771D01*
X68571428Y-52235771D02*
X68380952Y-52235771D01*
X68380952Y-52235771D02*
X68285714Y-52283390D01*
X68285714Y-52283390D02*
X68238095Y-52331009D01*
X68238095Y-52331009D02*
X68190476Y-52426247D01*
X86557142Y-49559580D02*
X86509523Y-49607200D01*
X86509523Y-49607200D02*
X86366666Y-49654819D01*
X86366666Y-49654819D02*
X86271428Y-49654819D01*
X86271428Y-49654819D02*
X86128571Y-49607200D01*
X86128571Y-49607200D02*
X86033333Y-49511961D01*
X86033333Y-49511961D02*
X85985714Y-49416723D01*
X85985714Y-49416723D02*
X85938095Y-49226247D01*
X85938095Y-49226247D02*
X85938095Y-49083390D01*
X85938095Y-49083390D02*
X85985714Y-48892914D01*
X85985714Y-48892914D02*
X86033333Y-48797676D01*
X86033333Y-48797676D02*
X86128571Y-48702438D01*
X86128571Y-48702438D02*
X86271428Y-48654819D01*
X86271428Y-48654819D02*
X86366666Y-48654819D01*
X86366666Y-48654819D02*
X86509523Y-48702438D01*
X86509523Y-48702438D02*
X86557142Y-48750057D01*
X87509523Y-49654819D02*
X86938095Y-49654819D01*
X87223809Y-49654819D02*
X87223809Y-48654819D01*
X87223809Y-48654819D02*
X87128571Y-48797676D01*
X87128571Y-48797676D02*
X87033333Y-48892914D01*
X87033333Y-48892914D02*
X86938095Y-48940533D01*
X88366666Y-48988152D02*
X88366666Y-49654819D01*
X88128571Y-48607200D02*
X87890476Y-49321485D01*
X87890476Y-49321485D02*
X88509523Y-49321485D01*
X69957142Y-62959580D02*
X69909523Y-63007200D01*
X69909523Y-63007200D02*
X69766666Y-63054819D01*
X69766666Y-63054819D02*
X69671428Y-63054819D01*
X69671428Y-63054819D02*
X69528571Y-63007200D01*
X69528571Y-63007200D02*
X69433333Y-62911961D01*
X69433333Y-62911961D02*
X69385714Y-62816723D01*
X69385714Y-62816723D02*
X69338095Y-62626247D01*
X69338095Y-62626247D02*
X69338095Y-62483390D01*
X69338095Y-62483390D02*
X69385714Y-62292914D01*
X69385714Y-62292914D02*
X69433333Y-62197676D01*
X69433333Y-62197676D02*
X69528571Y-62102438D01*
X69528571Y-62102438D02*
X69671428Y-62054819D01*
X69671428Y-62054819D02*
X69766666Y-62054819D01*
X69766666Y-62054819D02*
X69909523Y-62102438D01*
X69909523Y-62102438D02*
X69957142Y-62150057D01*
X70909523Y-63054819D02*
X70338095Y-63054819D01*
X70623809Y-63054819D02*
X70623809Y-62054819D01*
X70623809Y-62054819D02*
X70528571Y-62197676D01*
X70528571Y-62197676D02*
X70433333Y-62292914D01*
X70433333Y-62292914D02*
X70338095Y-62340533D01*
X71242857Y-62054819D02*
X71861904Y-62054819D01*
X71861904Y-62054819D02*
X71528571Y-62435771D01*
X71528571Y-62435771D02*
X71671428Y-62435771D01*
X71671428Y-62435771D02*
X71766666Y-62483390D01*
X71766666Y-62483390D02*
X71814285Y-62531009D01*
X71814285Y-62531009D02*
X71861904Y-62626247D01*
X71861904Y-62626247D02*
X71861904Y-62864342D01*
X71861904Y-62864342D02*
X71814285Y-62959580D01*
X71814285Y-62959580D02*
X71766666Y-63007200D01*
X71766666Y-63007200D02*
X71671428Y-63054819D01*
X71671428Y-63054819D02*
X71385714Y-63054819D01*
X71385714Y-63054819D02*
X71290476Y-63007200D01*
X71290476Y-63007200D02*
X71242857Y-62959580D01*
X88557142Y-61759580D02*
X88509523Y-61807200D01*
X88509523Y-61807200D02*
X88366666Y-61854819D01*
X88366666Y-61854819D02*
X88271428Y-61854819D01*
X88271428Y-61854819D02*
X88128571Y-61807200D01*
X88128571Y-61807200D02*
X88033333Y-61711961D01*
X88033333Y-61711961D02*
X87985714Y-61616723D01*
X87985714Y-61616723D02*
X87938095Y-61426247D01*
X87938095Y-61426247D02*
X87938095Y-61283390D01*
X87938095Y-61283390D02*
X87985714Y-61092914D01*
X87985714Y-61092914D02*
X88033333Y-60997676D01*
X88033333Y-60997676D02*
X88128571Y-60902438D01*
X88128571Y-60902438D02*
X88271428Y-60854819D01*
X88271428Y-60854819D02*
X88366666Y-60854819D01*
X88366666Y-60854819D02*
X88509523Y-60902438D01*
X88509523Y-60902438D02*
X88557142Y-60950057D01*
X89509523Y-61854819D02*
X88938095Y-61854819D01*
X89223809Y-61854819D02*
X89223809Y-60854819D01*
X89223809Y-60854819D02*
X89128571Y-60997676D01*
X89128571Y-60997676D02*
X89033333Y-61092914D01*
X89033333Y-61092914D02*
X88938095Y-61140533D01*
X90461904Y-61854819D02*
X89890476Y-61854819D01*
X90176190Y-61854819D02*
X90176190Y-60854819D01*
X90176190Y-60854819D02*
X90080952Y-60997676D01*
X90080952Y-60997676D02*
X89985714Y-61092914D01*
X89985714Y-61092914D02*
X89890476Y-61140533D01*
D15*
%TO.C,R9*%
X151162258Y-70772500D02*
X150687742Y-70772500D01*
X151162258Y-69727500D02*
X150687742Y-69727500D01*
%TO.C,Y1*%
X118000000Y-73150000D02*
X118000000Y-69850000D01*
X118000000Y-69850000D02*
X114000000Y-69850000D01*
%TO.C,C4*%
X129059420Y-59910000D02*
X129340580Y-59910000D01*
X129059420Y-58890000D02*
X129340580Y-58890000D01*
D16*
%TO.C,U4*%
X71123000Y-68121600D02*
X71572961Y-68121600D01*
X71572961Y-65378400D02*
X71123000Y-65378400D01*
X73416239Y-68121600D02*
X73866200Y-68121600D01*
X73866200Y-65378400D02*
X73416239Y-65378400D01*
D17*
G36*
X72185101Y-64946600D02*
G01*
X71804101Y-64946600D01*
X71804101Y-64692600D01*
X72185101Y-64692600D01*
X72185101Y-64946600D01*
G37*
D15*
%TO.C,C18*%
X118010000Y-57165580D02*
X118010000Y-56884420D01*
X116990000Y-57165580D02*
X116990000Y-56884420D01*
%TO.C,C7*%
X134059420Y-63710000D02*
X134340580Y-63710000D01*
X134059420Y-62690000D02*
X134340580Y-62690000D01*
%TO.C,R12*%
X102722500Y-51562742D02*
X102722500Y-52037258D01*
X101677500Y-51562742D02*
X101677500Y-52037258D01*
%TO.C,C8*%
X132459420Y-62110000D02*
X132740580Y-62110000D01*
X132459420Y-61090000D02*
X132740580Y-61090000D01*
%TO.C,C15*%
X123140000Y-57165580D02*
X123140000Y-56884420D01*
X122120000Y-57165580D02*
X122120000Y-56884420D01*
%TO.C,R7*%
X115162742Y-53722500D02*
X115637258Y-53722500D01*
X115162742Y-52677500D02*
X115637258Y-52677500D01*
%TO.C,R1*%
X113237258Y-67522500D02*
X112762742Y-67522500D01*
X113237258Y-66477500D02*
X112762742Y-66477500D01*
%TO.C,SW2*%
X145300000Y-51500000D02*
X145300000Y-50000000D01*
X144050000Y-47500000D02*
X139550000Y-47500000D01*
X139550000Y-54000000D02*
X144050000Y-54000000D01*
X138300000Y-50000000D02*
X138300000Y-51500000D01*
%TO.C,C2*%
X140140580Y-56260000D02*
X139859420Y-56260000D01*
X140140580Y-55240000D02*
X139859420Y-55240000D01*
%TO.C,J1*%
X115070000Y-50130000D02*
X115070000Y-48800000D01*
X116400000Y-50130000D02*
X115070000Y-50130000D01*
X117670000Y-47470000D02*
X120270000Y-47470000D01*
X117670000Y-50130000D02*
X117670000Y-47470000D01*
X117670000Y-50130000D02*
X120270000Y-50130000D01*
X120270000Y-50130000D02*
X120270000Y-47470000D01*
%TO.C,R15*%
X108387742Y-64122500D02*
X108862258Y-64122500D01*
X108387742Y-63077500D02*
X108862258Y-63077500D01*
%TO.C,R18*%
X129362742Y-69122500D02*
X129837258Y-69122500D01*
X129362742Y-68077500D02*
X129837258Y-68077500D01*
%TO.C,D1*%
X105140000Y-72000000D02*
X105140000Y-74000000D01*
X105140000Y-72000000D02*
X109150000Y-72000000D01*
X105140000Y-74000000D02*
X109150000Y-74000000D01*
%TO.C,C6*%
X139659420Y-70910000D02*
X139940580Y-70910000D01*
X139659420Y-69890000D02*
X139940580Y-69890000D01*
%TO.C,R4*%
X146262742Y-56522500D02*
X146737258Y-56522500D01*
X146262742Y-55477500D02*
X146737258Y-55477500D01*
%TO.C,C17*%
X92110000Y-57259420D02*
X92110000Y-57540580D01*
X91090000Y-57259420D02*
X91090000Y-57540580D01*
%TO.C,C12*%
X124890000Y-57140580D02*
X124890000Y-56859420D01*
X123870000Y-57140580D02*
X123870000Y-56859420D01*
%TO.C,TEMP2*%
X161440000Y-71500000D02*
X161440000Y-69550000D01*
X161440000Y-71500000D02*
X161440000Y-73450000D01*
X166560000Y-71500000D02*
X166560000Y-69550000D01*
X166560000Y-71500000D02*
X166560000Y-73450000D01*
X166795000Y-69040000D02*
X166465000Y-68800000D01*
X166795000Y-68560000D01*
X166795000Y-69040000D01*
G36*
X166795000Y-69040000D02*
G01*
X166465000Y-68800000D01*
X166795000Y-68560000D01*
X166795000Y-69040000D01*
G37*
%TO.C,R10*%
X106522500Y-69762742D02*
X106522500Y-70237258D01*
X105477500Y-69762742D02*
X105477500Y-70237258D01*
%TO.C,SW1*%
X134900000Y-51550000D02*
X134900000Y-50050000D01*
X133650000Y-47550000D02*
X129150000Y-47550000D01*
X129150000Y-54050000D02*
X133650000Y-54050000D01*
X127900000Y-50050000D02*
X127900000Y-51550000D01*
%TO.C,R16*%
X129337742Y-72722500D02*
X129812258Y-72722500D01*
X129337742Y-71677500D02*
X129812258Y-71677500D01*
%TO.C,R8*%
X95437258Y-57772500D02*
X94962742Y-57772500D01*
X95437258Y-56727500D02*
X94962742Y-56727500D01*
%TO.C,C24*%
X130110000Y-57140580D02*
X130110000Y-56859420D01*
X129090000Y-57140580D02*
X129090000Y-56859420D01*
%TO.C,C3*%
X123259420Y-49310000D02*
X123540580Y-49310000D01*
X123259420Y-48290000D02*
X123540580Y-48290000D01*
%TO.C,OLED1*%
X149460000Y-37900000D02*
X176860000Y-37900000D01*
X149460000Y-65200000D02*
X149460000Y-37900000D01*
X149998000Y-45280000D02*
X149998000Y-61917000D01*
X149998000Y-61917000D02*
X150252000Y-61905000D01*
X153338000Y-45305000D02*
X149998000Y-45280000D01*
X153338000Y-45305000D02*
X176438000Y-45305000D01*
X153338000Y-61905000D02*
X150252000Y-61905000D01*
X158380000Y-62298000D02*
X168159000Y-62298000D01*
X158380000Y-64711000D02*
X158380000Y-62298000D01*
X168159000Y-64711000D02*
X158380000Y-64711000D01*
X168159000Y-64711000D02*
X168159000Y-62298000D01*
X176438000Y-45305000D02*
X176438000Y-61905000D01*
X176438000Y-61905000D02*
X153338000Y-61905000D01*
X176860000Y-37900000D02*
X176860000Y-65200000D01*
X176860000Y-65200000D02*
X149460000Y-65200000D01*
%TO.C,SW3*%
X98250000Y-51500000D02*
X98250000Y-50000000D01*
X97000000Y-47500000D02*
X92500000Y-47500000D01*
X92500000Y-54000000D02*
X97000000Y-54000000D01*
X91250000Y-50000000D02*
X91250000Y-51500000D01*
%TO.C,C1*%
X113540580Y-65110000D02*
X113259420Y-65110000D01*
X113540580Y-64090000D02*
X113259420Y-64090000D01*
%TO.C,R3*%
X136187742Y-56322500D02*
X136662258Y-56322500D01*
X136187742Y-55277500D02*
X136662258Y-55277500D01*
%TO.C,R5*%
X97237258Y-59922500D02*
X96762742Y-59922500D01*
X97237258Y-58877500D02*
X96762742Y-58877500D01*
%TO.C,C10*%
X88760000Y-53140580D02*
X88760000Y-52859420D01*
X87740000Y-53140580D02*
X87740000Y-52859420D01*
%TO.C,TEMP3*%
X172010000Y-74000000D02*
X172010000Y-70400000D01*
X167560000Y-72200000D02*
G75*
G02*
X171998478Y-70361522I2600000J0D01*
G01*
X171998478Y-74038478D02*
G75*
G02*
X167559999Y-72200000I-1838478J1838478D01*
G01*
%TO.C,R2*%
X113437258Y-69322500D02*
X112962742Y-69322500D01*
X113437258Y-68277500D02*
X112962742Y-68277500D01*
%TO.C,C5*%
X122510000Y-71459420D02*
X122510000Y-71740580D01*
X121490000Y-71459420D02*
X121490000Y-71740580D01*
%TO.C,R13*%
X101662258Y-49772500D02*
X101187742Y-49772500D01*
X101662258Y-48727500D02*
X101187742Y-48727500D01*
%TO.C,C23*%
X126640000Y-57140580D02*
X126640000Y-56859420D01*
X125620000Y-57140580D02*
X125620000Y-56859420D01*
%TO.C,R14*%
X109362742Y-66922500D02*
X109837258Y-66922500D01*
X109362742Y-65877500D02*
X109837258Y-65877500D01*
%TO.C,R11*%
X124122500Y-71962742D02*
X124122500Y-72437258D01*
X123077500Y-71962742D02*
X123077500Y-72437258D01*
%TO.C,R17*%
X129362742Y-70922500D02*
X129837258Y-70922500D01*
X129362742Y-69877500D02*
X129837258Y-69877500D01*
%TO.C,TEMP1*%
X156150000Y-70700000D02*
X156150000Y-74300000D01*
X156161522Y-70661522D02*
G75*
G02*
X160600001Y-72500000I1838478J-1838478D01*
G01*
X160600000Y-72500000D02*
G75*
G02*
X156161522Y-74338478I-2600000J0D01*
G01*
%TO.C,F1*%
X62530000Y-66596248D02*
X62530000Y-71003752D01*
X67870000Y-66596248D02*
X67870000Y-71003752D01*
D18*
%TO.C,LED1*%
X142300000Y-61800000D02*
X142300000Y-58900000D01*
X142300000Y-61800000D02*
X147300000Y-61800000D01*
X142600000Y-58600000D02*
X142300000Y-58900000D01*
X142600000Y-58600000D02*
X147300000Y-58600000D01*
X147300000Y-61800000D02*
X147300000Y-58600000D01*
D15*
%TO.C,Q2*%
X94650000Y-64800000D02*
X101070000Y-64800000D01*
X94650000Y-71700000D02*
X101070000Y-71700000D01*
X101070000Y-64800000D02*
X101070000Y-65070000D01*
X101070000Y-71700000D02*
X101070000Y-71430000D01*
X103140000Y-71860000D02*
X102460000Y-71860000D01*
X102800000Y-71390000D01*
X103140000Y-71860000D01*
G36*
X103140000Y-71860000D02*
G01*
X102460000Y-71860000D01*
X102800000Y-71390000D01*
X103140000Y-71860000D01*
G37*
%TO.C,R6*%
X129837258Y-66322500D02*
X129362742Y-66322500D01*
X129837258Y-65277500D02*
X129362742Y-65277500D01*
%TO.C,C9*%
X129109420Y-61760000D02*
X129390580Y-61760000D01*
X129109420Y-60740000D02*
X129390580Y-60740000D01*
%TO.C,Q1*%
X88687500Y-66740000D02*
X88037500Y-66740000D01*
X88687500Y-66740000D02*
X89337500Y-66740000D01*
X88687500Y-69860000D02*
X88037500Y-69860000D01*
X88687500Y-69860000D02*
X89337500Y-69860000D01*
X87525000Y-66790000D02*
X87285000Y-66460000D01*
X87765000Y-66460000D01*
X87525000Y-66790000D01*
G36*
X87525000Y-66790000D02*
G01*
X87285000Y-66460000D01*
X87765000Y-66460000D01*
X87525000Y-66790000D01*
G37*
%TO.C,U3*%
X79400000Y-64840000D02*
X83160000Y-64840000D01*
X79400000Y-71660000D02*
X83160000Y-71660000D01*
X83160000Y-64840000D02*
X83160000Y-66100000D01*
X83160000Y-71660000D02*
X83160000Y-70400000D01*
X78120000Y-64940000D02*
X77880000Y-64610000D01*
X78360000Y-64610000D01*
X78120000Y-64940000D01*
G36*
X78120000Y-64940000D02*
G01*
X77880000Y-64610000D01*
X78360000Y-64610000D01*
X78120000Y-64940000D01*
G37*
%TO.C,U2*%
X119002500Y-69385000D02*
X119002500Y-68735000D01*
X119652500Y-62165000D02*
X119002500Y-62165000D01*
X119652500Y-69385000D02*
X119002500Y-69385000D01*
X125572500Y-62165000D02*
X126222500Y-62165000D01*
X125572500Y-69385000D02*
X126222500Y-69385000D01*
X126222500Y-62165000D02*
X126222500Y-62815000D01*
X126222500Y-69385000D02*
X126222500Y-68735000D01*
%TO.C,U1*%
X105875000Y-53875000D02*
X105875000Y-54135000D01*
X105875000Y-59325000D02*
X105875000Y-59065000D01*
X108600000Y-53875000D02*
X105875000Y-53875000D01*
X108600000Y-53875000D02*
X111325000Y-53875000D01*
X108600000Y-59325000D02*
X105875000Y-59325000D01*
X108600000Y-59325000D02*
X111325000Y-59325000D01*
X111325000Y-53875000D02*
X111325000Y-54135000D01*
X111325000Y-59325000D02*
X111325000Y-59065000D01*
X105092500Y-54135000D02*
X104852500Y-53805000D01*
X105332500Y-53805000D01*
X105092500Y-54135000D01*
G36*
X105092500Y-54135000D02*
G01*
X104852500Y-53805000D01*
X105332500Y-53805000D01*
X105092500Y-54135000D01*
G37*
D19*
%TO.C,J4*%
X60400000Y-53780000D02*
X60400000Y-62720000D01*
X60400000Y-53780000D02*
X61830000Y-53780000D01*
X60400000Y-62720000D02*
X61830000Y-62720000D01*
X65850000Y-53780000D02*
X64170000Y-53780000D01*
X65850000Y-62720000D02*
X64170000Y-62720000D01*
D11*
X69100000Y-55050000D02*
G75*
G02*
X68900000Y-55050000I-100000J0D01*
G01*
X68900000Y-55050000D02*
G75*
G02*
X69100000Y-55050000I100000J0D01*
G01*
D15*
%TO.C,J3*%
X105790000Y-48885000D02*
X105790000Y-51385000D01*
X105790000Y-51385000D02*
X106840000Y-51385000D01*
X109840000Y-46915000D02*
X106960000Y-46915000D01*
X109960000Y-51385000D02*
X109960000Y-52375000D01*
X111010000Y-48885000D02*
X111010000Y-51385000D01*
X111010000Y-51385000D02*
X109960000Y-51385000D01*
D20*
%TO.C,J2*%
X152200000Y-56400000D02*
X152200000Y-49500000D01*
X156300000Y-58000000D02*
X153800000Y-58000000D01*
X166600000Y-49500000D02*
X166600000Y-56000000D01*
D15*
%TO.C,C22*%
X118620000Y-57115580D02*
X118620000Y-56834420D01*
X119640000Y-57115580D02*
X119640000Y-56834420D01*
%TO.C,C21*%
X120370000Y-57140580D02*
X120370000Y-56859420D01*
X121390000Y-57140580D02*
X121390000Y-56859420D01*
%TO.C,C20*%
X127370000Y-57115580D02*
X127370000Y-56834420D01*
X128390000Y-57115580D02*
X128390000Y-56834420D01*
%TO.C,C19*%
X73890580Y-69740000D02*
X73609420Y-69740000D01*
X73890580Y-70760000D02*
X73609420Y-70760000D01*
%TO.C,C16*%
X68670000Y-50322651D02*
X76830000Y-50322651D01*
X68670000Y-50362651D02*
X76830000Y-50362651D01*
X68670000Y-50402651D02*
X76830000Y-50402651D01*
X68671000Y-50282651D02*
X76829000Y-50282651D01*
X68673000Y-50242651D02*
X76827000Y-50242651D01*
X68674000Y-50202651D02*
X76826000Y-50202651D01*
X68676000Y-50162651D02*
X76824000Y-50162651D01*
X68679000Y-50122651D02*
X76821000Y-50122651D01*
X68682000Y-50082651D02*
X76818000Y-50082651D01*
X68685000Y-50042651D02*
X76815000Y-50042651D01*
X68689000Y-50002651D02*
X76811000Y-50002651D01*
X68693000Y-49962651D02*
X76807000Y-49962651D01*
X68698000Y-49922651D02*
X76802000Y-49922651D01*
X68702000Y-49882651D02*
X76798000Y-49882651D01*
X68708000Y-49842651D02*
X76792000Y-49842651D01*
X68713000Y-49802651D02*
X76787000Y-49802651D01*
X68720000Y-49762651D02*
X76780000Y-49762651D01*
X68726000Y-49722651D02*
X76774000Y-49722651D01*
X68733000Y-49681651D02*
X71710000Y-49681651D01*
X68740000Y-49641651D02*
X71710000Y-49641651D01*
X68748000Y-49601651D02*
X71710000Y-49601651D01*
X68756000Y-49561651D02*
X71710000Y-49561651D01*
X68765000Y-49521651D02*
X71710000Y-49521651D01*
X68774000Y-49481651D02*
X71710000Y-49481651D01*
X68783000Y-49441651D02*
X71710000Y-49441651D01*
X68793000Y-49401651D02*
X71710000Y-49401651D01*
X68803000Y-49361651D02*
X71710000Y-49361651D01*
X68814000Y-49321651D02*
X71710000Y-49321651D01*
X68825000Y-49281651D02*
X71710000Y-49281651D01*
X68836000Y-49241651D02*
X71710000Y-49241651D01*
X68848000Y-49201651D02*
X71710000Y-49201651D01*
X68861000Y-49161651D02*
X71710000Y-49161651D01*
X68873000Y-49121651D02*
X71710000Y-49121651D01*
X68887000Y-49081651D02*
X71710000Y-49081651D01*
X68900000Y-49041651D02*
X71710000Y-49041651D01*
X68915000Y-49001651D02*
X71710000Y-49001651D01*
X68929000Y-48961651D02*
X71710000Y-48961651D01*
X68945000Y-48921651D02*
X71710000Y-48921651D01*
X68960000Y-48881651D02*
X71710000Y-48881651D01*
X68976000Y-48841651D02*
X71710000Y-48841651D01*
X68993000Y-48801651D02*
X71710000Y-48801651D01*
X69010000Y-48761651D02*
X71710000Y-48761651D01*
X69028000Y-48721651D02*
X71710000Y-48721651D01*
X69046000Y-48681651D02*
X71710000Y-48681651D01*
X69064000Y-48641651D02*
X71710000Y-48641651D01*
X69084000Y-48601651D02*
X71710000Y-48601651D01*
X69103000Y-48561651D02*
X71710000Y-48561651D01*
X69123000Y-48521651D02*
X71710000Y-48521651D01*
X69144000Y-48481651D02*
X71710000Y-48481651D01*
X69166000Y-48441651D02*
X71710000Y-48441651D01*
X69188000Y-48401651D02*
X71710000Y-48401651D01*
X69210000Y-48361651D02*
X71710000Y-48361651D01*
X69233000Y-48321651D02*
X71710000Y-48321651D01*
X69257000Y-48281651D02*
X71710000Y-48281651D01*
X69281000Y-48241651D02*
X71710000Y-48241651D01*
X69306000Y-48201651D02*
X71710000Y-48201651D01*
X69332000Y-48161651D02*
X71710000Y-48161651D01*
X69358000Y-48121651D02*
X71710000Y-48121651D01*
X69385000Y-48081651D02*
X71710000Y-48081651D01*
X69412000Y-48041651D02*
X71710000Y-48041651D01*
X69441000Y-48001651D02*
X71710000Y-48001651D01*
X69470000Y-47961651D02*
X71710000Y-47961651D01*
X69500000Y-47921651D02*
X71710000Y-47921651D01*
X69530000Y-47881651D02*
X71710000Y-47881651D01*
X69561000Y-47841651D02*
X71710000Y-47841651D01*
X69594000Y-47801651D02*
X71710000Y-47801651D01*
X69626000Y-47761651D02*
X71710000Y-47761651D01*
X69660000Y-47721651D02*
X71710000Y-47721651D01*
X69695000Y-47681651D02*
X71710000Y-47681651D01*
X69731000Y-47641651D02*
X71710000Y-47641651D01*
X69767000Y-47601651D02*
X75733000Y-47601651D01*
X69805000Y-47561651D02*
X75695000Y-47561651D01*
X69843000Y-47521651D02*
X75657000Y-47521651D01*
X69883000Y-47481651D02*
X75617000Y-47481651D01*
X69924000Y-47441651D02*
X75576000Y-47441651D01*
X69966000Y-47401651D02*
X75534000Y-47401651D01*
X70009000Y-47361651D02*
X75491000Y-47361651D01*
X70035000Y-54412349D02*
X70835000Y-54412349D01*
X70053000Y-47321651D02*
X75447000Y-47321651D01*
X70099000Y-47281651D02*
X75401000Y-47281651D01*
X70146000Y-47241651D02*
X75354000Y-47241651D01*
X70194000Y-47201651D02*
X75306000Y-47201651D01*
X70245000Y-47161651D02*
X75255000Y-47161651D01*
X70296000Y-47121651D02*
X75204000Y-47121651D01*
X70350000Y-47081651D02*
X75150000Y-47081651D01*
X70405000Y-47041651D02*
X75095000Y-47041651D01*
X70435000Y-54812349D02*
X70435000Y-54012349D01*
X70463000Y-47001651D02*
X75037000Y-47001651D01*
X70522000Y-46961651D02*
X74978000Y-46961651D01*
X70584000Y-46921651D02*
X74916000Y-46921651D01*
X70648000Y-46881651D02*
X74852000Y-46881651D01*
X70716000Y-46841651D02*
X74784000Y-46841651D01*
X70786000Y-46801651D02*
X74714000Y-46801651D01*
X70860000Y-46761651D02*
X74640000Y-46761651D01*
X70937000Y-46721651D02*
X74563000Y-46721651D01*
X71019000Y-46681651D02*
X74481000Y-46681651D01*
X71105000Y-46641651D02*
X74395000Y-46641651D01*
X71198000Y-46601651D02*
X74302000Y-46601651D01*
X71297000Y-46561651D02*
X74203000Y-46561651D01*
X71404000Y-46521651D02*
X74096000Y-46521651D01*
X71521000Y-46481651D02*
X73979000Y-46481651D01*
X71652000Y-46441651D02*
X73848000Y-46441651D01*
X71802000Y-46401651D02*
X73698000Y-46401651D01*
X71982000Y-46361651D02*
X73518000Y-46361651D01*
X72217000Y-46321651D02*
X73283000Y-46321651D01*
X73790000Y-47641651D02*
X75769000Y-47641651D01*
X73790000Y-47681651D02*
X75805000Y-47681651D01*
X73790000Y-47721651D02*
X75840000Y-47721651D01*
X73790000Y-47761651D02*
X75874000Y-47761651D01*
X73790000Y-47801651D02*
X75906000Y-47801651D01*
X73790000Y-47841651D02*
X75939000Y-47841651D01*
X73790000Y-47881651D02*
X75970000Y-47881651D01*
X73790000Y-47921651D02*
X76000000Y-47921651D01*
X73790000Y-47961651D02*
X76030000Y-47961651D01*
X73790000Y-48001651D02*
X76059000Y-48001651D01*
X73790000Y-48041651D02*
X76088000Y-48041651D01*
X73790000Y-48081651D02*
X76115000Y-48081651D01*
X73790000Y-48121651D02*
X76142000Y-48121651D01*
X73790000Y-48161651D02*
X76168000Y-48161651D01*
X73790000Y-48201651D02*
X76194000Y-48201651D01*
X73790000Y-48241651D02*
X76219000Y-48241651D01*
X73790000Y-48281651D02*
X76243000Y-48281651D01*
X73790000Y-48321651D02*
X76267000Y-48321651D01*
X73790000Y-48361651D02*
X76290000Y-48361651D01*
X73790000Y-48401651D02*
X76312000Y-48401651D01*
X73790000Y-48441651D02*
X76334000Y-48441651D01*
X73790000Y-48481651D02*
X76356000Y-48481651D01*
X73790000Y-48521651D02*
X76377000Y-48521651D01*
X73790000Y-48561651D02*
X76397000Y-48561651D01*
X73790000Y-48601651D02*
X76416000Y-48601651D01*
X73790000Y-48641651D02*
X76436000Y-48641651D01*
X73790000Y-48681651D02*
X76454000Y-48681651D01*
X73790000Y-48721651D02*
X76472000Y-48721651D01*
X73790000Y-48761651D02*
X76490000Y-48761651D01*
X73790000Y-48801651D02*
X76507000Y-48801651D01*
X73790000Y-48841651D02*
X76524000Y-48841651D01*
X73790000Y-48881651D02*
X76540000Y-48881651D01*
X73790000Y-48921651D02*
X76555000Y-48921651D01*
X73790000Y-48961651D02*
X76571000Y-48961651D01*
X73790000Y-49001651D02*
X76585000Y-49001651D01*
X73790000Y-49041651D02*
X76600000Y-49041651D01*
X73790000Y-49081651D02*
X76613000Y-49081651D01*
X73790000Y-49121651D02*
X76627000Y-49121651D01*
X73790000Y-49161651D02*
X76639000Y-49161651D01*
X73790000Y-49201651D02*
X76652000Y-49201651D01*
X73790000Y-49241651D02*
X76664000Y-49241651D01*
X73790000Y-49281651D02*
X76675000Y-49281651D01*
X73790000Y-49321651D02*
X76686000Y-49321651D01*
X73790000Y-49361651D02*
X76697000Y-49361651D01*
X73790000Y-49401651D02*
X76707000Y-49401651D01*
X73790000Y-49441651D02*
X76717000Y-49441651D01*
X73790000Y-49481651D02*
X76726000Y-49481651D01*
X73790000Y-49521651D02*
X76735000Y-49521651D01*
X73790000Y-49561651D02*
X76744000Y-49561651D01*
X73790000Y-49601651D02*
X76752000Y-49601651D01*
X73790000Y-49641651D02*
X76760000Y-49641651D01*
X73790000Y-49681651D02*
X76767000Y-49681651D01*
X76870000Y-50402651D02*
G75*
G02*
X68630000Y-50402651I-4120000J0D01*
G01*
X68630000Y-50402651D02*
G75*
G02*
X76870000Y-50402651I4120000J0D01*
G01*
%TO.C,C14*%
X77420000Y-50322651D02*
X85580000Y-50322651D01*
X77420000Y-50362651D02*
X85580000Y-50362651D01*
X77420000Y-50402651D02*
X85580000Y-50402651D01*
X77421000Y-50282651D02*
X85579000Y-50282651D01*
X77423000Y-50242651D02*
X85577000Y-50242651D01*
X77424000Y-50202651D02*
X85576000Y-50202651D01*
X77426000Y-50162651D02*
X85574000Y-50162651D01*
X77429000Y-50122651D02*
X85571000Y-50122651D01*
X77432000Y-50082651D02*
X85568000Y-50082651D01*
X77435000Y-50042651D02*
X85565000Y-50042651D01*
X77439000Y-50002651D02*
X85561000Y-50002651D01*
X77443000Y-49962651D02*
X85557000Y-49962651D01*
X77448000Y-49922651D02*
X85552000Y-49922651D01*
X77452000Y-49882651D02*
X85548000Y-49882651D01*
X77458000Y-49842651D02*
X85542000Y-49842651D01*
X77463000Y-49802651D02*
X85537000Y-49802651D01*
X77470000Y-49762651D02*
X85530000Y-49762651D01*
X77476000Y-49722651D02*
X85524000Y-49722651D01*
X77483000Y-49681651D02*
X80460000Y-49681651D01*
X77490000Y-49641651D02*
X80460000Y-49641651D01*
X77498000Y-49601651D02*
X80460000Y-49601651D01*
X77506000Y-49561651D02*
X80460000Y-49561651D01*
X77515000Y-49521651D02*
X80460000Y-49521651D01*
X77524000Y-49481651D02*
X80460000Y-49481651D01*
X77533000Y-49441651D02*
X80460000Y-49441651D01*
X77543000Y-49401651D02*
X80460000Y-49401651D01*
X77553000Y-49361651D02*
X80460000Y-49361651D01*
X77564000Y-49321651D02*
X80460000Y-49321651D01*
X77575000Y-49281651D02*
X80460000Y-49281651D01*
X77586000Y-49241651D02*
X80460000Y-49241651D01*
X77598000Y-49201651D02*
X80460000Y-49201651D01*
X77611000Y-49161651D02*
X80460000Y-49161651D01*
X77623000Y-49121651D02*
X80460000Y-49121651D01*
X77637000Y-49081651D02*
X80460000Y-49081651D01*
X77650000Y-49041651D02*
X80460000Y-49041651D01*
X77665000Y-49001651D02*
X80460000Y-49001651D01*
X77679000Y-48961651D02*
X80460000Y-48961651D01*
X77695000Y-48921651D02*
X80460000Y-48921651D01*
X77710000Y-48881651D02*
X80460000Y-48881651D01*
X77726000Y-48841651D02*
X80460000Y-48841651D01*
X77743000Y-48801651D02*
X80460000Y-48801651D01*
X77760000Y-48761651D02*
X80460000Y-48761651D01*
X77778000Y-48721651D02*
X80460000Y-48721651D01*
X77796000Y-48681651D02*
X80460000Y-48681651D01*
X77814000Y-48641651D02*
X80460000Y-48641651D01*
X77834000Y-48601651D02*
X80460000Y-48601651D01*
X77853000Y-48561651D02*
X80460000Y-48561651D01*
X77873000Y-48521651D02*
X80460000Y-48521651D01*
X77894000Y-48481651D02*
X80460000Y-48481651D01*
X77916000Y-48441651D02*
X80460000Y-48441651D01*
X77938000Y-48401651D02*
X80460000Y-48401651D01*
X77960000Y-48361651D02*
X80460000Y-48361651D01*
X77983000Y-48321651D02*
X80460000Y-48321651D01*
X78007000Y-48281651D02*
X80460000Y-48281651D01*
X78031000Y-48241651D02*
X80460000Y-48241651D01*
X78056000Y-48201651D02*
X80460000Y-48201651D01*
X78082000Y-48161651D02*
X80460000Y-48161651D01*
X78108000Y-48121651D02*
X80460000Y-48121651D01*
X78135000Y-48081651D02*
X80460000Y-48081651D01*
X78162000Y-48041651D02*
X80460000Y-48041651D01*
X78191000Y-48001651D02*
X80460000Y-48001651D01*
X78220000Y-47961651D02*
X80460000Y-47961651D01*
X78250000Y-47921651D02*
X80460000Y-47921651D01*
X78280000Y-47881651D02*
X80460000Y-47881651D01*
X78311000Y-47841651D02*
X80460000Y-47841651D01*
X78344000Y-47801651D02*
X80460000Y-47801651D01*
X78376000Y-47761651D02*
X80460000Y-47761651D01*
X78410000Y-47721651D02*
X80460000Y-47721651D01*
X78445000Y-47681651D02*
X80460000Y-47681651D01*
X78481000Y-47641651D02*
X80460000Y-47641651D01*
X78517000Y-47601651D02*
X84483000Y-47601651D01*
X78555000Y-47561651D02*
X84445000Y-47561651D01*
X78593000Y-47521651D02*
X84407000Y-47521651D01*
X78633000Y-47481651D02*
X84367000Y-47481651D01*
X78674000Y-47441651D02*
X84326000Y-47441651D01*
X78716000Y-47401651D02*
X84284000Y-47401651D01*
X78759000Y-47361651D02*
X84241000Y-47361651D01*
X78785000Y-54412349D02*
X79585000Y-54412349D01*
X78803000Y-47321651D02*
X84197000Y-47321651D01*
X78849000Y-47281651D02*
X84151000Y-47281651D01*
X78896000Y-47241651D02*
X84104000Y-47241651D01*
X78944000Y-47201651D02*
X84056000Y-47201651D01*
X78995000Y-47161651D02*
X84005000Y-47161651D01*
X79046000Y-47121651D02*
X83954000Y-47121651D01*
X79100000Y-47081651D02*
X83900000Y-47081651D01*
X79155000Y-47041651D02*
X83845000Y-47041651D01*
X79185000Y-54812349D02*
X79185000Y-54012349D01*
X79213000Y-47001651D02*
X83787000Y-47001651D01*
X79272000Y-46961651D02*
X83728000Y-46961651D01*
X79334000Y-46921651D02*
X83666000Y-46921651D01*
X79398000Y-46881651D02*
X83602000Y-46881651D01*
X79466000Y-46841651D02*
X83534000Y-46841651D01*
X79536000Y-46801651D02*
X83464000Y-46801651D01*
X79610000Y-46761651D02*
X83390000Y-46761651D01*
X79687000Y-46721651D02*
X83313000Y-46721651D01*
X79769000Y-46681651D02*
X83231000Y-46681651D01*
X79855000Y-46641651D02*
X83145000Y-46641651D01*
X79948000Y-46601651D02*
X83052000Y-46601651D01*
X80047000Y-46561651D02*
X82953000Y-46561651D01*
X80154000Y-46521651D02*
X82846000Y-46521651D01*
X80271000Y-46481651D02*
X82729000Y-46481651D01*
X80402000Y-46441651D02*
X82598000Y-46441651D01*
X80552000Y-46401651D02*
X82448000Y-46401651D01*
X80732000Y-46361651D02*
X82268000Y-46361651D01*
X80967000Y-46321651D02*
X82033000Y-46321651D01*
X82540000Y-47641651D02*
X84519000Y-47641651D01*
X82540000Y-47681651D02*
X84555000Y-47681651D01*
X82540000Y-47721651D02*
X84590000Y-47721651D01*
X82540000Y-47761651D02*
X84624000Y-47761651D01*
X82540000Y-47801651D02*
X84656000Y-47801651D01*
X82540000Y-47841651D02*
X84689000Y-47841651D01*
X82540000Y-47881651D02*
X84720000Y-47881651D01*
X82540000Y-47921651D02*
X84750000Y-47921651D01*
X82540000Y-47961651D02*
X84780000Y-47961651D01*
X82540000Y-48001651D02*
X84809000Y-48001651D01*
X82540000Y-48041651D02*
X84838000Y-48041651D01*
X82540000Y-48081651D02*
X84865000Y-48081651D01*
X82540000Y-48121651D02*
X84892000Y-48121651D01*
X82540000Y-48161651D02*
X84918000Y-48161651D01*
X82540000Y-48201651D02*
X84944000Y-48201651D01*
X82540000Y-48241651D02*
X84969000Y-48241651D01*
X82540000Y-48281651D02*
X84993000Y-48281651D01*
X82540000Y-48321651D02*
X85017000Y-48321651D01*
X82540000Y-48361651D02*
X85040000Y-48361651D01*
X82540000Y-48401651D02*
X85062000Y-48401651D01*
X82540000Y-48441651D02*
X85084000Y-48441651D01*
X82540000Y-48481651D02*
X85106000Y-48481651D01*
X82540000Y-48521651D02*
X85127000Y-48521651D01*
X82540000Y-48561651D02*
X85147000Y-48561651D01*
X82540000Y-48601651D02*
X85166000Y-48601651D01*
X82540000Y-48641651D02*
X85186000Y-48641651D01*
X82540000Y-48681651D02*
X85204000Y-48681651D01*
X82540000Y-48721651D02*
X85222000Y-48721651D01*
X82540000Y-48761651D02*
X85240000Y-48761651D01*
X82540000Y-48801651D02*
X85257000Y-48801651D01*
X82540000Y-48841651D02*
X85274000Y-48841651D01*
X82540000Y-48881651D02*
X85290000Y-48881651D01*
X82540000Y-48921651D02*
X85305000Y-48921651D01*
X82540000Y-48961651D02*
X85321000Y-48961651D01*
X82540000Y-49001651D02*
X85335000Y-49001651D01*
X82540000Y-49041651D02*
X85350000Y-49041651D01*
X82540000Y-49081651D02*
X85363000Y-49081651D01*
X82540000Y-49121651D02*
X85377000Y-49121651D01*
X82540000Y-49161651D02*
X85389000Y-49161651D01*
X82540000Y-49201651D02*
X85402000Y-49201651D01*
X82540000Y-49241651D02*
X85414000Y-49241651D01*
X82540000Y-49281651D02*
X85425000Y-49281651D01*
X82540000Y-49321651D02*
X85436000Y-49321651D01*
X82540000Y-49361651D02*
X85447000Y-49361651D01*
X82540000Y-49401651D02*
X85457000Y-49401651D01*
X82540000Y-49441651D02*
X85467000Y-49441651D01*
X82540000Y-49481651D02*
X85476000Y-49481651D01*
X82540000Y-49521651D02*
X85485000Y-49521651D01*
X82540000Y-49561651D02*
X85494000Y-49561651D01*
X82540000Y-49601651D02*
X85502000Y-49601651D01*
X82540000Y-49641651D02*
X85510000Y-49641651D01*
X82540000Y-49681651D02*
X85517000Y-49681651D01*
X85620000Y-50402651D02*
G75*
G02*
X77380000Y-50402651I-4120000J0D01*
G01*
X77380000Y-50402651D02*
G75*
G02*
X85620000Y-50402651I4120000J0D01*
G01*
%TO.C,C13*%
X74460000Y-59371000D02*
X71483000Y-59371000D01*
X74460000Y-59411000D02*
X71490000Y-59411000D01*
X74460000Y-59451000D02*
X71498000Y-59451000D01*
X74460000Y-59491000D02*
X71506000Y-59491000D01*
X74460000Y-59531000D02*
X71515000Y-59531000D01*
X74460000Y-59571000D02*
X71524000Y-59571000D01*
X74460000Y-59611000D02*
X71533000Y-59611000D01*
X74460000Y-59651000D02*
X71543000Y-59651000D01*
X74460000Y-59691000D02*
X71553000Y-59691000D01*
X74460000Y-59731000D02*
X71564000Y-59731000D01*
X74460000Y-59771000D02*
X71575000Y-59771000D01*
X74460000Y-59811000D02*
X71586000Y-59811000D01*
X74460000Y-59851000D02*
X71598000Y-59851000D01*
X74460000Y-59891000D02*
X71611000Y-59891000D01*
X74460000Y-59931000D02*
X71623000Y-59931000D01*
X74460000Y-59971000D02*
X71637000Y-59971000D01*
X74460000Y-60011000D02*
X71650000Y-60011000D01*
X74460000Y-60051000D02*
X71665000Y-60051000D01*
X74460000Y-60091000D02*
X71679000Y-60091000D01*
X74460000Y-60131000D02*
X71695000Y-60131000D01*
X74460000Y-60171000D02*
X71710000Y-60171000D01*
X74460000Y-60211000D02*
X71726000Y-60211000D01*
X74460000Y-60251000D02*
X71743000Y-60251000D01*
X74460000Y-60291000D02*
X71760000Y-60291000D01*
X74460000Y-60331000D02*
X71778000Y-60331000D01*
X74460000Y-60371000D02*
X71796000Y-60371000D01*
X74460000Y-60411000D02*
X71814000Y-60411000D01*
X74460000Y-60451000D02*
X71834000Y-60451000D01*
X74460000Y-60491000D02*
X71853000Y-60491000D01*
X74460000Y-60531000D02*
X71873000Y-60531000D01*
X74460000Y-60571000D02*
X71894000Y-60571000D01*
X74460000Y-60611000D02*
X71916000Y-60611000D01*
X74460000Y-60651000D02*
X71938000Y-60651000D01*
X74460000Y-60691000D02*
X71960000Y-60691000D01*
X74460000Y-60731000D02*
X71983000Y-60731000D01*
X74460000Y-60771000D02*
X72007000Y-60771000D01*
X74460000Y-60811000D02*
X72031000Y-60811000D01*
X74460000Y-60851000D02*
X72056000Y-60851000D01*
X74460000Y-60891000D02*
X72082000Y-60891000D01*
X74460000Y-60931000D02*
X72108000Y-60931000D01*
X74460000Y-60971000D02*
X72135000Y-60971000D01*
X74460000Y-61011000D02*
X72162000Y-61011000D01*
X74460000Y-61051000D02*
X72191000Y-61051000D01*
X74460000Y-61091000D02*
X72220000Y-61091000D01*
X74460000Y-61131000D02*
X72250000Y-61131000D01*
X74460000Y-61171000D02*
X72280000Y-61171000D01*
X74460000Y-61211000D02*
X72311000Y-61211000D01*
X74460000Y-61251000D02*
X72344000Y-61251000D01*
X74460000Y-61291000D02*
X72376000Y-61291000D01*
X74460000Y-61331000D02*
X72410000Y-61331000D01*
X74460000Y-61371000D02*
X72445000Y-61371000D01*
X74460000Y-61411000D02*
X72481000Y-61411000D01*
X76033000Y-62731000D02*
X74967000Y-62731000D01*
X76268000Y-62691000D02*
X74732000Y-62691000D01*
X76448000Y-62651000D02*
X74552000Y-62651000D01*
X76598000Y-62611000D02*
X74402000Y-62611000D01*
X76729000Y-62571000D02*
X74271000Y-62571000D01*
X76846000Y-62531000D02*
X74154000Y-62531000D01*
X76953000Y-62491000D02*
X74047000Y-62491000D01*
X77052000Y-62451000D02*
X73948000Y-62451000D01*
X77145000Y-62411000D02*
X73855000Y-62411000D01*
X77231000Y-62371000D02*
X73769000Y-62371000D01*
X77313000Y-62331000D02*
X73687000Y-62331000D01*
X77390000Y-62291000D02*
X73610000Y-62291000D01*
X77464000Y-62251000D02*
X73536000Y-62251000D01*
X77534000Y-62211000D02*
X73466000Y-62211000D01*
X77602000Y-62171000D02*
X73398000Y-62171000D01*
X77666000Y-62131000D02*
X73334000Y-62131000D01*
X77728000Y-62091000D02*
X73272000Y-62091000D01*
X77787000Y-62051000D02*
X73213000Y-62051000D01*
X77815000Y-54240302D02*
X77815000Y-55040302D01*
X77845000Y-62011000D02*
X73155000Y-62011000D01*
X77900000Y-61971000D02*
X73100000Y-61971000D01*
X77954000Y-61931000D02*
X73046000Y-61931000D01*
X78005000Y-61891000D02*
X72995000Y-61891000D01*
X78056000Y-61851000D02*
X72944000Y-61851000D01*
X78104000Y-61811000D02*
X72896000Y-61811000D01*
X78151000Y-61771000D02*
X72849000Y-61771000D01*
X78197000Y-61731000D02*
X72803000Y-61731000D01*
X78215000Y-54640302D02*
X77415000Y-54640302D01*
X78241000Y-61691000D02*
X72759000Y-61691000D01*
X78284000Y-61651000D02*
X72716000Y-61651000D01*
X78326000Y-61611000D02*
X72674000Y-61611000D01*
X78367000Y-61571000D02*
X72633000Y-61571000D01*
X78407000Y-61531000D02*
X72593000Y-61531000D01*
X78445000Y-61491000D02*
X72555000Y-61491000D01*
X78483000Y-61451000D02*
X72517000Y-61451000D01*
X78519000Y-61411000D02*
X76540000Y-61411000D01*
X78555000Y-61371000D02*
X76540000Y-61371000D01*
X78590000Y-61331000D02*
X76540000Y-61331000D01*
X78624000Y-61291000D02*
X76540000Y-61291000D01*
X78656000Y-61251000D02*
X76540000Y-61251000D01*
X78689000Y-61211000D02*
X76540000Y-61211000D01*
X78720000Y-61171000D02*
X76540000Y-61171000D01*
X78750000Y-61131000D02*
X76540000Y-61131000D01*
X78780000Y-61091000D02*
X76540000Y-61091000D01*
X78809000Y-61051000D02*
X76540000Y-61051000D01*
X78838000Y-61011000D02*
X76540000Y-61011000D01*
X78865000Y-60971000D02*
X76540000Y-60971000D01*
X78892000Y-60931000D02*
X76540000Y-60931000D01*
X78918000Y-60891000D02*
X76540000Y-60891000D01*
X78944000Y-60851000D02*
X76540000Y-60851000D01*
X78969000Y-60811000D02*
X76540000Y-60811000D01*
X78993000Y-60771000D02*
X76540000Y-60771000D01*
X79017000Y-60731000D02*
X76540000Y-60731000D01*
X79040000Y-60691000D02*
X76540000Y-60691000D01*
X79062000Y-60651000D02*
X76540000Y-60651000D01*
X79084000Y-60611000D02*
X76540000Y-60611000D01*
X79106000Y-60571000D02*
X76540000Y-60571000D01*
X79127000Y-60531000D02*
X76540000Y-60531000D01*
X79147000Y-60491000D02*
X76540000Y-60491000D01*
X79166000Y-60451000D02*
X76540000Y-60451000D01*
X79186000Y-60411000D02*
X76540000Y-60411000D01*
X79204000Y-60371000D02*
X76540000Y-60371000D01*
X79222000Y-60331000D02*
X76540000Y-60331000D01*
X79240000Y-60291000D02*
X76540000Y-60291000D01*
X79257000Y-60251000D02*
X76540000Y-60251000D01*
X79274000Y-60211000D02*
X76540000Y-60211000D01*
X79290000Y-60171000D02*
X76540000Y-60171000D01*
X79305000Y-60131000D02*
X76540000Y-60131000D01*
X79321000Y-60091000D02*
X76540000Y-60091000D01*
X79335000Y-60051000D02*
X76540000Y-60051000D01*
X79350000Y-60011000D02*
X76540000Y-60011000D01*
X79363000Y-59971000D02*
X76540000Y-59971000D01*
X79377000Y-59931000D02*
X76540000Y-59931000D01*
X79389000Y-59891000D02*
X76540000Y-59891000D01*
X79402000Y-59851000D02*
X76540000Y-59851000D01*
X79414000Y-59811000D02*
X76540000Y-59811000D01*
X79425000Y-59771000D02*
X76540000Y-59771000D01*
X79436000Y-59731000D02*
X76540000Y-59731000D01*
X79447000Y-59691000D02*
X76540000Y-59691000D01*
X79457000Y-59651000D02*
X76540000Y-59651000D01*
X79467000Y-59611000D02*
X76540000Y-59611000D01*
X79476000Y-59571000D02*
X76540000Y-59571000D01*
X79485000Y-59531000D02*
X76540000Y-59531000D01*
X79494000Y-59491000D02*
X76540000Y-59491000D01*
X79502000Y-59451000D02*
X76540000Y-59451000D01*
X79510000Y-59411000D02*
X76540000Y-59411000D01*
X79517000Y-59371000D02*
X76540000Y-59371000D01*
X79524000Y-59330000D02*
X71476000Y-59330000D01*
X79530000Y-59290000D02*
X71470000Y-59290000D01*
X79537000Y-59250000D02*
X71463000Y-59250000D01*
X79542000Y-59210000D02*
X71458000Y-59210000D01*
X79548000Y-59170000D02*
X71452000Y-59170000D01*
X79552000Y-59130000D02*
X71448000Y-59130000D01*
X79557000Y-59090000D02*
X71443000Y-59090000D01*
X79561000Y-59050000D02*
X71439000Y-59050000D01*
X79565000Y-59010000D02*
X71435000Y-59010000D01*
X79568000Y-58970000D02*
X71432000Y-58970000D01*
X79571000Y-58930000D02*
X71429000Y-58930000D01*
X79574000Y-58890000D02*
X71426000Y-58890000D01*
X79576000Y-58850000D02*
X71424000Y-58850000D01*
X79577000Y-58810000D02*
X71423000Y-58810000D01*
X79579000Y-58770000D02*
X71421000Y-58770000D01*
X79580000Y-58650000D02*
X71420000Y-58650000D01*
X79580000Y-58690000D02*
X71420000Y-58690000D01*
X79580000Y-58730000D02*
X71420000Y-58730000D01*
X79620000Y-58650000D02*
G75*
G02*
X71380000Y-58650000I-4120000J0D01*
G01*
X71380000Y-58650000D02*
G75*
G02*
X79620000Y-58650000I4120000J0D01*
G01*
%TO.C,C11*%
X83210000Y-59221000D02*
X80233000Y-59221000D01*
X83210000Y-59261000D02*
X80240000Y-59261000D01*
X83210000Y-59301000D02*
X80248000Y-59301000D01*
X83210000Y-59341000D02*
X80256000Y-59341000D01*
X83210000Y-59381000D02*
X80265000Y-59381000D01*
X83210000Y-59421000D02*
X80274000Y-59421000D01*
X83210000Y-59461000D02*
X80283000Y-59461000D01*
X83210000Y-59501000D02*
X80293000Y-59501000D01*
X83210000Y-59541000D02*
X80303000Y-59541000D01*
X83210000Y-59581000D02*
X80314000Y-59581000D01*
X83210000Y-59621000D02*
X80325000Y-59621000D01*
X83210000Y-59661000D02*
X80336000Y-59661000D01*
X83210000Y-59701000D02*
X80348000Y-59701000D01*
X83210000Y-59741000D02*
X80361000Y-59741000D01*
X83210000Y-59781000D02*
X80373000Y-59781000D01*
X83210000Y-59821000D02*
X80387000Y-59821000D01*
X83210000Y-59861000D02*
X80400000Y-59861000D01*
X83210000Y-59901000D02*
X80415000Y-59901000D01*
X83210000Y-59941000D02*
X80429000Y-59941000D01*
X83210000Y-59981000D02*
X80445000Y-59981000D01*
X83210000Y-60021000D02*
X80460000Y-60021000D01*
X83210000Y-60061000D02*
X80476000Y-60061000D01*
X83210000Y-60101000D02*
X80493000Y-60101000D01*
X83210000Y-60141000D02*
X80510000Y-60141000D01*
X83210000Y-60181000D02*
X80528000Y-60181000D01*
X83210000Y-60221000D02*
X80546000Y-60221000D01*
X83210000Y-60261000D02*
X80564000Y-60261000D01*
X83210000Y-60301000D02*
X80584000Y-60301000D01*
X83210000Y-60341000D02*
X80603000Y-60341000D01*
X83210000Y-60381000D02*
X80623000Y-60381000D01*
X83210000Y-60421000D02*
X80644000Y-60421000D01*
X83210000Y-60461000D02*
X80666000Y-60461000D01*
X83210000Y-60501000D02*
X80688000Y-60501000D01*
X83210000Y-60541000D02*
X80710000Y-60541000D01*
X83210000Y-60581000D02*
X80733000Y-60581000D01*
X83210000Y-60621000D02*
X80757000Y-60621000D01*
X83210000Y-60661000D02*
X80781000Y-60661000D01*
X83210000Y-60701000D02*
X80806000Y-60701000D01*
X83210000Y-60741000D02*
X80832000Y-60741000D01*
X83210000Y-60781000D02*
X80858000Y-60781000D01*
X83210000Y-60821000D02*
X80885000Y-60821000D01*
X83210000Y-60861000D02*
X80912000Y-60861000D01*
X83210000Y-60901000D02*
X80941000Y-60901000D01*
X83210000Y-60941000D02*
X80970000Y-60941000D01*
X83210000Y-60981000D02*
X81000000Y-60981000D01*
X83210000Y-61021000D02*
X81030000Y-61021000D01*
X83210000Y-61061000D02*
X81061000Y-61061000D01*
X83210000Y-61101000D02*
X81094000Y-61101000D01*
X83210000Y-61141000D02*
X81126000Y-61141000D01*
X83210000Y-61181000D02*
X81160000Y-61181000D01*
X83210000Y-61221000D02*
X81195000Y-61221000D01*
X83210000Y-61261000D02*
X81231000Y-61261000D01*
X84783000Y-62581000D02*
X83717000Y-62581000D01*
X85018000Y-62541000D02*
X83482000Y-62541000D01*
X85198000Y-62501000D02*
X83302000Y-62501000D01*
X85348000Y-62461000D02*
X83152000Y-62461000D01*
X85479000Y-62421000D02*
X83021000Y-62421000D01*
X85596000Y-62381000D02*
X82904000Y-62381000D01*
X85703000Y-62341000D02*
X82797000Y-62341000D01*
X85802000Y-62301000D02*
X82698000Y-62301000D01*
X85895000Y-62261000D02*
X82605000Y-62261000D01*
X85981000Y-62221000D02*
X82519000Y-62221000D01*
X86063000Y-62181000D02*
X82437000Y-62181000D01*
X86140000Y-62141000D02*
X82360000Y-62141000D01*
X86214000Y-62101000D02*
X82286000Y-62101000D01*
X86284000Y-62061000D02*
X82216000Y-62061000D01*
X86352000Y-62021000D02*
X82148000Y-62021000D01*
X86416000Y-61981000D02*
X82084000Y-61981000D01*
X86478000Y-61941000D02*
X82022000Y-61941000D01*
X86537000Y-61901000D02*
X81963000Y-61901000D01*
X86565000Y-54090302D02*
X86565000Y-54890302D01*
X86595000Y-61861000D02*
X81905000Y-61861000D01*
X86650000Y-61821000D02*
X81850000Y-61821000D01*
X86704000Y-61781000D02*
X81796000Y-61781000D01*
X86755000Y-61741000D02*
X81745000Y-61741000D01*
X86806000Y-61701000D02*
X81694000Y-61701000D01*
X86854000Y-61661000D02*
X81646000Y-61661000D01*
X86901000Y-61621000D02*
X81599000Y-61621000D01*
X86947000Y-61581000D02*
X81553000Y-61581000D01*
X86965000Y-54490302D02*
X86165000Y-54490302D01*
X86991000Y-61541000D02*
X81509000Y-61541000D01*
X87034000Y-61501000D02*
X81466000Y-61501000D01*
X87076000Y-61461000D02*
X81424000Y-61461000D01*
X87117000Y-61421000D02*
X81383000Y-61421000D01*
X87157000Y-61381000D02*
X81343000Y-61381000D01*
X87195000Y-61341000D02*
X81305000Y-61341000D01*
X87233000Y-61301000D02*
X81267000Y-61301000D01*
X87269000Y-61261000D02*
X85290000Y-61261000D01*
X87305000Y-61221000D02*
X85290000Y-61221000D01*
X87340000Y-61181000D02*
X85290000Y-61181000D01*
X87374000Y-61141000D02*
X85290000Y-61141000D01*
X87406000Y-61101000D02*
X85290000Y-61101000D01*
X87439000Y-61061000D02*
X85290000Y-61061000D01*
X87470000Y-61021000D02*
X85290000Y-61021000D01*
X87500000Y-60981000D02*
X85290000Y-60981000D01*
X87530000Y-60941000D02*
X85290000Y-60941000D01*
X87559000Y-60901000D02*
X85290000Y-60901000D01*
X87588000Y-60861000D02*
X85290000Y-60861000D01*
X87615000Y-60821000D02*
X85290000Y-60821000D01*
X87642000Y-60781000D02*
X85290000Y-60781000D01*
X87668000Y-60741000D02*
X85290000Y-60741000D01*
X87694000Y-60701000D02*
X85290000Y-60701000D01*
X87719000Y-60661000D02*
X85290000Y-60661000D01*
X87743000Y-60621000D02*
X85290000Y-60621000D01*
X87767000Y-60581000D02*
X85290000Y-60581000D01*
X87790000Y-60541000D02*
X85290000Y-60541000D01*
X87812000Y-60501000D02*
X85290000Y-60501000D01*
X87834000Y-60461000D02*
X85290000Y-60461000D01*
X87856000Y-60421000D02*
X85290000Y-60421000D01*
X87877000Y-60381000D02*
X85290000Y-60381000D01*
X87897000Y-60341000D02*
X85290000Y-60341000D01*
X87916000Y-60301000D02*
X85290000Y-60301000D01*
X87936000Y-60261000D02*
X85290000Y-60261000D01*
X87954000Y-60221000D02*
X85290000Y-60221000D01*
X87972000Y-60181000D02*
X85290000Y-60181000D01*
X87990000Y-60141000D02*
X85290000Y-60141000D01*
X88007000Y-60101000D02*
X85290000Y-60101000D01*
X88024000Y-60061000D02*
X85290000Y-60061000D01*
X88040000Y-60021000D02*
X85290000Y-60021000D01*
X88055000Y-59981000D02*
X85290000Y-59981000D01*
X88071000Y-59941000D02*
X85290000Y-59941000D01*
X88085000Y-59901000D02*
X85290000Y-59901000D01*
X88100000Y-59861000D02*
X85290000Y-59861000D01*
X88113000Y-59821000D02*
X85290000Y-59821000D01*
X88127000Y-59781000D02*
X85290000Y-59781000D01*
X88139000Y-59741000D02*
X85290000Y-59741000D01*
X88152000Y-59701000D02*
X85290000Y-59701000D01*
X88164000Y-59661000D02*
X85290000Y-59661000D01*
X88175000Y-59621000D02*
X85290000Y-59621000D01*
X88186000Y-59581000D02*
X85290000Y-59581000D01*
X88197000Y-59541000D02*
X85290000Y-59541000D01*
X88207000Y-59501000D02*
X85290000Y-59501000D01*
X88217000Y-59461000D02*
X85290000Y-59461000D01*
X88226000Y-59421000D02*
X85290000Y-59421000D01*
X88235000Y-59381000D02*
X85290000Y-59381000D01*
X88244000Y-59341000D02*
X85290000Y-59341000D01*
X88252000Y-59301000D02*
X85290000Y-59301000D01*
X88260000Y-59261000D02*
X85290000Y-59261000D01*
X88267000Y-59221000D02*
X85290000Y-59221000D01*
X88274000Y-59180000D02*
X80226000Y-59180000D01*
X88280000Y-59140000D02*
X80220000Y-59140000D01*
X88287000Y-59100000D02*
X80213000Y-59100000D01*
X88292000Y-59060000D02*
X80208000Y-59060000D01*
X88298000Y-59020000D02*
X80202000Y-59020000D01*
X88302000Y-58980000D02*
X80198000Y-58980000D01*
X88307000Y-58940000D02*
X80193000Y-58940000D01*
X88311000Y-58900000D02*
X80189000Y-58900000D01*
X88315000Y-58860000D02*
X80185000Y-58860000D01*
X88318000Y-58820000D02*
X80182000Y-58820000D01*
X88321000Y-58780000D02*
X80179000Y-58780000D01*
X88324000Y-58740000D02*
X80176000Y-58740000D01*
X88326000Y-58700000D02*
X80174000Y-58700000D01*
X88327000Y-58660000D02*
X80173000Y-58660000D01*
X88329000Y-58620000D02*
X80171000Y-58620000D01*
X88330000Y-58500000D02*
X80170000Y-58500000D01*
X88330000Y-58540000D02*
X80170000Y-58540000D01*
X88330000Y-58580000D02*
X80170000Y-58580000D01*
X88370000Y-58500000D02*
G75*
G02*
X80130000Y-58500000I-4120000J0D01*
G01*
X80130000Y-58500000D02*
G75*
G02*
X88370000Y-58500000I4120000J0D01*
G01*
%TD*%
M02*
